<svg width="33" height="33" viewBox="0 0 33 33" fill="none" xmlns="http://www.w3.org/2000/svg">
<g clip-path="url(#clip0_77_1047)">
<path d="M17.0794 1.47577L17.9736 0.34335C18.4068 -0.205842 19.2731 -0.0758922 19.5252 0.576949L20.045 1.92131C20.2554 2.46586 20.9191 2.67007 21.4002 2.339L22.5883 1.52063C23.1638 1.12305 23.9528 1.50361 24.0023 2.20132L24.1029 3.64005C24.1431 4.22172 24.717 4.61312 25.274 4.43831L26.6493 4.00669C27.316 3.79784 27.958 4.39344 27.8002 5.07413L27.4723 6.47883C27.3392 7.04658 27.7724 7.59113 28.3572 7.58804L29.799 7.5803C30.4982 7.57721 30.9361 8.33525 30.5833 8.93858L29.8562 10.1839C29.5623 10.6883 29.816 11.3349 30.3745 11.5035L31.7544 11.9212C32.4243 12.1239 32.6192 12.9778 32.1041 13.4512L31.0413 14.4274C30.6112 14.8219 30.6638 15.515 31.148 15.8414L32.3438 16.6474C32.924 17.0388 32.859 17.9113 32.2263 18.213L30.9237 18.8318C30.3961 19.0824 30.2414 19.76 30.6081 20.2148L31.5131 21.3379C31.9524 21.8825 31.6322 22.6978 30.9391 22.7983L29.5128 23.0056C28.9358 23.0892 28.5877 23.691 28.8043 24.234L29.338 25.5737C29.5963 26.2234 29.0502 26.9088 28.3603 26.8005L26.9355 26.5777C26.3584 26.488 25.8495 26.9598 25.8959 27.543L26.0103 28.9802C26.066 29.6779 25.342 30.1714 24.7139 29.8636L23.4175 29.2308C22.8931 28.9756 22.2666 29.2757 22.1397 29.8465L21.8257 31.2543C21.6741 31.9366 20.8371 32.1949 20.3266 31.7169L19.2746 30.7314C18.8492 30.3323 18.1623 30.436 17.8715 30.9434L17.1568 32.1965C16.8102 32.8044 15.9346 32.8044 15.5881 32.1965L14.8734 30.9434C14.5841 30.436 13.8972 30.3323 13.4702 30.7314L12.4182 31.7169C11.9077 32.1949 11.0708 31.9366 10.9192 31.2543L10.6051 29.8465C10.4783 29.2772 9.85174 28.9756 9.3273 29.2308L8.0309 29.8636C7.40281 30.1699 6.67881 29.6764 6.7345 28.9802L6.84898 27.543C6.89539 26.9613 6.38642 26.488 5.80938 26.5777L4.38458 26.8005C3.69306 26.9088 3.14696 26.2234 3.40686 25.5737L3.94058 24.234C4.15717 23.691 3.80909 23.0892 3.23205 23.0056L1.8057 22.7983C1.11418 22.6978 0.793948 21.8825 1.23175 21.3379L2.13676 20.2148C2.5034 19.76 2.3487 19.0824 1.82117 18.8318L0.518578 18.213C-0.112605 17.9128 -0.179127 17.0388 0.401005 16.6474L1.59685 15.8414C2.08107 15.515 2.13212 14.8219 1.70359 14.4274L0.640793 13.4512C0.125636 12.9778 0.32056 12.1239 0.990419 11.9212L2.37036 11.5035C2.92883 11.3349 3.18254 10.6867 2.88861 10.1839L2.16151 8.93858C1.80879 8.33525 2.2466 7.57566 2.94585 7.5803L4.38767 7.58804C4.9709 7.59113 5.40406 7.04813 5.27257 6.47883L4.9446 5.07413C4.78525 4.39344 5.42727 3.79784 6.09558 4.00669L7.47088 4.43831C8.02781 4.61312 8.60175 4.22172 8.64197 3.64005L8.74253 2.20132C8.79203 1.50361 9.58101 1.12305 10.1565 1.52063L11.3446 2.339C11.8257 2.67007 12.4894 2.46586 12.6998 1.92131L13.2196 0.576949C13.4718 -0.0758922 14.3381 -0.205842 14.7713 0.34335L15.6654 1.47577C16.0274 1.93368 16.722 1.93368 17.0841 1.47577H17.0794Z" fill="#C40B61"/>
</g>
<defs>
<clipPath id="clip0_77_1047">
<rect width="32.7411" height="32.6545" fill="white"/>
</clipPath>
</defs>
</svg>
