<svg width="63" height="33" viewBox="0 0 63 33" fill="none" xmlns="http://www.w3.org/2000/svg">
<g clip-path="url(#clip0_78_1077)">
<path d="M4.3042 30.4688C3.44343 28.8494 2.55951 27.1414 2.57994 25.3069C2.60037 23.4723 3.86973 21.5124 5.70023 21.4007C7.95702 21.2632 9.81476 23.8414 12.0375 23.4287C13.6133 23.1359 14.5408 21.3912 14.5844 19.7895C14.628 18.1878 14.0355 16.6474 13.6991 15.0798C13.3627 13.5121 13.3287 11.728 14.3256 10.4736C15.9777 8.39248 19.4698 9.05848 21.3861 10.8999C23.3024 12.7413 24.2435 15.3508 25.7349 17.5504C27.2263 19.75 29.8031 21.6799 32.3623 20.9649C34.7049 20.3098 35.9661 17.7002 36.1976 15.2786C36.4291 12.857 35.9361 10.4082 36.1853 7.98933C36.4346 5.57046 37.7434 2.97181 40.101 2.37254C41.6768 1.97076 43.3725 2.57684 44.6528 3.57925C45.933 4.58167 46.8728 5.94501 47.7921 7.28519C51.9053 13.2793 56.0171 19.2747 60.1303 25.2687" stroke="#C40B61" stroke-width="4.49452" stroke-linecap="round" stroke-linejoin="round"/>
</g>
<defs>
<clipPath id="clip0_78_1077">
<rect width="62.0435" height="32.716" fill="white" transform="translate(0.33252)"/>
</clipPath>
</defs>
</svg>
