<svg width="31" height="30" viewBox="0 0 31 30" fill="none" xmlns="http://www.w3.org/2000/svg">
<g clip-path="url(#clip0_78_1050)">
<path d="M16.437 1.52359L17.2523 1.12489C18.8146 0.361529 20.6995 0.974162 21.5148 2.50899L21.9394 3.30962C22.4045 4.18805 23.2506 4.80231 24.2295 4.9741L25.1225 5.13132C26.834 5.43115 28.0009 7.03566 27.7562 8.75687L27.6298 9.65475C27.4904 10.6385 27.8129 11.632 28.5049 12.3468L29.1354 12.9983C30.3445 14.2479 30.3445 16.23 29.1354 17.4796L28.5049 18.1311C27.8145 18.8459 27.4904 19.8394 27.6298 20.8231L27.7562 21.721C27.9993 23.4422 26.834 25.0468 25.1225 25.3466L24.2295 25.5038C23.2506 25.6756 22.4045 26.2898 21.9394 27.1683L21.5148 27.9689C20.6995 29.5037 18.8146 30.118 17.2523 29.353L16.437 28.9543C15.544 28.5183 14.4987 28.5183 13.6056 28.9543L12.7904 29.353C11.228 30.1164 9.34314 29.5037 8.52792 27.9689L8.10329 27.1683C7.63814 26.2898 6.79213 25.6756 5.81321 25.5038L4.92019 25.3466C3.20871 25.0468 2.04179 23.4422 2.28652 21.721L2.41293 20.8231C2.55232 19.8394 2.22979 18.8459 1.53774 18.1311L0.907283 17.4796C-0.301776 16.23 -0.301776 14.2479 0.907283 12.9983L1.53774 12.3468C2.22817 11.632 2.55232 10.6385 2.41293 9.65475L2.28652 8.75687C2.04341 7.03566 3.20871 5.43115 4.92019 5.13132L5.81321 4.9741C6.79213 4.80231 7.63814 4.18805 8.10329 3.30962L8.52792 2.50899C9.34314 0.974162 11.228 0.359908 12.7904 1.12489L13.6056 1.52359C14.4987 1.95956 15.544 1.95956 16.437 1.52359Z" fill="#C40B61"/>
</g>
<defs>
<clipPath id="clip0_78_1050">
<rect width="30.0401" height="28.8861" fill="white" transform="translate(0.00146484 0.797607)"/>
</clipPath>
</defs>
</svg>
