<svg width="39" height="38" viewBox="0 0 39 38" fill="none" xmlns="http://www.w3.org/2000/svg">
<g clip-path="url(#clip0_78_1053)">
<path d="M21.1157 2.9821L22.1728 1.78234C23.707 0.0384642 26.5815 0.972844 26.8001 3.28538L26.9495 4.87762C27.0989 6.46762 28.6086 7.56479 30.1674 7.21468L31.7284 6.86457C33.9941 6.35612 35.7715 8.80246 34.5873 10.8006L33.7711 12.1765C32.9572 13.5502 33.5348 15.3253 34.9999 15.9586L36.4672 16.5919C38.5991 17.5129 38.5991 20.5346 36.4672 21.4556L34.9999 22.0889C33.5348 22.7223 32.9572 24.4974 33.7711 25.8711L34.5873 27.247C35.7715 29.2451 33.9941 31.6914 31.7284 31.183L30.1674 30.8329C28.6086 30.4827 27.0989 31.5799 26.9495 33.1699L26.8001 34.7622C26.5838 37.0747 23.7093 38.0091 22.1728 36.2652L21.1157 35.0654C20.0609 33.8679 18.1944 33.8679 17.1396 35.0654L16.0826 36.2652C14.5483 38.0091 11.6738 37.0747 11.4553 34.7622L11.3059 33.1699C11.1565 31.5799 9.64674 30.4827 8.08795 30.8329L6.52694 31.183C4.26123 31.6914 2.4839 29.2451 3.66805 27.247L4.48423 25.8711C5.29819 24.4974 4.72062 22.7223 3.25549 22.0889L1.78814 21.4556C-0.343767 20.5346 -0.343767 17.5129 1.78814 16.5919L3.25549 15.9586C4.72062 15.3253 5.29819 13.5502 4.48423 12.1765L3.66805 10.8006C2.4839 8.80246 4.26123 6.35612 6.52694 6.86457L8.08795 7.21468C9.64674 7.56479 11.1565 6.46762 11.3059 4.87762L11.4553 3.28538C11.6716 0.972844 14.5461 0.0384642 16.0826 1.78234L17.1396 2.9821C18.1944 4.17962 20.0609 4.17962 21.1157 2.9821Z" fill="#C40B61"/>
</g>
<defs>
<clipPath id="clip0_78_1053">
<rect width="37.8792" height="36.2914" fill="white" transform="translate(0.186768 0.87915)"/>
</clipPath>
</defs>
</svg>
