<svg width="74" height="75" viewBox="0 0 74 75" fill="none" xmlns="http://www.w3.org/2000/svg">
<g id="Layer_1">
<g id="Group">
<g id="Clip path group">
<mask id="mask0_355_438" style="mask-type:luminance" maskUnits="userSpaceOnUse" x="14" y="8" width="44" height="45">
<g id="clippath">
<path id="Vector" d="M55.0527 39.9103C55.0527 43.1466 57.8778 41.0738 57.0227 43.2792C54.4601 49.8899 48.1227 52.1899 38.4137 52.1899C28.1717 52.1899 18.0541 51.3267 15.7107 43.8447C15.3968 42.8408 13.0886 35.6186 14.5174 34.5443C15.4455 33.8489 18.2137 36.471 18.2137 35.1396C18.2137 30.6586 22.2673 25.961 23.4606 28.1068C24.6539 30.2527 28.1825 17.9351 30.2553 15.2319C32.9964 11.6546 39.6044 7.89329 40.0833 8.29648C40.5758 8.71049 40.381 11.7249 41.9396 12.967C43.639 14.3227 47.1324 13.9763 48.6152 16.068C49.6354 17.5076 48.691 19.7914 49.6895 21.1958C50.412 22.2106 51.6486 20.2568 52.1925 21.3149C52.934 22.7517 51.1291 26.3182 51.7163 27.6333C53.2911 31.1565 54.7118 30.2824 55.7698 32.9992C56.8468 35.7593 55.0554 39.4097 55.0554 39.913L55.0527 39.9103Z" fill="white"/>
</g>
</mask>
<g mask="url(#mask0_355_438)">
<g id="Group_2">
<g id="Group_3">
<g id="Group_4">
<g id="Group_5">
<path id="Vector_2" d="M39.3987 0.240814L0.208252 34.1141" stroke="#BFC330" stroke-width="0.633196" stroke-miterlimit="10"/>
<path id="Vector_3" d="M39.8128 0.719757L0.622314 34.5957" stroke="#C40B61" stroke-width="0.633196" stroke-miterlimit="10"/>
</g>
<g id="Group_6">
<path id="Vector_4" d="M40.2269 1.1987L1.03638 35.0747" stroke="#BFC330" stroke-width="0.633196" stroke-miterlimit="10"/>
<path id="Vector_5" d="M40.6436 1.67767L1.45044 35.5536" stroke="#C40B61" stroke-width="0.633196" stroke-miterlimit="10"/>
</g>
<g id="Group_7">
<path id="Vector_6" d="M41.0577 2.15665L1.8645 36.0326" stroke="#BFC330" stroke-width="0.633196" stroke-miterlimit="10"/>
<path id="Vector_7" d="M41.4716 2.63559L2.27844 36.5115" stroke="#C40B61" stroke-width="0.633196" stroke-miterlimit="10"/>
</g>
<g id="Group_8">
<path id="Vector_8" d="M41.8857 3.11725L2.6925 36.9932" stroke="#BFC330" stroke-width="0.633196" stroke-miterlimit="10"/>
<path id="Vector_9" d="M42.2997 3.59625L3.10925 37.4722" stroke="#C40B61" stroke-width="0.633196" stroke-miterlimit="10"/>
</g>
<g id="Group_9">
<path id="Vector_10" d="M42.7137 4.07516L3.52319 37.9511" stroke="#BFC330" stroke-width="0.633196" stroke-miterlimit="10"/>
<path id="Vector_11" d="M43.1276 4.55417L3.93713 38.4301" stroke="#C40B61" stroke-width="0.633196" stroke-miterlimit="10"/>
</g>
<g id="Group_10">
<path id="Vector_12" d="M43.5445 5.03311L4.35132 38.9091" stroke="#BFC330" stroke-width="0.633196" stroke-miterlimit="10"/>
<path id="Vector_13" d="M43.9584 5.51202L4.76526 39.388" stroke="#C40B61" stroke-width="0.633196" stroke-miterlimit="10"/>
</g>
<g id="Group_11">
<path id="Vector_14" d="M44.3724 5.99371L5.1792 39.8697" stroke="#BFC330" stroke-width="0.633196" stroke-miterlimit="10"/>
<path id="Vector_15" d="M44.7863 6.47269L5.59314 40.3486" stroke="#C40B61" stroke-width="0.633196" stroke-miterlimit="10"/>
</g>
<g id="Group_12">
<path id="Vector_16" d="M45.2005 6.9516L6.00732 40.8276" stroke="#BFC330" stroke-width="0.633196" stroke-miterlimit="10"/>
<path id="Vector_17" d="M45.6144 7.43054L6.42395 41.3065" stroke="#C40B61" stroke-width="0.633196" stroke-miterlimit="10"/>
</g>
<g id="Group_13">
<path id="Vector_18" d="M46.0285 7.90955L6.83801 41.7855" stroke="#BFC330" stroke-width="0.633196" stroke-miterlimit="10"/>
<path id="Vector_19" d="M46.4453 8.38846L7.25208 42.2644" stroke="#C40B61" stroke-width="0.633196" stroke-miterlimit="10"/>
</g>
<g id="Group_14">
<path id="Vector_20" d="M46.8592 8.87018L7.66602 42.7461" stroke="#BFC330" stroke-width="0.633196" stroke-miterlimit="10"/>
<path id="Vector_21" d="M47.2733 9.34912L8.08008 43.2251" stroke="#C40B61" stroke-width="0.633196" stroke-miterlimit="10"/>
</g>
<g id="Group_15">
<path id="Vector_22" d="M47.6873 9.82803L8.49414 43.704" stroke="#BFC330" stroke-width="0.633196" stroke-miterlimit="10"/>
<path id="Vector_23" d="M48.1011 10.307L8.90796 44.183" stroke="#C40B61" stroke-width="0.633196" stroke-miterlimit="10"/>
</g>
<g id="Group_16">
<path id="Vector_24" d="M48.5153 10.786L9.32483 44.6619" stroke="#BFC330" stroke-width="0.633196" stroke-miterlimit="10"/>
<path id="Vector_25" d="M48.9292 11.265L9.73877 45.1409" stroke="#C40B61" stroke-width="0.633196" stroke-miterlimit="10"/>
</g>
<g id="Group_17">
<path id="Vector_26" d="M49.3432 11.7466L10.1527 45.6225" stroke="#BFC330" stroke-width="0.633196" stroke-miterlimit="10"/>
<path id="Vector_27" d="M49.7601 12.2256L10.5669 46.1015" stroke="#C40B61" stroke-width="0.633196" stroke-miterlimit="10"/>
</g>
<g id="Group_18">
<path id="Vector_28" d="M50.1739 12.7045L10.9807 46.5805" stroke="#BFC330" stroke-width="0.633196" stroke-miterlimit="10"/>
<path id="Vector_29" d="M50.5881 13.1834L11.3949 47.0594" stroke="#C40B61" stroke-width="0.633196" stroke-miterlimit="10"/>
</g>
</g>
<g id="Group_19">
<g id="Group_20">
<path id="Vector_30" d="M51.002 13.6624L11.8088 47.5384" stroke="#BFC330" stroke-width="0.633196" stroke-miterlimit="10"/>
<path id="Vector_31" d="M51.4161 14.1441L12.2256 48.0174" stroke="#C40B61" stroke-width="0.633196" stroke-miterlimit="10"/>
</g>
<g id="Group_21">
<path id="Vector_32" d="M51.83 14.623L12.6395 48.499" stroke="#BFC330" stroke-width="0.633196" stroke-miterlimit="10"/>
<path id="Vector_33" d="M52.2442 15.102L13.0537 48.9779" stroke="#C40B61" stroke-width="0.633196" stroke-miterlimit="10"/>
</g>
<g id="Group_22">
<path id="Vector_34" d="M52.6608 15.581L13.4677 49.4569" stroke="#BFC330" stroke-width="0.633196" stroke-miterlimit="10"/>
<path id="Vector_35" d="M53.0747 16.0599L13.8815 49.9359" stroke="#C40B61" stroke-width="0.633196" stroke-miterlimit="10"/>
</g>
<g id="Group_23">
<path id="Vector_36" d="M53.4887 16.5389L14.2955 50.4148" stroke="#BFC330" stroke-width="0.633196" stroke-miterlimit="10"/>
<path id="Vector_37" d="M53.9028 17.0205L14.7096 50.8938" stroke="#C40B61" stroke-width="0.633196" stroke-miterlimit="10"/>
</g>
<g id="Group_24">
<path id="Vector_38" d="M54.3167 17.4995L15.1235 51.3754" stroke="#BFC330" stroke-width="0.633196" stroke-miterlimit="10"/>
<path id="Vector_39" d="M54.7309 17.9784L15.5404 51.8544" stroke="#C40B61" stroke-width="0.633196" stroke-miterlimit="10"/>
</g>
<g id="Group_25">
<path id="Vector_40" d="M55.1447 18.4574L15.9542 52.3333" stroke="#BFC330" stroke-width="0.633196" stroke-miterlimit="10"/>
<path id="Vector_41" d="M55.5615 18.9363L16.3683 52.8123" stroke="#C40B61" stroke-width="0.633196" stroke-miterlimit="10"/>
</g>
<g id="Group_26">
<path id="Vector_42" d="M55.9755 19.4153L16.7823 53.2912" stroke="#BFC330" stroke-width="0.633196" stroke-miterlimit="10"/>
<path id="Vector_43" d="M56.3896 19.897L17.1964 53.7702" stroke="#C40B61" stroke-width="0.633196" stroke-miterlimit="10"/>
</g>
<g id="Group_27">
<path id="Vector_44" d="M56.8035 20.3759L17.6104 54.2519" stroke="#BFC330" stroke-width="0.633196" stroke-miterlimit="10"/>
<path id="Vector_45" d="M57.2176 20.8549L18.0244 54.7308" stroke="#C40B61" stroke-width="0.633196" stroke-miterlimit="10"/>
</g>
<g id="Group_28">
<path id="Vector_46" d="M57.6315 21.3338L18.441 55.2098" stroke="#BFC330" stroke-width="0.633196" stroke-miterlimit="10"/>
<path id="Vector_47" d="M58.0458 21.8128L18.8553 55.6887" stroke="#C40B61" stroke-width="0.633196" stroke-miterlimit="10"/>
</g>
<g id="Group_29">
<path id="Vector_48" d="M58.4596 22.2917L19.2692 56.1677" stroke="#BFC330" stroke-width="0.633196" stroke-miterlimit="10"/>
<path id="Vector_49" d="M58.8763 22.7734L19.6831 56.6467" stroke="#C40B61" stroke-width="0.633196" stroke-miterlimit="10"/>
</g>
<g id="Group_30">
<path id="Vector_50" d="M59.2905 23.2523L20.0973 57.1283" stroke="#BFC330" stroke-width="0.633196" stroke-miterlimit="10"/>
<path id="Vector_51" d="M59.7044 23.7313L20.5112 57.6073" stroke="#C40B61" stroke-width="0.633196" stroke-miterlimit="10"/>
</g>
<g id="Group_31">
<path id="Vector_52" d="M60.1184 24.2103L20.9252 58.0862" stroke="#BFC330" stroke-width="0.633196" stroke-miterlimit="10"/>
<path id="Vector_53" d="M60.5323 24.6892L21.3418 58.5652" stroke="#C40B61" stroke-width="0.633196" stroke-miterlimit="10"/>
</g>
<g id="Group_32">
<path id="Vector_54" d="M60.9465 25.1682L21.756 59.0441" stroke="#BFC330" stroke-width="0.633196" stroke-miterlimit="10"/>
<path id="Vector_55" d="M61.3604 25.6498L22.1699 59.5231" stroke="#C40B61" stroke-width="0.633196" stroke-miterlimit="10"/>
</g>
<g id="Group_33">
<path id="Vector_56" d="M61.777 26.1288L22.5839 60.0048" stroke="#BFC330" stroke-width="0.633196" stroke-miterlimit="10"/>
<path id="Vector_57" d="M62.1911 26.6078L22.9979 60.4837" stroke="#C40B61" stroke-width="0.633196" stroke-miterlimit="10"/>
</g>
</g>
<g id="Group_34">
<g id="Group_35">
<path id="Vector_58" d="M62.6052 27.0867L23.412 60.9627" stroke="#BFC330" stroke-width="0.633196" stroke-miterlimit="10"/>
<path id="Vector_59" d="M63.0192 27.5657L23.826 61.4416" stroke="#C40B61" stroke-width="0.633196" stroke-miterlimit="10"/>
</g>
<g id="Group_36">
<path id="Vector_60" d="M63.4333 28.0446L24.2401 61.9206" stroke="#BFC330" stroke-width="0.633196" stroke-miterlimit="10"/>
<path id="Vector_61" d="M63.8472 28.5263L24.6567 62.4022" stroke="#C40B61" stroke-width="0.633196" stroke-miterlimit="10"/>
</g>
<g id="Group_37">
<path id="Vector_62" d="M64.2613 29.0052L25.0708 62.8812" stroke="#BFC330" stroke-width="0.633196" stroke-miterlimit="10"/>
<path id="Vector_63" d="M64.6779 29.4842L25.4847 63.3601" stroke="#C40B61" stroke-width="0.633196" stroke-miterlimit="10"/>
</g>
<g id="Group_38">
<path id="Vector_64" d="M65.092 29.9631L25.8988 63.8391" stroke="#BFC330" stroke-width="0.633196" stroke-miterlimit="10"/>
<path id="Vector_65" d="M65.506 30.4421L26.3129 64.318" stroke="#C40B61" stroke-width="0.633196" stroke-miterlimit="10"/>
</g>
<g id="Group_39">
<path id="Vector_66" d="M65.92 30.9211L26.7268 64.797" stroke="#BFC330" stroke-width="0.633196" stroke-miterlimit="10"/>
<path id="Vector_67" d="M66.3339 31.4027L27.1407 65.2787" stroke="#C40B61" stroke-width="0.633196" stroke-miterlimit="10"/>
</g>
<g id="Group_40">
<path id="Vector_68" d="M66.7479 31.8817L27.5574 65.7576" stroke="#BFC330" stroke-width="0.633196" stroke-miterlimit="10"/>
<path id="Vector_69" d="M67.162 32.3606L27.9716 66.2366" stroke="#C40B61" stroke-width="0.633196" stroke-miterlimit="10"/>
</g>
<g id="Group_41">
<path id="Vector_70" d="M67.576 32.8396L28.3855 66.7156" stroke="#BFC330" stroke-width="0.633196" stroke-miterlimit="10"/>
<path id="Vector_71" d="M67.9929 33.3185L28.7997 67.1945" stroke="#C40B61" stroke-width="0.633196" stroke-miterlimit="10"/>
</g>
<g id="Group_42">
<path id="Vector_72" d="M68.4068 33.7975L29.2136 67.6734" stroke="#BFC330" stroke-width="0.633196" stroke-miterlimit="10"/>
<path id="Vector_73" d="M68.8207 34.2791L29.6276 68.1551" stroke="#C40B61" stroke-width="0.633196" stroke-miterlimit="10"/>
</g>
<g id="Group_43">
<path id="Vector_74" d="M69.2349 34.7581L30.0417 68.6341" stroke="#BFC330" stroke-width="0.633196" stroke-miterlimit="10"/>
<path id="Vector_75" d="M69.6489 35.2371L30.4584 69.113" stroke="#C40B61" stroke-width="0.633196" stroke-miterlimit="10"/>
</g>
<g id="Group_44">
<path id="Vector_76" d="M70.0628 35.716L30.8723 69.592" stroke="#BFC330" stroke-width="0.633196" stroke-miterlimit="10"/>
<path id="Vector_77" d="M70.4769 36.195L31.2864 70.0709" stroke="#C40B61" stroke-width="0.633196" stroke-miterlimit="10"/>
</g>
<g id="Group_45">
<path id="Vector_78" d="M70.8935 36.6739L31.7003 70.5499" stroke="#BFC330" stroke-width="0.633196" stroke-miterlimit="10"/>
<path id="Vector_79" d="M71.3076 37.1556L32.1144 71.0315" stroke="#C40B61" stroke-width="0.633196" stroke-miterlimit="10"/>
</g>
<g id="Group_46">
<path id="Vector_80" d="M71.7216 37.6346L32.5284 71.5105" stroke="#BFC330" stroke-width="0.633196" stroke-miterlimit="10"/>
<path id="Vector_81" d="M72.1357 38.1136L32.9425 71.9895" stroke="#C40B61" stroke-width="0.633196" stroke-miterlimit="10"/>
</g>
<g id="Group_47">
<path id="Vector_82" d="M72.5495 38.5925L33.3563 72.4684" stroke="#BFC330" stroke-width="0.633196" stroke-miterlimit="10"/>
<path id="Vector_83" d="M72.9637 39.0714L33.7732 72.9474" stroke="#C40B61" stroke-width="0.633196" stroke-miterlimit="10"/>
</g>
<g id="Group_48">
<path id="Vector_84" d="M73.3776 39.5531L34.1871 73.4263" stroke="#BFC330" stroke-width="0.633196" stroke-miterlimit="10"/>
<path id="Vector_85" d="M73.7944 40.032L34.6012 73.9079" stroke="#C40B61" stroke-width="0.633196" stroke-miterlimit="10"/>
</g>
</g>
</g>
</g>
</g>
</g>
<path id="Vector_86" d="M50.9424 39.1661C50.9424 48.4881 45.9364 51.4295 36.6171 51.4295C27.2977 51.4295 22.0725 48.4854 22.0725 39.1661C22.0725 32.5446 30.4285 28.529 34.4442 25.9258C37.2286 24.1182 37.3477 21.7911 37.0392 20.2866C36.9472 19.8455 37.4694 19.537 37.8158 19.8293C40.6868 22.2457 51.9166 31.6787 48.5531 38.5167C47.8414 39.9644 50.9397 37.7049 50.9397 39.1688L50.9424 39.1661Z" fill="#F9AFCD"/>
</g>
<g id="Group_49">
<g id="Group_50">
<path id="Vector_87" d="M45.4953 45.7254C46.077 45.4413 46.4965 44.8974 46.7752 44.3102C47.0268 43.7798 47.1757 43.1547 46.9646 42.6081C46.215 40.6788 43.8636 42.0155 43.3143 43.3225C42.7244 44.7242 43.869 46.5182 45.4953 45.7227V45.7254Z" fill="#5A1B09"/>
<path id="Vector_88" d="M43.7176 44.1992C43.6743 44.4076 43.742 44.6701 43.861 44.8243C43.9801 44.9785 44.1452 45.0218 44.2805 44.9596C44.4726 44.873 44.6025 44.5672 44.57 44.2398C44.5375 43.9124 44.3373 43.6066 44.1316 43.585C43.926 43.5633 43.7474 43.8556 43.7853 44.183" fill="white"/>
</g>
<g id="Group_51">
<path id="Vector_89" d="M28.989 45.7254C28.4072 45.4413 27.9878 44.8974 27.7091 44.3102C27.4575 43.7798 27.3086 43.1547 27.5197 42.6081C28.2692 40.6788 30.6207 42.0155 31.17 43.3225C31.7599 44.7242 30.6153 46.5182 28.989 45.7227V45.7254Z" fill="#5A1B09"/>
<path id="Vector_90" d="M30.7668 44.1992C30.8101 44.4076 30.7424 44.6701 30.6234 44.8243C30.5043 44.9785 30.3392 45.0218 30.2039 44.9596C30.0118 44.873 29.8819 44.5672 29.9144 44.2398C29.9469 43.9124 30.1471 43.6066 30.3528 43.585C30.5584 43.5633 30.737 43.8556 30.6991 44.183" fill="white"/>
</g>
<path id="Vector_91" d="M36.1598 44.7377C36.8904 45.3249 38.0053 45.3709 38.7819 44.8432" stroke="#5A1B09" stroke-width="0.543899" stroke-linecap="round" stroke-linejoin="round"/>
<path id="Vector_92" d="M44.2589 39.5152L43.9585 39.6316" stroke="#5A1B09" stroke-width="0.543899" stroke-linecap="round" stroke-linejoin="round"/>
<path id="Vector_93" d="M30.7155 39.5152L31.0158 39.6316" stroke="#5A1B09" stroke-width="0.543899" stroke-linecap="round" stroke-linejoin="round"/>
</g>
</g>
</svg>
