<svg width="76" height="76" viewBox="0 0 76 76" fill="none" xmlns="http://www.w3.org/2000/svg">
<g id="Layer_1">
<g id="Group">
<g id="Clip path group">
<mask id="mask0_355_290" style="mask-type:luminance" maskUnits="userSpaceOnUse" x="14" y="10" width="45" height="46">
<g id="clippath">
<path id="Vector" d="M56.4294 43.127C56.4294 46.4443 59.325 44.3197 58.4486 46.5802C55.8219 53.3562 49.3261 55.7137 39.3744 55.7137C28.8762 55.7137 18.5056 54.8289 16.1037 47.1599C15.7819 46.1309 13.416 38.7281 14.8805 37.627C15.8319 36.9141 18.6693 39.6018 18.6693 38.2371C18.6693 33.644 22.8242 28.829 24.0473 31.0285C25.2705 33.228 28.8873 20.6025 31.0119 17.8316C33.8216 14.1649 40.5948 10.3096 41.0857 10.7228C41.5905 11.1472 41.3908 14.237 42.9884 15.5101C44.7302 16.8997 48.311 16.5447 49.8309 18.6887C50.8766 20.1642 49.9086 22.5052 50.932 23.9447C51.6726 24.9848 52.9401 22.9822 53.4976 24.0667C54.2576 25.5395 52.4076 29.1951 53.0095 30.5431C54.6237 34.1544 56.0799 33.2585 57.1644 36.0432C58.2683 38.8723 56.4321 42.6139 56.4321 43.1298L56.4294 43.127Z" fill="white"/>
</g>
</mask>
<g mask="url(#mask0_355_290)">
<g id="Group_2">
<g id="Group_3">
<g id="Group_4">
<g id="Group_5">
<path id="Vector_2" d="M40.384 0.246857L0.213623 34.967" stroke="#BFC330" stroke-width="0.649027" stroke-miterlimit="10"/>
<path id="Vector_3" d="M40.8083 0.737793L0.637939 35.4608" stroke="#5A1B09" stroke-width="0.649027" stroke-miterlimit="10"/>
</g>
<g id="Group_6">
<path id="Vector_4" d="M41.2327 1.22873L1.06238 35.9517" stroke="#BFC330" stroke-width="0.649027" stroke-miterlimit="10"/>
<path id="Vector_5" d="M41.6598 1.71967L1.48669 36.4426" stroke="#5A1B09" stroke-width="0.649027" stroke-miterlimit="10"/>
</g>
<g id="Group_7">
<path id="Vector_6" d="M42.0841 2.21057L1.91101 36.9335" stroke="#BFC330" stroke-width="0.649027" stroke-miterlimit="10"/>
<path id="Vector_7" d="M42.5086 2.70151L2.33545 37.4245" stroke="#5A1B09" stroke-width="0.649027" stroke-miterlimit="10"/>
</g>
<g id="Group_8">
<path id="Vector_8" d="M42.9329 3.19522L2.75977 37.9182" stroke="#BFC330" stroke-width="0.649027" stroke-miterlimit="10"/>
<path id="Vector_9" d="M43.3572 3.68616L3.18689 38.4091" stroke="#5A1B09" stroke-width="0.649027" stroke-miterlimit="10"/>
</g>
<g id="Group_9">
<path id="Vector_10" d="M43.7816 4.17706L3.61121 38.9" stroke="#BFC330" stroke-width="0.649027" stroke-miterlimit="10"/>
<path id="Vector_11" d="M44.206 4.668L4.03564 39.391" stroke="#5A1B09" stroke-width="0.649027" stroke-miterlimit="10"/>
</g>
<g id="Group_10">
<path id="Vector_12" d="M44.6331 5.15894L4.45996 39.8819" stroke="#BFC330" stroke-width="0.649027" stroke-miterlimit="10"/>
<path id="Vector_13" d="M45.0575 5.64987L4.8844 40.3728" stroke="#5A1B09" stroke-width="0.649027" stroke-miterlimit="10"/>
</g>
<g id="Group_11">
<path id="Vector_14" d="M45.4818 6.14359L5.30872 40.8665" stroke="#BFC330" stroke-width="0.649027" stroke-miterlimit="10"/>
<path id="Vector_15" d="M45.9062 6.63452L5.73303 41.3575" stroke="#5A1B09" stroke-width="0.649027" stroke-miterlimit="10"/>
</g>
<g id="Group_12">
<path id="Vector_16" d="M46.3306 7.12543L6.15747 41.8484" stroke="#BFC330" stroke-width="0.649027" stroke-miterlimit="10"/>
<path id="Vector_17" d="M46.7549 7.61636L6.58459 42.3393" stroke="#5A1B09" stroke-width="0.649027" stroke-miterlimit="10"/>
</g>
<g id="Group_13">
<path id="Vector_18" d="M47.1793 8.1073L7.00891 42.8303" stroke="#BFC330" stroke-width="0.649027" stroke-miterlimit="10"/>
<path id="Vector_19" d="M47.6065 8.59824L7.43335 43.3212" stroke="#5A1B09" stroke-width="0.649027" stroke-miterlimit="10"/>
</g>
<g id="Group_14">
<path id="Vector_20" d="M48.0308 9.09192L7.85767 43.8149" stroke="#BFC330" stroke-width="0.649027" stroke-miterlimit="10"/>
<path id="Vector_21" d="M48.4552 9.58286L8.2821 44.3058" stroke="#5A1B09" stroke-width="0.649027" stroke-miterlimit="10"/>
</g>
<g id="Group_15">
<path id="Vector_22" d="M48.8796 10.0738L8.70642 44.7968" stroke="#BFC330" stroke-width="0.649027" stroke-miterlimit="10"/>
<path id="Vector_23" d="M49.3039 10.5647L9.13074 45.2877" stroke="#5A1B09" stroke-width="0.649027" stroke-miterlimit="10"/>
</g>
<g id="Group_16">
<path id="Vector_24" d="M49.7282 11.0557L9.55786 45.7786" stroke="#BFC330" stroke-width="0.649027" stroke-miterlimit="10"/>
<path id="Vector_25" d="M50.1527 11.5466L9.9823 46.2696" stroke="#5A1B09" stroke-width="0.649027" stroke-miterlimit="10"/>
</g>
<g id="Group_17">
<path id="Vector_26" d="M50.577 12.0403L10.4066 46.7632" stroke="#BFC330" stroke-width="0.649027" stroke-miterlimit="10"/>
<path id="Vector_27" d="M51.0042 12.5312L10.8311 47.2542" stroke="#5A1B09" stroke-width="0.649027" stroke-miterlimit="10"/>
</g>
<g id="Group_18">
<path id="Vector_28" d="M51.4285 13.0222L11.2554 47.7451" stroke="#BFC330" stroke-width="0.649027" stroke-miterlimit="10"/>
<path id="Vector_29" d="M51.8529 13.5131L11.6798 48.2361" stroke="#5A1B09" stroke-width="0.649027" stroke-miterlimit="10"/>
</g>
</g>
<g id="Group_19">
<g id="Group_20">
<path id="Vector_30" d="M52.2773 14.004L12.1041 48.727" stroke="#BFC330" stroke-width="0.649027" stroke-miterlimit="10"/>
<path id="Vector_31" d="M52.7016 14.4977L12.5312 49.2179" stroke="#5A1B09" stroke-width="0.649027" stroke-miterlimit="10"/>
</g>
<g id="Group_21">
<path id="Vector_32" d="M53.1259 14.9887L12.9556 49.7116" stroke="#BFC330" stroke-width="0.649027" stroke-miterlimit="10"/>
<path id="Vector_33" d="M53.5504 15.4796L13.38 50.2026" stroke="#5A1B09" stroke-width="0.649027" stroke-miterlimit="10"/>
</g>
<g id="Group_22">
<path id="Vector_34" d="M53.9775 15.9705L13.8043 50.6935" stroke="#BFC330" stroke-width="0.649027" stroke-miterlimit="10"/>
<path id="Vector_35" d="M54.4018 16.4615L14.2286 51.1844" stroke="#5A1B09" stroke-width="0.649027" stroke-miterlimit="10"/>
</g>
<g id="Group_23">
<path id="Vector_36" d="M54.8262 16.9524L14.6531 51.6754" stroke="#BFC330" stroke-width="0.649027" stroke-miterlimit="10"/>
<path id="Vector_37" d="M55.2505 17.4461L15.0774 52.1663" stroke="#5A1B09" stroke-width="0.649027" stroke-miterlimit="10"/>
</g>
<g id="Group_24">
<path id="Vector_38" d="M55.675 17.937L15.5018 52.66" stroke="#BFC330" stroke-width="0.649027" stroke-miterlimit="10"/>
<path id="Vector_39" d="M56.0993 18.4279L15.929 53.1509" stroke="#5A1B09" stroke-width="0.649027" stroke-miterlimit="10"/>
</g>
<g id="Group_25">
<path id="Vector_40" d="M56.5236 18.9189L16.3533 53.6418" stroke="#BFC330" stroke-width="0.649027" stroke-miterlimit="10"/>
<path id="Vector_41" d="M56.9507 19.4098L16.7776 54.1328" stroke="#5A1B09" stroke-width="0.649027" stroke-miterlimit="10"/>
</g>
<g id="Group_26">
<path id="Vector_42" d="M57.3752 19.9008L17.202 54.6237" stroke="#BFC330" stroke-width="0.649027" stroke-miterlimit="10"/>
<path id="Vector_43" d="M57.7995 20.3945L17.6263 55.1147" stroke="#5A1B09" stroke-width="0.649027" stroke-miterlimit="10"/>
</g>
<g id="Group_27">
<path id="Vector_44" d="M58.2239 20.8854L18.0508 55.6083" stroke="#BFC330" stroke-width="0.649027" stroke-miterlimit="10"/>
<path id="Vector_45" d="M58.6482 21.3763L18.4751 56.0993" stroke="#5A1B09" stroke-width="0.649027" stroke-miterlimit="10"/>
</g>
<g id="Group_28">
<path id="Vector_46" d="M59.0726 21.8672L18.9022 56.5902" stroke="#BFC330" stroke-width="0.649027" stroke-miterlimit="10"/>
<path id="Vector_47" d="M59.497 22.3582L19.3267 57.0812" stroke="#5A1B09" stroke-width="0.649027" stroke-miterlimit="10"/>
</g>
<g id="Group_29">
<path id="Vector_48" d="M59.9213 22.8491L19.751 57.5721" stroke="#BFC330" stroke-width="0.649027" stroke-miterlimit="10"/>
<path id="Vector_49" d="M60.3484 23.3428L20.1753 58.063" stroke="#5A1B09" stroke-width="0.649027" stroke-miterlimit="10"/>
</g>
<g id="Group_30">
<path id="Vector_50" d="M60.7729 23.8337L20.5997 58.5567" stroke="#BFC330" stroke-width="0.649027" stroke-miterlimit="10"/>
<path id="Vector_51" d="M61.1972 24.3247L21.024 59.0476" stroke="#5A1B09" stroke-width="0.649027" stroke-miterlimit="10"/>
</g>
<g id="Group_31">
<path id="Vector_52" d="M61.6216 24.8156L21.4485 59.5386" stroke="#BFC330" stroke-width="0.649027" stroke-miterlimit="10"/>
<path id="Vector_53" d="M62.046 25.3065L21.8756 60.0295" stroke="#5A1B09" stroke-width="0.649027" stroke-miterlimit="10"/>
</g>
<g id="Group_32">
<path id="Vector_54" d="M62.4703 25.7975L22.2999 60.5204" stroke="#BFC330" stroke-width="0.649027" stroke-miterlimit="10"/>
<path id="Vector_55" d="M62.8946 26.2912L22.7242 61.0114" stroke="#5A1B09" stroke-width="0.649027" stroke-miterlimit="10"/>
</g>
<g id="Group_33">
<path id="Vector_56" d="M63.3218 26.7821L23.1487 61.5051" stroke="#BFC330" stroke-width="0.649027" stroke-miterlimit="10"/>
<path id="Vector_57" d="M63.7461 27.273L23.573 61.996" stroke="#5A1B09" stroke-width="0.649027" stroke-miterlimit="10"/>
</g>
</g>
<g id="Group_34">
<g id="Group_35">
<path id="Vector_58" d="M64.1706 27.7639L23.9974 62.4869" stroke="#BFC330" stroke-width="0.649027" stroke-miterlimit="10"/>
<path id="Vector_59" d="M64.5949 28.2549L24.4218 62.9778" stroke="#5A1B09" stroke-width="0.649027" stroke-miterlimit="10"/>
</g>
<g id="Group_36">
<path id="Vector_60" d="M65.0192 28.7458L24.8461 63.4688" stroke="#BFC330" stroke-width="0.649027" stroke-miterlimit="10"/>
<path id="Vector_61" d="M65.4437 29.2395L25.2733 63.9625" stroke="#5A1B09" stroke-width="0.649027" stroke-miterlimit="10"/>
</g>
<g id="Group_37">
<path id="Vector_62" d="M65.868 29.7304L25.6976 64.4534" stroke="#BFC330" stroke-width="0.649027" stroke-miterlimit="10"/>
<path id="Vector_63" d="M66.2951 30.2214L26.1219 64.9443" stroke="#5A1B09" stroke-width="0.649027" stroke-miterlimit="10"/>
</g>
<g id="Group_38">
<path id="Vector_64" d="M66.7194 30.7123L26.5463 65.4353" stroke="#BFC330" stroke-width="0.649027" stroke-miterlimit="10"/>
<path id="Vector_65" d="M67.1438 31.2032L26.9707 65.9262" stroke="#5A1B09" stroke-width="0.649027" stroke-miterlimit="10"/>
</g>
<g id="Group_39">
<path id="Vector_66" d="M67.5682 31.6942L27.395 66.4171" stroke="#BFC330" stroke-width="0.649027" stroke-miterlimit="10"/>
<path id="Vector_67" d="M67.9926 32.1879L27.8195 66.9108" stroke="#5A1B09" stroke-width="0.649027" stroke-miterlimit="10"/>
</g>
<g id="Group_40">
<path id="Vector_68" d="M68.4169 32.6788L28.2466 67.4018" stroke="#BFC330" stroke-width="0.649027" stroke-miterlimit="10"/>
<path id="Vector_69" d="M68.8413 33.1697L28.6709 67.8927" stroke="#5A1B09" stroke-width="0.649027" stroke-miterlimit="10"/>
</g>
<g id="Group_41">
<path id="Vector_70" d="M69.2657 33.6607L29.0953 68.3836" stroke="#BFC330" stroke-width="0.649027" stroke-miterlimit="10"/>
<path id="Vector_71" d="M69.6928 34.1516L29.5197 68.8746" stroke="#5A1B09" stroke-width="0.649027" stroke-miterlimit="10"/>
</g>
<g id="Group_42">
<path id="Vector_72" d="M70.1171 34.6425L29.944 69.3655" stroke="#BFC330" stroke-width="0.649027" stroke-miterlimit="10"/>
<path id="Vector_73" d="M70.5415 35.1362L30.3684 69.8592" stroke="#5A1B09" stroke-width="0.649027" stroke-miterlimit="10"/>
</g>
<g id="Group_43">
<path id="Vector_74" d="M70.9659 35.6272L30.7927 70.3501" stroke="#BFC330" stroke-width="0.649027" stroke-miterlimit="10"/>
<path id="Vector_75" d="M71.3902 36.1181L31.2198 70.8411" stroke="#5A1B09" stroke-width="0.649027" stroke-miterlimit="10"/>
</g>
<g id="Group_44">
<path id="Vector_76" d="M71.8146 36.609L31.6443 71.332" stroke="#BFC330" stroke-width="0.649027" stroke-miterlimit="10"/>
<path id="Vector_77" d="M72.239 37.1L32.0686 71.8229" stroke="#5A1B09" stroke-width="0.649027" stroke-miterlimit="10"/>
</g>
<g id="Group_45">
<path id="Vector_78" d="M72.6661 37.5909L32.4929 72.3138" stroke="#BFC330" stroke-width="0.649027" stroke-miterlimit="10"/>
<path id="Vector_79" d="M73.0905 38.0846L32.9174 72.8076" stroke="#5A1B09" stroke-width="0.649027" stroke-miterlimit="10"/>
</g>
<g id="Group_46">
<path id="Vector_80" d="M73.5148 38.5755L33.3417 73.2985" stroke="#BFC330" stroke-width="0.649027" stroke-miterlimit="10"/>
<path id="Vector_81" d="M73.9392 39.0665L33.7661 73.7894" stroke="#5A1B09" stroke-width="0.649027" stroke-miterlimit="10"/>
</g>
<g id="Group_47">
<path id="Vector_82" d="M74.3636 39.5574L34.1904 74.2803" stroke="#BFC330" stroke-width="0.649027" stroke-miterlimit="10"/>
<path id="Vector_83" d="M74.7879 40.0483L34.6176 74.7713" stroke="#5A1B09" stroke-width="0.649027" stroke-miterlimit="10"/>
</g>
<g id="Group_48">
<path id="Vector_84" d="M75.2122 40.542L35.0419 75.2622" stroke="#BFC330" stroke-width="0.649027" stroke-miterlimit="10"/>
<path id="Vector_85" d="M75.6394 41.033L35.4663 75.7559" stroke="#5A1B09" stroke-width="0.649027" stroke-miterlimit="10"/>
</g>
</g>
</g>
</g>
</g>
</g>
<path id="Vector_86" d="M52.2162 42.3643C52.2162 51.9194 47.085 54.9343 37.5326 54.9343C27.9803 54.9343 22.6244 51.9167 22.6244 42.3643C22.6244 35.5772 31.1893 31.4612 35.3054 28.793C38.1594 26.9402 38.2815 24.5549 37.9653 23.0127C37.871 22.5606 38.4063 22.2444 38.7613 22.544C41.7041 25.0208 53.2147 34.6897 49.767 41.6986C49.0376 43.1825 52.2134 40.8665 52.2134 42.3671L52.2162 42.3643Z" fill="#D3D376"/>
</g>
<g id="Group_49">
<g id="Group_50">
<path id="Vector_87" d="M46.6328 49.0875C47.2292 48.7963 47.6591 48.2388 47.9448 47.6369C48.2027 47.0933 48.3552 46.4526 48.1389 45.8923C47.3706 43.9147 44.9603 45.2849 44.3973 46.6246C43.7926 48.0613 44.9659 49.9002 46.6328 49.0848V49.0875Z" fill="#5A1B09"/>
<path id="Vector_88" d="M44.8106 47.5232C44.7662 47.7368 44.8356 48.0058 44.9576 48.1639C45.0796 48.322 45.2488 48.3664 45.3875 48.3026C45.5844 48.2139 45.7176 47.9004 45.6843 47.5648C45.651 47.2292 45.4458 46.9158 45.235 46.8936C45.0242 46.8714 44.8411 47.171 44.8799 47.5066" fill="white"/>
</g>
<g id="Group_51">
<path id="Vector_89" d="M29.7138 49.0875C29.1175 48.7963 28.6876 48.2388 28.4019 47.6369C28.144 47.0933 27.9914 46.4526 28.2078 45.8923C28.976 43.9147 31.3863 45.2849 31.9494 46.6246C32.554 48.0613 31.3808 49.9002 29.7138 49.0848V49.0875Z" fill="#5A1B09"/>
<path id="Vector_90" d="M31.536 47.5232C31.5804 47.7368 31.5111 48.0058 31.389 48.1639C31.267 48.322 31.0978 48.3664 30.9591 48.3026C30.7622 48.2139 30.629 47.9004 30.6623 47.5648C30.6956 47.2292 30.9009 46.9158 31.1117 46.8936C31.3224 46.8714 31.5055 47.171 31.4667 47.5066" fill="white"/>
</g>
<path id="Vector_91" d="M37.0638 48.0752C37.8127 48.677 38.9555 48.7242 39.7515 48.1833" stroke="#5A1B09" stroke-width="0.557498" stroke-linecap="round" stroke-linejoin="round"/>
<path id="Vector_92" d="M45.3654 42.7221L45.0575 42.8413" stroke="#5A1B09" stroke-width="0.557498" stroke-linecap="round" stroke-linejoin="round"/>
<path id="Vector_93" d="M31.4834 42.7221L31.7913 42.8413" stroke="#5A1B09" stroke-width="0.557498" stroke-linecap="round" stroke-linejoin="round"/>
</g>
</g>
</svg>
