<svg width="76" height="76" viewBox="0 0 76 76" fill="none" xmlns="http://www.w3.org/2000/svg">
<g id="Layer_1">
<g id="Group">
<g id="Clip path group">
<mask id="mask0_355_586" style="mask-type:luminance" maskUnits="userSpaceOnUse" x="14" y="8" width="45" height="46">
<g id="clippath">
<path id="Vector" d="M56.4294 40.9081C56.4294 44.2254 59.325 42.1008 58.4486 44.3613C55.8219 51.1373 49.3261 53.4948 39.3744 53.4948C28.8762 53.4948 18.5056 52.6101 16.1037 44.941C15.7819 43.912 13.416 36.5092 14.8805 35.4081C15.8319 34.6952 18.6693 37.3829 18.6693 36.0182C18.6693 31.4251 22.8242 26.6101 24.0473 28.8096C25.2705 31.0091 28.8873 18.3836 31.0119 15.6127C33.8216 11.946 40.5948 8.09065 41.0857 8.50392C41.5905 8.92829 41.3908 12.0181 42.9884 13.2912C44.7302 14.6808 48.311 14.3258 49.8309 16.4698C50.8766 17.9453 49.9086 20.2863 50.932 21.7258C51.6726 22.7659 52.9401 20.7633 53.4976 21.8478C54.2576 23.3206 52.4076 26.9762 53.0095 28.3242C54.6237 31.9355 56.0799 31.0396 57.1644 33.8243C58.2683 36.6534 56.4321 40.395 56.4321 40.9109L56.4294 40.9081Z" fill="white"/>
</g>
</mask>
<g mask="url(#mask0_355_586)">
<g id="Group_2">
<g id="Group_3">
<g id="Group_4">
<g id="Group_5">
<path id="Vector_2" d="M40.384 0.246857L0.213623 34.9671" stroke="#FCE4BC" stroke-width="0.649027" stroke-miterlimit="10"/>
<path id="Vector_3" d="M40.8083 0.737793L0.637939 35.4608" stroke="#BFC330" stroke-width="0.649027" stroke-miterlimit="10"/>
</g>
<g id="Group_6">
<path id="Vector_4" d="M41.2326 1.22873L1.06226 35.9517" stroke="#FCE4BC" stroke-width="0.649027" stroke-miterlimit="10"/>
<path id="Vector_5" d="M41.6598 1.71964L1.48669 36.4426" stroke="#BFC330" stroke-width="0.649027" stroke-miterlimit="10"/>
</g>
<g id="Group_7">
<path id="Vector_6" d="M42.0841 2.21057L1.91101 36.9335" stroke="#FCE4BC" stroke-width="0.649027" stroke-miterlimit="10"/>
<path id="Vector_7" d="M42.5085 2.70151L2.33533 37.4245" stroke="#BFC330" stroke-width="0.649027" stroke-miterlimit="10"/>
</g>
<g id="Group_8">
<path id="Vector_8" d="M42.9329 3.19522L2.75977 37.9182" stroke="#FCE4BC" stroke-width="0.649027" stroke-miterlimit="10"/>
<path id="Vector_9" d="M43.3572 3.68613L3.18689 38.4091" stroke="#BFC330" stroke-width="0.649027" stroke-miterlimit="10"/>
</g>
<g id="Group_9">
<path id="Vector_10" d="M43.7817 4.17706L3.61133 38.9" stroke="#FCE4BC" stroke-width="0.649027" stroke-miterlimit="10"/>
<path id="Vector_11" d="M44.206 4.668L4.03564 39.391" stroke="#BFC330" stroke-width="0.649027" stroke-miterlimit="10"/>
</g>
<g id="Group_10">
<path id="Vector_12" d="M44.6331 5.15894L4.45996 39.8819" stroke="#FCE4BC" stroke-width="0.649027" stroke-miterlimit="10"/>
<path id="Vector_13" d="M45.0575 5.64987L4.8844 40.3728" stroke="#BFC330" stroke-width="0.649027" stroke-miterlimit="10"/>
</g>
<g id="Group_11">
<path id="Vector_14" d="M45.4818 6.14359L5.30872 40.8665" stroke="#FCE4BC" stroke-width="0.649027" stroke-miterlimit="10"/>
<path id="Vector_15" d="M45.9062 6.63449L5.73303 41.3575" stroke="#BFC330" stroke-width="0.649027" stroke-miterlimit="10"/>
</g>
<g id="Group_12">
<path id="Vector_16" d="M46.3305 7.12543L6.15735 41.8484" stroke="#FCE4BC" stroke-width="0.649027" stroke-miterlimit="10"/>
<path id="Vector_17" d="M46.7549 7.61639L6.58459 42.3394" stroke="#BFC330" stroke-width="0.649027" stroke-miterlimit="10"/>
</g>
<g id="Group_13">
<path id="Vector_18" d="M47.1794 8.1073L7.00903 42.8303" stroke="#FCE4BC" stroke-width="0.649027" stroke-miterlimit="10"/>
<path id="Vector_19" d="M47.6065 8.59821L7.43335 43.3212" stroke="#BFC330" stroke-width="0.649027" stroke-miterlimit="10"/>
</g>
<g id="Group_14">
<path id="Vector_20" d="M48.0308 9.09195L7.85767 43.8149" stroke="#FCE4BC" stroke-width="0.649027" stroke-miterlimit="10"/>
<path id="Vector_21" d="M48.4551 9.58286L8.28198 44.3058" stroke="#BFC330" stroke-width="0.649027" stroke-miterlimit="10"/>
</g>
<g id="Group_15">
<path id="Vector_22" d="M48.8796 10.0738L8.70642 44.7968" stroke="#FCE4BC" stroke-width="0.649027" stroke-miterlimit="10"/>
<path id="Vector_23" d="M49.3039 10.5647L9.13074 45.2877" stroke="#BFC330" stroke-width="0.649027" stroke-miterlimit="10"/>
</g>
<g id="Group_16">
<path id="Vector_24" d="M49.7282 11.0556L9.55786 45.7786" stroke="#FCE4BC" stroke-width="0.649027" stroke-miterlimit="10"/>
<path id="Vector_25" d="M50.1527 11.5466L9.9823 46.2695" stroke="#BFC330" stroke-width="0.649027" stroke-miterlimit="10"/>
</g>
<g id="Group_17">
<path id="Vector_26" d="M50.577 12.0403L10.4066 46.7633" stroke="#FCE4BC" stroke-width="0.649027" stroke-miterlimit="10"/>
<path id="Vector_27" d="M51.0042 12.5312L10.8311 47.2541" stroke="#BFC330" stroke-width="0.649027" stroke-miterlimit="10"/>
</g>
<g id="Group_18">
<path id="Vector_28" d="M51.4285 13.0222L11.2554 47.7451" stroke="#FCE4BC" stroke-width="0.649027" stroke-miterlimit="10"/>
<path id="Vector_29" d="M51.8528 13.5131L11.6797 48.2361" stroke="#BFC330" stroke-width="0.649027" stroke-miterlimit="10"/>
</g>
</g>
<g id="Group_19">
<g id="Group_20">
<path id="Vector_30" d="M52.2773 14.004L12.1041 48.727" stroke="#FCE4BC" stroke-width="0.649027" stroke-miterlimit="10"/>
<path id="Vector_31" d="M52.7016 14.4977L12.5312 49.2179" stroke="#BFC330" stroke-width="0.649027" stroke-miterlimit="10"/>
</g>
<g id="Group_21">
<path id="Vector_32" d="M53.1259 14.9886L12.9556 49.7116" stroke="#FCE4BC" stroke-width="0.649027" stroke-miterlimit="10"/>
<path id="Vector_33" d="M53.5502 15.4796L13.3799 50.2025" stroke="#BFC330" stroke-width="0.649027" stroke-miterlimit="10"/>
</g>
<g id="Group_22">
<path id="Vector_34" d="M53.9775 15.9705L13.8043 50.6935" stroke="#FCE4BC" stroke-width="0.649027" stroke-miterlimit="10"/>
<path id="Vector_35" d="M54.4018 16.4615L14.2286 51.1844" stroke="#BFC330" stroke-width="0.649027" stroke-miterlimit="10"/>
</g>
<g id="Group_23">
<path id="Vector_36" d="M54.8262 16.9524L14.6531 51.6753" stroke="#FCE4BC" stroke-width="0.649027" stroke-miterlimit="10"/>
<path id="Vector_37" d="M55.2505 17.4461L15.0774 52.1663" stroke="#BFC330" stroke-width="0.649027" stroke-miterlimit="10"/>
</g>
<g id="Group_24">
<path id="Vector_38" d="M55.6748 17.937L15.5017 52.66" stroke="#FCE4BC" stroke-width="0.649027" stroke-miterlimit="10"/>
<path id="Vector_39" d="M56.0992 18.4279L15.9288 53.1509" stroke="#BFC330" stroke-width="0.649027" stroke-miterlimit="10"/>
</g>
<g id="Group_25">
<path id="Vector_40" d="M56.5235 18.9189L16.3531 53.6418" stroke="#FCE4BC" stroke-width="0.649027" stroke-miterlimit="10"/>
<path id="Vector_41" d="M56.9507 19.4098L16.7776 54.1328" stroke="#BFC330" stroke-width="0.649027" stroke-miterlimit="10"/>
</g>
<g id="Group_26">
<path id="Vector_42" d="M57.3752 19.9008L17.202 54.6237" stroke="#FCE4BC" stroke-width="0.649027" stroke-miterlimit="10"/>
<path id="Vector_43" d="M57.7995 20.3944L17.6263 55.1146" stroke="#BFC330" stroke-width="0.649027" stroke-miterlimit="10"/>
</g>
<g id="Group_27">
<path id="Vector_44" d="M58.2239 20.8854L18.0508 55.6083" stroke="#FCE4BC" stroke-width="0.649027" stroke-miterlimit="10"/>
<path id="Vector_45" d="M58.6482 21.3763L18.4751 56.0993" stroke="#BFC330" stroke-width="0.649027" stroke-miterlimit="10"/>
</g>
<g id="Group_28">
<path id="Vector_46" d="M59.0726 21.8672L18.9022 56.5902" stroke="#FCE4BC" stroke-width="0.649027" stroke-miterlimit="10"/>
<path id="Vector_47" d="M59.4969 22.3582L19.3265 57.0811" stroke="#BFC330" stroke-width="0.649027" stroke-miterlimit="10"/>
</g>
<g id="Group_29">
<path id="Vector_48" d="M59.9212 22.8491L19.7509 57.5721" stroke="#FCE4BC" stroke-width="0.649027" stroke-miterlimit="10"/>
<path id="Vector_49" d="M60.3484 23.3428L20.1753 58.063" stroke="#BFC330" stroke-width="0.649027" stroke-miterlimit="10"/>
</g>
<g id="Group_30">
<path id="Vector_50" d="M60.7729 23.8337L20.5997 58.5567" stroke="#FCE4BC" stroke-width="0.649027" stroke-miterlimit="10"/>
<path id="Vector_51" d="M61.1972 24.3246L21.024 59.0476" stroke="#BFC330" stroke-width="0.649027" stroke-miterlimit="10"/>
</g>
<g id="Group_31">
<path id="Vector_52" d="M61.6215 24.8156L21.4484 59.5385" stroke="#FCE4BC" stroke-width="0.649027" stroke-miterlimit="10"/>
<path id="Vector_53" d="M62.0458 25.3065L21.8755 60.0295" stroke="#BFC330" stroke-width="0.649027" stroke-miterlimit="10"/>
</g>
<g id="Group_32">
<path id="Vector_54" d="M62.4703 25.7975L22.2999 60.5204" stroke="#FCE4BC" stroke-width="0.649027" stroke-miterlimit="10"/>
<path id="Vector_55" d="M62.8946 26.2911L22.7242 61.0113" stroke="#BFC330" stroke-width="0.649027" stroke-miterlimit="10"/>
</g>
<g id="Group_33">
<path id="Vector_56" d="M63.3217 26.7821L23.1486 61.5051" stroke="#FCE4BC" stroke-width="0.649027" stroke-miterlimit="10"/>
<path id="Vector_57" d="M63.746 27.273L23.5729 61.996" stroke="#BFC330" stroke-width="0.649027" stroke-miterlimit="10"/>
</g>
</g>
<g id="Group_34">
<g id="Group_35">
<path id="Vector_58" d="M64.1704 27.7639L23.9973 62.4869" stroke="#FCE4BC" stroke-width="0.649027" stroke-miterlimit="10"/>
<path id="Vector_59" d="M64.5949 28.2549L24.4218 62.9778" stroke="#BFC330" stroke-width="0.649027" stroke-miterlimit="10"/>
</g>
<g id="Group_36">
<path id="Vector_60" d="M65.0192 28.7458L24.8461 63.4688" stroke="#FCE4BC" stroke-width="0.649027" stroke-miterlimit="10"/>
<path id="Vector_61" d="M65.4435 29.2395L25.2732 63.9625" stroke="#BFC330" stroke-width="0.649027" stroke-miterlimit="10"/>
</g>
<g id="Group_37">
<path id="Vector_62" d="M65.8679 29.7304L25.6975 64.4534" stroke="#FCE4BC" stroke-width="0.649027" stroke-miterlimit="10"/>
<path id="Vector_63" d="M66.2951 30.2214L26.1219 64.9443" stroke="#BFC330" stroke-width="0.649027" stroke-miterlimit="10"/>
</g>
<g id="Group_38">
<path id="Vector_64" d="M66.7194 30.7123L26.5463 65.4353" stroke="#FCE4BC" stroke-width="0.649027" stroke-miterlimit="10"/>
<path id="Vector_65" d="M67.1437 31.2032L26.9706 65.9262" stroke="#BFC330" stroke-width="0.649027" stroke-miterlimit="10"/>
</g>
<g id="Group_39">
<path id="Vector_66" d="M67.5682 31.6942L27.395 66.4172" stroke="#FCE4BC" stroke-width="0.649027" stroke-miterlimit="10"/>
<path id="Vector_67" d="M67.9926 32.1879L27.8195 66.9109" stroke="#BFC330" stroke-width="0.649027" stroke-miterlimit="10"/>
</g>
<g id="Group_40">
<path id="Vector_68" d="M68.4169 32.6788L28.2466 67.4018" stroke="#FCE4BC" stroke-width="0.649027" stroke-miterlimit="10"/>
<path id="Vector_69" d="M68.8413 33.1697L28.6709 67.8927" stroke="#BFC330" stroke-width="0.649027" stroke-miterlimit="10"/>
</g>
<g id="Group_41">
<path id="Vector_70" d="M69.2656 33.6607L29.0952 68.3836" stroke="#FCE4BC" stroke-width="0.649027" stroke-miterlimit="10"/>
<path id="Vector_71" d="M69.6927 34.1516L29.5195 68.8745" stroke="#BFC330" stroke-width="0.649027" stroke-miterlimit="10"/>
</g>
<g id="Group_42">
<path id="Vector_72" d="M70.1171 34.6425L29.944 69.3655" stroke="#FCE4BC" stroke-width="0.649027" stroke-miterlimit="10"/>
<path id="Vector_73" d="M70.5414 35.1363L30.3683 69.8592" stroke="#BFC330" stroke-width="0.649027" stroke-miterlimit="10"/>
</g>
<g id="Group_43">
<path id="Vector_74" d="M70.9657 35.6272L30.7926 70.3501" stroke="#FCE4BC" stroke-width="0.649027" stroke-miterlimit="10"/>
<path id="Vector_75" d="M71.3902 36.1181L31.2198 70.8411" stroke="#BFC330" stroke-width="0.649027" stroke-miterlimit="10"/>
</g>
<g id="Group_44">
<path id="Vector_76" d="M71.8145 36.609L31.6442 71.332" stroke="#FCE4BC" stroke-width="0.649027" stroke-miterlimit="10"/>
<path id="Vector_77" d="M72.239 37.0999L32.0686 71.8229" stroke="#BFC330" stroke-width="0.649027" stroke-miterlimit="10"/>
</g>
<g id="Group_45">
<path id="Vector_78" d="M72.6661 37.5909L32.4929 72.3139" stroke="#FCE4BC" stroke-width="0.649027" stroke-miterlimit="10"/>
<path id="Vector_79" d="M73.0904 38.0846L32.9172 72.8076" stroke="#BFC330" stroke-width="0.649027" stroke-miterlimit="10"/>
</g>
<g id="Group_46">
<path id="Vector_80" d="M73.5148 38.5755L33.3417 73.2985" stroke="#FCE4BC" stroke-width="0.649027" stroke-miterlimit="10"/>
<path id="Vector_81" d="M73.9392 39.0665L33.7661 73.7894" stroke="#BFC330" stroke-width="0.649027" stroke-miterlimit="10"/>
</g>
<g id="Group_47">
<path id="Vector_82" d="M74.3636 39.5574L34.1904 74.2804" stroke="#FCE4BC" stroke-width="0.649027" stroke-miterlimit="10"/>
<path id="Vector_83" d="M74.7879 40.0483L34.6176 74.7713" stroke="#BFC330" stroke-width="0.649027" stroke-miterlimit="10"/>
</g>
<g id="Group_48">
<path id="Vector_84" d="M75.2122 40.542L35.0419 75.2622" stroke="#FCE4BC" stroke-width="0.649027" stroke-miterlimit="10"/>
<path id="Vector_85" d="M75.6394 41.033L35.4663 75.7559" stroke="#BFC330" stroke-width="0.649027" stroke-miterlimit="10"/>
</g>
</g>
</g>
</g>
</g>
</g>
<path id="Vector_86" d="M52.2162 40.1454C52.2162 49.7005 47.085 52.7155 37.5326 52.7155C27.9803 52.7155 22.6244 49.6978 22.6244 40.1454C22.6244 33.3583 31.1893 29.2423 35.3054 26.5741C38.1594 24.7213 38.2815 22.336 37.9653 20.7938C37.871 20.3417 38.4063 20.0255 38.7613 20.3251C41.7041 22.8019 53.2147 32.4708 49.767 39.4797C49.0376 40.9636 52.2134 38.6476 52.2134 40.1482L52.2162 40.1454Z" fill="#F7C479"/>
</g>
<g id="Group_49">
<g id="Group_50">
<path id="Vector_87" d="M46.6328 46.8686C47.2292 46.5774 47.6591 46.0199 47.9448 45.418C48.2027 44.8744 48.3552 44.2337 48.1389 43.6734C47.3706 41.6958 44.9603 43.066 44.3973 44.4057C43.7926 45.8424 44.9659 47.6813 46.6328 46.8659V46.8686Z" fill="#5A1B09"/>
<path id="Vector_88" d="M44.8106 45.3043C44.7662 45.5179 44.8356 45.7869 44.9576 45.945C45.0796 46.1031 45.2488 46.1475 45.3875 46.0837C45.5844 45.995 45.7176 45.6815 45.6843 45.3459C45.651 45.0103 45.4458 44.6969 45.235 44.6747C45.0242 44.6525 44.8411 44.9521 44.8799 45.2877" fill="white"/>
</g>
<g id="Group_51">
<path id="Vector_89" d="M29.7137 46.8686C29.1174 46.5774 28.6875 46.0199 28.4018 45.418C28.1438 44.8744 27.9913 44.2337 28.2076 43.6734C28.9759 41.6958 31.3862 43.066 31.9492 44.4057C32.5539 45.8424 31.3807 47.6813 29.7137 46.8659V46.8686Z" fill="#5A1B09"/>
<path id="Vector_90" d="M31.536 45.3043C31.5804 45.5179 31.5111 45.7869 31.389 45.945C31.267 46.1031 31.0978 46.1475 30.9591 46.0837C30.7622 45.995 30.629 45.6815 30.6623 45.3459C30.6956 45.0103 30.9009 44.6969 31.1117 44.6747C31.3224 44.6525 31.5055 44.9521 31.4667 45.2877" fill="white"/>
</g>
<path id="Vector_91" d="M37.064 45.8563C37.8128 46.4582 38.9556 46.5053 39.7516 45.9645" stroke="#5A1B09" stroke-width="0.557498" stroke-linecap="round" stroke-linejoin="round"/>
<path id="Vector_92" d="M45.3659 40.5032L45.0574 40.6227" stroke="#5A1B09" stroke-width="0.557498" stroke-linecap="round" stroke-linejoin="round"/>
<path id="Vector_93" d="M31.4834 40.5032L31.7919 40.6227" stroke="#5A1B09" stroke-width="0.557498" stroke-linecap="round" stroke-linejoin="round"/>
</g>
</g>
</svg>
