<svg width="80" height="80" viewBox="0 0 80 80" fill="none" xmlns="http://www.w3.org/2000/svg">
<g id="Layer_1">
<g id="Group">
<g id="Clip path group">
<mask id="mask0_355_734" style="mask-type:luminance" maskUnits="userSpaceOnUse" x="16" y="9" width="47" height="49">
<g id="clippath">
<path id="Vector" d="M60.2827 43.9426C60.2827 47.4349 63.3312 45.1982 62.4085 47.578C59.6433 54.7114 52.8047 57.1934 42.3279 57.1934C31.2758 57.1934 20.358 56.2619 17.8293 48.1882C17.4906 47.1049 14.9999 39.3115 16.5416 38.1523C17.5432 37.4019 20.5303 40.2313 20.5303 38.7947C20.5303 33.9592 24.9044 28.8902 26.1921 31.2057C27.4798 33.5212 31.2875 20.2295 33.5242 17.3125C36.4821 13.4523 43.6126 9.39355 44.1295 9.82862C44.6609 10.2754 44.4507 13.5282 46.1326 14.8685C47.9663 16.3314 51.736 15.9576 53.3361 18.2148C54.437 19.7682 53.4179 22.2326 54.4954 23.7481C55.275 24.8431 56.6094 22.7349 57.1963 23.8766C57.9964 25.4271 56.0488 29.2756 56.6824 30.6947C58.3818 34.4965 59.9148 33.5534 61.0565 36.485C62.2187 39.4634 60.2857 43.4024 60.2857 43.9455L60.2827 43.9426Z" fill="white"/>
</g>
</mask>
<g mask="url(#mask0_355_734)">
<g id="Group_2">
<g id="Group_3">
<g id="Group_4">
<g id="Group_5">
<path id="Vector_2" d="M42.5147 0.259888L0.224854 36.812" stroke="#510943" stroke-width="0.683272" stroke-miterlimit="10"/>
<path id="Vector_3" d="M42.9615 0.776703L0.671631 37.3318" stroke="#BDCCD4" stroke-width="0.683272" stroke-miterlimit="10"/>
</g>
<g id="Group_6">
<path id="Vector_4" d="M43.4083 1.29355L1.11841 37.8486" stroke="#510943" stroke-width="0.683272" stroke-miterlimit="10"/>
<path id="Vector_5" d="M43.858 1.81036L1.56519 38.3654" stroke="#BDCCD4" stroke-width="0.683272" stroke-miterlimit="10"/>
</g>
<g id="Group_7">
<path id="Vector_6" d="M44.3048 2.32721L2.01196 38.8823" stroke="#510943" stroke-width="0.683272" stroke-miterlimit="10"/>
<path id="Vector_7" d="M44.7514 2.84406L2.45862 39.3991" stroke="#BDCCD4" stroke-width="0.683272" stroke-miterlimit="10"/>
</g>
<g id="Group_8">
<path id="Vector_8" d="M45.1982 3.3638L2.9054 39.9189" stroke="#510943" stroke-width="0.683272" stroke-miterlimit="10"/>
<path id="Vector_9" d="M45.645 3.88065L3.3551 40.4357" stroke="#BDCCD4" stroke-width="0.683272" stroke-miterlimit="10"/>
</g>
<g id="Group_9">
<path id="Vector_10" d="M46.0916 4.39746L3.80176 40.9525" stroke="#510943" stroke-width="0.683272" stroke-miterlimit="10"/>
<path id="Vector_11" d="M46.5385 4.91431L4.24866 41.4694" stroke="#BDCCD4" stroke-width="0.683272" stroke-miterlimit="10"/>
</g>
<g id="Group_10">
<path id="Vector_12" d="M46.9882 5.43115L4.69543 41.9862" stroke="#510943" stroke-width="0.683272" stroke-miterlimit="10"/>
<path id="Vector_13" d="M47.4349 5.94797L5.14209 42.503" stroke="#BDCCD4" stroke-width="0.683272" stroke-miterlimit="10"/>
</g>
<g id="Group_11">
<path id="Vector_14" d="M47.8817 6.46774L5.58887 43.0228" stroke="#510943" stroke-width="0.683272" stroke-miterlimit="10"/>
<path id="Vector_15" d="M48.3284 6.98456L6.03564 43.5396" stroke="#BDCCD4" stroke-width="0.683272" stroke-miterlimit="10"/>
</g>
<g id="Group_12">
<path id="Vector_16" d="M48.7752 7.5014L6.48242 44.0565" stroke="#510943" stroke-width="0.683272" stroke-miterlimit="10"/>
<path id="Vector_17" d="M49.2219 8.01822L6.93201 44.5733" stroke="#BDCCD4" stroke-width="0.683272" stroke-miterlimit="10"/>
</g>
<g id="Group_13">
<path id="Vector_18" d="M49.6687 8.53506L7.37878 45.0901" stroke="#510943" stroke-width="0.683272" stroke-miterlimit="10"/>
<path id="Vector_19" d="M50.1184 9.05188L7.82556 45.6069" stroke="#BDCCD4" stroke-width="0.683272" stroke-miterlimit="10"/>
</g>
<g id="Group_14">
<path id="Vector_20" d="M50.5651 9.57166L8.27234 46.1267" stroke="#510943" stroke-width="0.683272" stroke-miterlimit="10"/>
<path id="Vector_21" d="M51.0119 10.0885L8.71912 46.6436" stroke="#BDCCD4" stroke-width="0.683272" stroke-miterlimit="10"/>
</g>
<g id="Group_15">
<path id="Vector_22" d="M51.4586 10.6053L9.16577 47.1604" stroke="#510943" stroke-width="0.683272" stroke-miterlimit="10"/>
<path id="Vector_23" d="M51.9053 11.1222L9.61255 47.6772" stroke="#BDCCD4" stroke-width="0.683272" stroke-miterlimit="10"/>
</g>
<g id="Group_16">
<path id="Vector_24" d="M52.3521 11.639L10.0623 48.194" stroke="#510943" stroke-width="0.683272" stroke-miterlimit="10"/>
<path id="Vector_25" d="M52.7989 12.1558L10.509 48.7109" stroke="#BDCCD4" stroke-width="0.683272" stroke-miterlimit="10"/>
</g>
<g id="Group_17">
<path id="Vector_26" d="M53.2457 12.6756L10.9558 49.2307" stroke="#510943" stroke-width="0.683272" stroke-miterlimit="10"/>
<path id="Vector_27" d="M53.6953 13.1924L11.4025 49.7475" stroke="#BDCCD4" stroke-width="0.683272" stroke-miterlimit="10"/>
</g>
<g id="Group_18">
<path id="Vector_28" d="M54.142 13.7093L11.8492 50.2643" stroke="#510943" stroke-width="0.683272" stroke-miterlimit="10"/>
<path id="Vector_29" d="M54.5888 14.2261L12.296 50.7811" stroke="#BDCCD4" stroke-width="0.683272" stroke-miterlimit="10"/>
</g>
</g>
<g id="Group_19">
<g id="Group_20">
<path id="Vector_30" d="M55.0356 14.7429L12.7428 51.298" stroke="#510943" stroke-width="0.683272" stroke-miterlimit="10"/>
<path id="Vector_31" d="M55.4824 15.2627L13.1925 51.8148" stroke="#BDCCD4" stroke-width="0.683272" stroke-miterlimit="10"/>
</g>
<g id="Group_21">
<path id="Vector_32" d="M55.929 15.7795L13.6392 52.3346" stroke="#510943" stroke-width="0.683272" stroke-miterlimit="10"/>
<path id="Vector_33" d="M56.3758 16.2963L14.0859 52.8514" stroke="#BDCCD4" stroke-width="0.683272" stroke-miterlimit="10"/>
</g>
<g id="Group_22">
<path id="Vector_34" d="M56.8255 16.8132L14.5327 53.3682" stroke="#510943" stroke-width="0.683272" stroke-miterlimit="10"/>
<path id="Vector_35" d="M57.2723 17.33L14.9795 53.8851" stroke="#BDCCD4" stroke-width="0.683272" stroke-miterlimit="10"/>
</g>
<g id="Group_23">
<path id="Vector_36" d="M57.7191 17.8468L15.4263 54.4019" stroke="#510943" stroke-width="0.683272" stroke-miterlimit="10"/>
<path id="Vector_37" d="M58.1658 18.3666L15.873 54.9188" stroke="#BDCCD4" stroke-width="0.683272" stroke-miterlimit="10"/>
</g>
<g id="Group_24">
<path id="Vector_38" d="M58.6125 18.8834L16.3197 55.4385" stroke="#510943" stroke-width="0.683272" stroke-miterlimit="10"/>
<path id="Vector_39" d="M59.0593 19.4003L16.7694 55.9553" stroke="#BDCCD4" stroke-width="0.683272" stroke-miterlimit="10"/>
</g>
<g id="Group_25">
<path id="Vector_40" d="M59.5061 19.9171L17.2162 56.4722" stroke="#510943" stroke-width="0.683272" stroke-miterlimit="10"/>
<path id="Vector_41" d="M59.9558 20.4339L17.663 56.989" stroke="#BDCCD4" stroke-width="0.683272" stroke-miterlimit="10"/>
</g>
<g id="Group_26">
<path id="Vector_42" d="M60.4024 20.9508L18.1096 57.5058" stroke="#510943" stroke-width="0.683272" stroke-miterlimit="10"/>
<path id="Vector_43" d="M60.8492 21.4705L18.5564 58.0227" stroke="#BDCCD4" stroke-width="0.683272" stroke-miterlimit="10"/>
</g>
<g id="Group_27">
<path id="Vector_44" d="M61.296 21.9874L19.0032 58.5424" stroke="#510943" stroke-width="0.683272" stroke-miterlimit="10"/>
<path id="Vector_45" d="M61.7428 22.5042L19.45 59.0592" stroke="#BDCCD4" stroke-width="0.683272" stroke-miterlimit="10"/>
</g>
<g id="Group_28">
<path id="Vector_46" d="M62.1895 23.021L19.8997 59.5761" stroke="#510943" stroke-width="0.683272" stroke-miterlimit="10"/>
<path id="Vector_47" d="M62.6363 23.5378L20.3464 60.0929" stroke="#BDCCD4" stroke-width="0.683272" stroke-miterlimit="10"/>
</g>
<g id="Group_29">
<path id="Vector_48" d="M63.083 24.0547L20.7931 60.6098" stroke="#510943" stroke-width="0.683272" stroke-miterlimit="10"/>
<path id="Vector_49" d="M63.5327 24.5744L21.2399 61.1266" stroke="#BDCCD4" stroke-width="0.683272" stroke-miterlimit="10"/>
</g>
<g id="Group_30">
<path id="Vector_50" d="M63.9794 25.0913L21.6866 61.6463" stroke="#510943" stroke-width="0.683272" stroke-miterlimit="10"/>
<path id="Vector_51" d="M64.4262 25.6081L22.1334 62.1632" stroke="#BDCCD4" stroke-width="0.683272" stroke-miterlimit="10"/>
</g>
<g id="Group_31">
<path id="Vector_52" d="M64.8729 26.1249L22.5801 62.68" stroke="#510943" stroke-width="0.683272" stroke-miterlimit="10"/>
<path id="Vector_53" d="M65.3198 26.6418L23.0299 63.1968" stroke="#BDCCD4" stroke-width="0.683272" stroke-miterlimit="10"/>
</g>
<g id="Group_32">
<path id="Vector_54" d="M65.7664 27.1586L23.4766 63.7137" stroke="#510943" stroke-width="0.683272" stroke-miterlimit="10"/>
<path id="Vector_55" d="M66.2132 27.6784L23.9233 64.2305" stroke="#BDCCD4" stroke-width="0.683272" stroke-miterlimit="10"/>
</g>
<g id="Group_33">
<path id="Vector_56" d="M66.6628 28.1952L24.37 64.7503" stroke="#510943" stroke-width="0.683272" stroke-miterlimit="10"/>
<path id="Vector_57" d="M67.1096 28.712L24.8168 65.2671" stroke="#BDCCD4" stroke-width="0.683272" stroke-miterlimit="10"/>
</g>
</g>
<g id="Group_34">
<g id="Group_35">
<path id="Vector_58" d="M67.5565 29.2289L25.2637 65.7839" stroke="#510943" stroke-width="0.683272" stroke-miterlimit="10"/>
<path id="Vector_59" d="M68.0031 29.7457L25.7103 66.3008" stroke="#BDCCD4" stroke-width="0.683272" stroke-miterlimit="10"/>
</g>
<g id="Group_36">
<path id="Vector_60" d="M68.4499 30.2625L26.1571 66.8176" stroke="#510943" stroke-width="0.683272" stroke-miterlimit="10"/>
<path id="Vector_61" d="M68.8967 30.7823L26.6068 67.3373" stroke="#BDCCD4" stroke-width="0.683272" stroke-miterlimit="10"/>
</g>
<g id="Group_37">
<path id="Vector_62" d="M69.3433 31.2991L27.0535 67.8542" stroke="#510943" stroke-width="0.683272" stroke-miterlimit="10"/>
<path id="Vector_63" d="M69.793 31.8159L27.5002 68.371" stroke="#BDCCD4" stroke-width="0.683272" stroke-miterlimit="10"/>
</g>
<g id="Group_38">
<path id="Vector_64" d="M70.2398 32.3328L27.947 68.8879" stroke="#510943" stroke-width="0.683272" stroke-miterlimit="10"/>
<path id="Vector_65" d="M70.6866 32.8496L28.3938 69.4047" stroke="#BDCCD4" stroke-width="0.683272" stroke-miterlimit="10"/>
</g>
<g id="Group_39">
<path id="Vector_66" d="M71.1334 33.3665L28.8406 69.9215" stroke="#510943" stroke-width="0.683272" stroke-miterlimit="10"/>
<path id="Vector_67" d="M71.5802 33.8862L29.2874 70.4413" stroke="#BDCCD4" stroke-width="0.683272" stroke-miterlimit="10"/>
</g>
<g id="Group_40">
<path id="Vector_68" d="M72.0268 34.403L29.7369 70.9581" stroke="#510943" stroke-width="0.683272" stroke-miterlimit="10"/>
<path id="Vector_69" d="M72.4736 34.9199L30.1837 71.475" stroke="#BDCCD4" stroke-width="0.683272" stroke-miterlimit="10"/>
</g>
<g id="Group_41">
<path id="Vector_70" d="M72.9204 35.4367L30.6305 71.9918" stroke="#510943" stroke-width="0.683272" stroke-miterlimit="10"/>
<path id="Vector_71" d="M73.3701 35.9536L31.0773 72.5086" stroke="#BDCCD4" stroke-width="0.683272" stroke-miterlimit="10"/>
</g>
<g id="Group_42">
<path id="Vector_72" d="M73.8168 36.4704L31.524 73.0255" stroke="#510943" stroke-width="0.683272" stroke-miterlimit="10"/>
<path id="Vector_73" d="M74.2636 36.9901L31.9708 73.5452" stroke="#BDCCD4" stroke-width="0.683272" stroke-miterlimit="10"/>
</g>
<g id="Group_43">
<path id="Vector_74" d="M74.7103 37.507L32.4175 74.062" stroke="#510943" stroke-width="0.683272" stroke-miterlimit="10"/>
<path id="Vector_75" d="M75.1571 38.0238L32.8672 74.5789" stroke="#BDCCD4" stroke-width="0.683272" stroke-miterlimit="10"/>
</g>
<g id="Group_44">
<path id="Vector_76" d="M75.6037 38.5406L33.3138 75.0957" stroke="#510943" stroke-width="0.683272" stroke-miterlimit="10"/>
<path id="Vector_77" d="M76.0505 39.0575L33.7606 75.6126" stroke="#BDCCD4" stroke-width="0.683272" stroke-miterlimit="10"/>
</g>
<g id="Group_45">
<path id="Vector_78" d="M76.5003 39.5743L34.2075 76.1294" stroke="#510943" stroke-width="0.683272" stroke-miterlimit="10"/>
<path id="Vector_79" d="M76.9471 40.0941L34.6543 76.6491" stroke="#BDCCD4" stroke-width="0.683272" stroke-miterlimit="10"/>
</g>
<g id="Group_46">
<path id="Vector_80" d="M77.3938 40.6109L35.101 77.166" stroke="#510943" stroke-width="0.683272" stroke-miterlimit="10"/>
<path id="Vector_81" d="M77.8405 41.1277L35.5477 77.6828" stroke="#BDCCD4" stroke-width="0.683272" stroke-miterlimit="10"/>
</g>
<g id="Group_47">
<path id="Vector_82" d="M78.2873 41.6446L35.9945 78.1996" stroke="#510943" stroke-width="0.683272" stroke-miterlimit="10"/>
<path id="Vector_83" d="M78.7341 42.1614L36.4442 78.7165" stroke="#BDCCD4" stroke-width="0.683272" stroke-miterlimit="10"/>
</g>
<g id="Group_48">
<path id="Vector_84" d="M79.1808 42.6812L36.8909 79.2333" stroke="#510943" stroke-width="0.683272" stroke-miterlimit="10"/>
<path id="Vector_85" d="M79.6304 43.198L37.3376 79.7531" stroke="#BDCCD4" stroke-width="0.683272" stroke-miterlimit="10"/>
</g>
</g>
</g>
</g>
</g>
</g>
<path id="Vector_86" d="M55.8472 43.1396C55.8472 53.1989 50.4453 56.3729 40.3889 56.3729C30.3326 56.3729 24.6941 53.196 24.6941 43.1396C24.6941 35.9944 33.7109 31.6612 38.0442 28.8522C41.0488 26.9017 41.1773 24.3905 40.8444 22.767C40.7451 22.291 41.3087 21.9582 41.6825 22.2735C44.7805 24.8811 56.8984 35.0601 53.2689 42.4388C52.5009 44.001 55.8443 41.5628 55.8443 43.1425L55.8472 43.1396Z" fill="#75CAEF"/>
</g>
<g id="Group_49">
<g id="Group_50">
<path id="Vector_87" d="M49.9695 50.2176C50.5973 49.911 51.0499 49.3241 51.3506 48.6905C51.6222 48.1182 51.7828 47.4436 51.555 46.8538C50.7462 44.7719 48.2088 46.2143 47.616 47.6247C46.9794 49.1372 48.2146 51.0732 49.9695 50.2147V50.2176Z" fill="#5A1B09"/>
<path id="Vector_88" d="M48.0511 48.5707C48.0043 48.7956 48.0773 49.0788 48.2058 49.2452C48.3343 49.4117 48.5124 49.4584 48.6584 49.3912C48.8657 49.2978 49.0059 48.9678 48.9709 48.6145C48.9358 48.2612 48.7197 47.9313 48.4978 47.9079C48.2759 47.8845 48.0832 48.1999 48.1241 48.5532" fill="white"/>
</g>
<g id="Group_51">
<path id="Vector_89" d="M32.1576 50.2176C31.5298 49.911 31.0772 49.3241 30.7765 48.6905C30.5049 48.1182 30.3443 47.4436 30.5721 46.8538C31.3809 44.7719 33.9184 46.2143 34.5111 47.6247C35.1477 49.1372 33.9125 51.0732 32.1576 50.2147V50.2176Z" fill="#5A1B09"/>
<path id="Vector_90" d="M34.076 48.5707C34.1228 48.7956 34.0498 49.0788 33.9213 49.2452C33.7928 49.4117 33.6147 49.4584 33.4687 49.3912C33.2614 49.2978 33.1212 48.9678 33.1562 48.6145C33.1913 48.2612 33.4074 47.9313 33.6293 47.9079C33.8512 47.8845 34.0439 48.1999 34.003 48.5532" fill="white"/>
</g>
<path id="Vector_91" d="M39.8955 49.1518C40.6839 49.7854 41.8869 49.8351 42.725 49.2657" stroke="#5A1B09" stroke-width="0.586913" stroke-linecap="round" stroke-linejoin="round"/>
<path id="Vector_92" d="M48.6349 43.5163L48.3108 43.6418" stroke="#5A1B09" stroke-width="0.586913" stroke-linecap="round" stroke-linejoin="round"/>
<path id="Vector_93" d="M34.0206 43.5163L34.3447 43.6418" stroke="#5A1B09" stroke-width="0.586913" stroke-linecap="round" stroke-linejoin="round"/>
</g>
</g>
</svg>
