<svg width="50" height="51" viewBox="0 0 50 51" fill="none" xmlns="http://www.w3.org/2000/svg">
<path d="M46.0324 35.5706C46.0324 39.0882 49.103 36.8353 48.1736 39.2324C45.3883 46.4177 38.5001 48.9177 27.9471 48.9177C16.8148 48.9177 5.81772 47.9794 3.27066 39.8471C2.92948 38.7559 0.420661 30.9059 1.9736 29.7382C2.98243 28.9824 5.99125 31.8324 5.99125 30.3853C5.99125 25.5147 10.3971 20.4088 11.6942 22.7412C12.9913 25.0735 16.8265 11.6853 19.0795 8.74707C22.0589 4.85883 29.2413 0.770596 29.7618 1.20883C30.2971 1.65883 30.0854 4.9353 31.7795 6.2853C33.6265 7.75883 37.4236 7.38236 39.0354 9.65589C40.1442 11.2206 39.1177 13.7029 40.203 15.2294C40.9883 16.3324 42.3324 14.2088 42.9236 15.3588C43.7295 16.9206 41.7677 20.7971 42.406 22.2265C44.1177 26.0559 45.6618 25.1059 46.8118 28.0588C47.9824 31.0588 46.0354 35.0265 46.0354 35.5735L46.0324 35.5706Z" fill="#5A1B09"/>
<path d="M41.5676 34.7618C41.5676 44.8941 36.1265 48.0912 25.9971 48.0912C15.8676 48.0912 10.1882 44.8912 10.1882 34.7618C10.1882 27.5647 19.2706 23.2 23.6353 20.3706C26.6618 18.4059 26.7912 15.8765 26.4559 14.2412C26.3559 13.7618 26.9235 13.4265 27.3 13.7441C30.4206 16.3706 42.6265 26.6236 38.9706 34.0559C38.1971 35.6294 41.5647 33.1736 41.5647 34.7647L41.5676 34.7618Z" fill="#D35322"/>
<path d="M35.6441 41.8913C36.2764 41.5824 36.7323 40.9913 37.0353 40.353C37.3088 39.7766 37.4705 39.0971 37.2411 38.503C36.4264 36.406 33.8705 37.8589 33.2735 39.2795C32.6323 40.803 33.8764 42.753 35.6441 41.8883V41.8913Z" fill="#5A1B09"/>
<path d="M33.7118 40.2324C33.6647 40.4589 33.7383 40.7442 33.8677 40.9118C33.9971 41.0795 34.1765 41.1265 34.3236 41.0589C34.5324 40.9648 34.6736 40.6324 34.6383 40.2765C34.603 39.9206 34.3853 39.5883 34.1618 39.5648C33.9383 39.5412 33.7442 39.8589 33.7853 40.2148" fill="white"/>
<path d="M17.703 41.8913C17.0707 41.5824 16.6148 40.9913 16.3118 40.353C16.0383 39.7766 15.8765 39.0971 16.106 38.503C16.9207 36.406 19.4765 37.8589 20.0736 39.2795C20.7148 40.803 19.4707 42.753 17.703 41.8883V41.8913Z" fill="#5A1B09"/>
<path d="M19.6352 40.2324C19.6823 40.4589 19.6088 40.7442 19.4794 40.9118C19.35 41.0795 19.1705 41.1265 19.0235 41.0589C18.8147 40.9648 18.6735 40.6324 18.7088 40.2765C18.7441 39.9206 18.9617 39.5883 19.1852 39.5648C19.4088 39.5412 19.6029 39.8589 19.5617 40.2148" fill="white"/>
<path d="M25.5 40.8177C26.2941 41.4559 27.5059 41.5059 28.35 40.9324" stroke="#5A1B09" stroke-width="0.591176" stroke-linecap="round" stroke-linejoin="round"/>
<path d="M34.3 35.1412L33.9735 35.2677" stroke="#5A1B09" stroke-width="0.591176" stroke-linecap="round" stroke-linejoin="round"/>
<path d="M19.5824 35.1412L19.9089 35.2677" stroke="#5A1B09" stroke-width="0.591176" stroke-linecap="round" stroke-linejoin="round"/>
</svg>
