<svg width="46" height="46" viewBox="0 0 46 46" fill="none" xmlns="http://www.w3.org/2000/svg">
<g id="maskota original 2">
<g id="Layer 1">
<g id="Group">
<g id="Group_2">
<path id="Vector" d="M42.5802 33.1145C42.5802 36.3893 45.4388 34.2919 44.5735 36.5234C41.9805 43.2126 35.5679 45.54 25.7436 45.54C15.3799 45.54 5.14221 44.6665 2.77102 37.0957C2.4534 36.0798 0.117806 28.7719 1.56352 27.6849C2.50269 26.9812 5.30376 29.6344 5.30376 28.2872C5.30376 23.7529 9.40543 18.9996 10.6129 21.1709C11.8204 23.3422 15.3909 10.8784 17.4883 8.14307C20.262 4.5233 26.9484 0.717351 27.433 1.12533C27.9314 1.54426 27.7342 4.59449 29.3114 5.85128C31.0309 7.22307 34.5658 6.87259 36.0663 8.98914C37.0985 10.4458 36.1429 12.7568 37.1533 14.1778C37.8844 15.2046 39.1357 13.2277 39.686 14.2983C40.4363 15.7522 38.6099 19.361 39.2041 20.6918C40.7977 24.2568 42.2352 23.3724 43.3058 26.1214C44.3955 28.9143 42.5829 32.6079 42.5829 33.1172L42.5802 33.1145Z" fill="#D35322"/>
<path id="Vector_2" d="M38.4238 32.3615C38.4238 41.7943 33.3583 44.7706 23.9283 44.7706C14.4983 44.7706 9.21106 41.7915 9.21106 32.3615C9.21106 25.6614 17.6663 21.5981 21.7296 18.964C24.5471 17.135 24.6676 14.7802 24.3555 13.2578C24.2624 12.8115 24.7908 12.4994 25.1413 12.7951C28.0464 15.2402 39.4095 24.7852 36.0061 31.7044C35.2859 33.1693 38.4211 30.8829 38.4211 32.3643L38.4238 32.3615Z" fill="#FCE4BC"/>
</g>
<g id="Group_3">
<g id="Group_4">
<path id="Vector_3" d="M32.9091 38.9986C33.4978 38.7111 33.9222 38.1608 34.2043 37.5666C34.4589 37.0299 34.6095 36.3974 34.3959 35.8443C33.6375 33.8921 31.2581 35.2447 30.7022 36.5672C30.1053 37.9855 31.2635 39.8009 32.9091 38.9959V38.9986Z" fill="#5A1B09"/>
<path id="Vector_4" d="M31.1102 37.4543C31.0664 37.6652 31.1349 37.9308 31.2554 38.0868C31.3758 38.2429 31.5429 38.2867 31.6798 38.2237C31.8742 38.1361 32.0056 37.8267 31.9727 37.4954C31.9399 37.1641 31.7373 36.8547 31.5292 36.8328C31.3211 36.8109 31.1404 37.1066 31.1787 37.4379" fill="white"/>
</g>
<g id="Group_5">
<path id="Vector_5" d="M16.2068 38.9986C15.6181 38.7111 15.1937 38.1608 14.9116 37.5666C14.657 37.0299 14.5064 36.3974 14.72 35.8443C15.4784 33.8921 17.8578 35.2447 18.4137 36.5672C19.0106 37.9855 17.8524 39.8009 16.2068 38.9959V38.9986Z" fill="#5A1B09"/>
<path id="Vector_6" d="M18.0057 37.4543C18.0495 37.6652 17.9811 37.9308 17.8606 38.0868C17.7401 38.2429 17.5731 38.2867 17.4362 38.2237C17.2418 38.1361 17.1104 37.8267 17.1432 37.4954C17.1761 37.1641 17.3787 36.8547 17.5868 36.8328C17.7949 36.8109 17.9756 37.1066 17.9373 37.4379" fill="white"/>
</g>
<path id="Vector_7" d="M23.4655 37.9992C24.2047 38.5934 25.3328 38.6399 26.1187 38.106" stroke="#5A1B09" stroke-width="0.550357" stroke-linecap="round" stroke-linejoin="round"/>
<path id="Vector_8" d="M31.6578 32.7147L31.3539 32.8324" stroke="#5A1B09" stroke-width="0.550357" stroke-linecap="round" stroke-linejoin="round"/>
<path id="Vector_9" d="M17.9565 32.7147L18.2605 32.8324" stroke="#5A1B09" stroke-width="0.550357" stroke-linecap="round" stroke-linejoin="round"/>
</g>
</g>
</g>
</g>
</svg>
