<svg width="43" height="47" viewBox="0 0 43 47" fill="none" xmlns="http://www.w3.org/2000/svg">
<path d="M39.194 32.7338C39.194 35.6726 41.7592 33.7904 40.9828 35.793C38.6559 41.7958 32.9012 43.8843 24.085 43.8843C14.7847 43.8843 5.59746 43.1005 3.46958 36.3065C3.18455 35.3949 1.08861 28.8368 2.38598 27.8613C3.22878 27.2298 5.74243 29.6108 5.74243 28.4019C5.74243 24.3328 9.42323 20.0672 10.5068 22.0158C11.5904 23.9643 14.7945 12.7794 16.6767 10.3247C19.1658 7.07633 25.1661 3.66091 25.6011 4.02702C26.0483 4.40296 25.8713 7.14022 27.2867 8.26805C28.8298 9.49908 32.0019 9.18456 33.3484 11.0839C34.2748 12.3911 33.4172 14.465 34.3239 15.7402C34.98 16.6616 36.1029 14.8876 36.5968 15.8483C37.27 17.1531 35.6311 20.3916 36.1643 21.5858C37.5944 24.785 38.8844 23.9913 39.8451 26.4583C40.8231 28.9646 39.1964 32.2792 39.1964 32.7363L39.194 32.7338Z" fill="#BFC330"/>
<path d="M35.4639 32.0582C35.4639 40.523 30.9182 43.1939 22.4558 43.1939C13.9934 43.1939 9.24866 40.5206 9.24866 32.0582C9.24866 26.0455 16.8363 22.3991 20.4827 20.0354C23.0111 18.394 23.1192 16.2808 22.8391 14.9147C22.7556 14.5142 23.2298 14.234 23.5443 14.4994C26.1513 16.6936 36.3485 25.2592 33.2943 31.4684C32.648 32.783 35.4615 30.7313 35.4615 32.0606L35.4639 32.0582Z" fill="#D8D887"/>
<path d="M30.5152 38.0143C31.0435 37.7563 31.4244 37.2624 31.6775 36.7292C31.906 36.2476 32.0411 35.68 31.8495 35.1837C31.1688 33.4317 29.0336 34.6456 28.5348 35.8324C27.9991 37.1052 29.0385 38.7342 30.5152 38.0118V38.0143Z" fill="#5A1B09"/>
<path d="M28.9009 36.6284C28.8615 36.8176 28.923 37.056 29.0311 37.196C29.1392 37.3361 29.2891 37.3754 29.4119 37.3189C29.5864 37.2403 29.7043 36.9626 29.6749 36.6653C29.6454 36.368 29.4635 36.0903 29.2768 36.0707C29.0901 36.051 28.9279 36.3164 28.9623 36.6137" fill="white"/>
<path d="M15.5267 38.0143C14.9984 37.7563 14.6175 37.2624 14.3644 36.7292C14.1359 36.2476 14.0008 35.68 14.1924 35.1837C14.8731 33.4317 17.0083 34.6456 17.5071 35.8324C18.0428 37.1052 17.0034 38.7342 15.5267 38.0118V38.0143Z" fill="#5A1B09"/>
<path d="M17.1411 36.6284C17.1804 36.8176 17.119 37.056 17.0108 37.196C16.9027 37.3361 16.7528 37.3754 16.63 37.3189C16.4555 37.2403 16.3376 36.9626 16.3671 36.6653C16.3966 36.368 16.5784 36.0903 16.7651 36.0707C16.9519 36.051 17.114 36.3164 17.0796 36.6137" fill="white"/>
<path d="M22.0406 37.1174C22.7041 37.6506 23.7164 37.6924 24.4216 37.2133" stroke="#5A1B09" stroke-width="0.493886" stroke-linecap="round" stroke-linejoin="round"/>
<path d="M29.3924 32.3752L29.1196 32.4808" stroke="#5A1B09" stroke-width="0.493886" stroke-linecap="round" stroke-linejoin="round"/>
<path d="M17.0968 32.3752L17.3695 32.4808" stroke="#5A1B09" stroke-width="0.493886" stroke-linecap="round" stroke-linejoin="round"/>
</svg>
