<svg width="47" height="47" viewBox="0 0 47 47" fill="none" xmlns="http://www.w3.org/2000/svg">
<g id="maskota4 1">
<g id="Layer 1">
<g id="Group">
<g id="Group_2">
<path id="Vector" d="M42.7425 33.5157C42.7425 36.8029 45.612 34.6976 44.7435 36.9376C42.1406 43.6523 35.7035 45.9885 25.8418 45.9885C15.4386 45.9885 5.1618 45.1118 2.78156 37.5121C2.46273 36.4923 0.118228 29.1565 1.56946 28.0653C2.5122 27.359 5.32396 30.0223 5.32396 28.67C5.32396 24.1184 9.44127 19.347 10.6534 21.5266C11.8655 23.7061 15.4496 11.1948 17.555 8.44901C20.3392 4.81545 27.0512 0.994978 27.5376 1.40451C28.0379 1.82504 27.84 4.88691 29.4231 6.14849C31.1492 7.5255 34.6976 7.17369 36.2038 9.29831C37.24 10.7605 36.2807 13.0803 37.295 14.5068C38.0288 15.5375 39.2849 13.553 39.8373 14.6277C40.5904 16.0872 38.7572 19.7098 39.3536 21.0456C40.9533 24.6242 42.3962 23.7364 43.4709 26.4959C44.5648 29.2994 42.7453 33.0072 42.7453 33.5184L42.7425 33.5157Z" fill="#C40B61"/>
<path id="Vector_2" d="M38.5702 32.7598C38.5702 42.2285 33.4854 45.2162 24.0195 45.2162C14.5535 45.2162 9.24609 42.2258 9.24609 32.7598C9.24609 26.0341 17.7336 21.9553 21.8124 19.3112C24.6407 17.4752 24.7616 15.1114 24.4483 13.5833C24.3548 13.1352 24.8853 12.8219 25.2371 13.1188C28.1533 15.5732 39.5597 25.1546 36.1433 32.1002C35.4204 33.5706 38.5675 31.2756 38.5675 32.7626L38.5702 32.7598Z" fill="#BFC330"/>
</g>
<g id="Group_3">
<g id="Group_4">
<path id="Vector_3" d="M33.0347 39.4223C33.6257 39.1337 34.0517 38.5812 34.3348 37.9848C34.5904 37.4461 34.7416 36.8112 34.5272 36.256C33.7659 34.2963 31.3774 35.654 30.8194 36.9816C30.2202 38.4053 31.3829 40.2276 33.0347 39.4195V39.4223Z" fill="#5A1B09"/>
<path id="Vector_4" d="M31.2289 37.8721C31.185 38.0837 31.2537 38.3504 31.3746 38.507C31.4955 38.6637 31.6632 38.7077 31.8006 38.6444C31.9958 38.5565 32.1277 38.2459 32.0947 37.9133C32.0617 37.5808 31.8584 37.2702 31.6495 37.2482C31.4406 37.2262 31.2592 37.523 31.2976 37.8556" fill="white"/>
</g>
<g id="Group_5">
<path id="Vector_5" d="M16.2686 39.4223C15.6777 39.1337 15.2517 38.5812 14.9686 37.9848C14.7129 37.4461 14.5618 36.8112 14.7762 36.256C15.5375 34.2963 17.926 35.654 18.4839 36.9816C19.0831 38.4053 17.9205 40.2276 16.2686 39.4195V39.4223Z" fill="#5A1B09"/>
<path id="Vector_6" d="M18.0745 37.8721C18.1184 38.0837 18.0497 38.3504 17.9288 38.507C17.8078 38.6637 17.6402 38.7077 17.5028 38.6444C17.3076 38.5565 17.1757 38.2459 17.2087 37.9133C17.2416 37.5808 17.445 37.2702 17.6539 37.2482C17.8628 37.2262 18.0442 37.523 18.0057 37.8556" fill="white"/>
</g>
<path id="Vector_7" d="M23.5549 38.4191C24.297 39.0155 25.4294 39.0622 26.2183 38.5263" stroke="#5A1B09" stroke-width="0.552456" stroke-linecap="round" stroke-linejoin="round"/>
<path id="Vector_8" d="M31.7786 33.1144L31.4735 33.2326" stroke="#5A1B09" stroke-width="0.552456" stroke-linecap="round" stroke-linejoin="round"/>
<path id="Vector_9" d="M18.0249 33.1144L18.33 33.2326" stroke="#5A1B09" stroke-width="0.552456" stroke-linecap="round" stroke-linejoin="round"/>
</g>
</g>
</g>
</g>
</svg>
