<svg width="48" height="49" viewBox="0 0 48 49" fill="none" xmlns="http://www.w3.org/2000/svg">
<g id="Layer_1" clip-path="url(#clip0_355_1234)">
<g id="Group">
<g id="Group_2">
<path id="Vector" d="M45.5895 35.2791C45.5895 38.8779 48.7309 36.573 47.7801 39.0253C44.9306 46.3763 37.8835 48.9339 27.0872 48.9339C15.6981 48.9339 4.4475 47.9741 1.84171 39.6542C1.49266 38.5379 -1.07401 30.5068 0.514737 29.3123C1.54682 28.539 4.62503 31.4547 4.62503 29.9742C4.62503 24.9913 9.13251 19.7677 10.4595 22.1539C11.7864 24.54 15.7102 10.843 18.0151 7.83705C21.0632 3.85915 28.4112 -0.323357 28.9438 0.124983C29.4914 0.58536 29.2747 3.93738 31.0079 5.31851C32.8976 6.82602 36.7822 6.44087 38.4311 8.76683C39.5655 10.3676 38.5154 12.9072 39.6257 14.4689C40.4291 15.5973 41.8042 13.4248 42.409 14.6013C43.2335 16.1991 41.2265 20.1649 41.8794 21.6273C43.6307 25.545 45.2104 24.5731 46.3869 27.5941C47.5845 30.6633 45.5925 34.7224 45.5925 35.2821L45.5895 35.2791Z" fill="#FCE4BC"/>
<path id="Vector_2" d="M41.0217 34.4517C41.0217 44.8177 35.4551 48.0884 25.0921 48.0884C14.7291 48.0884 8.9187 44.8146 8.9187 34.4517C8.9187 27.0886 18.2105 22.6233 22.6758 19.7286C25.7721 17.7186 25.9045 15.1309 25.5615 13.4579C25.4592 12.9674 26.0399 12.6244 26.4251 12.9493C29.6176 15.6364 42.1049 26.1258 38.3648 33.7295C37.5734 35.3393 41.0187 32.8268 41.0187 34.4547L41.0217 34.4517Z" fill="#BFC330"/>
</g>
<g id="Group_3">
<g id="Group_4">
<path id="Vector_3" d="M34.9616 41.7455C35.6085 41.4295 36.0749 40.8247 36.3848 40.1718C36.6647 39.582 36.8302 38.8869 36.5955 38.2791C35.762 36.1337 33.1472 37.6201 32.5363 39.0735C31.8804 40.6321 33.1532 42.6271 34.9616 41.7425V41.7455Z" fill="#5A1B09"/>
<path id="Vector_4" d="M32.9846 40.0484C32.9365 40.2801 33.0117 40.572 33.1441 40.7435C33.2765 40.915 33.46 40.9631 33.6105 40.8939C33.8241 40.7976 33.9685 40.4576 33.9324 40.0935C33.8963 39.7295 33.6737 39.3894 33.445 39.3654C33.2163 39.3413 33.0177 39.6663 33.0598 40.0303" fill="white"/>
</g>
<g id="Group_5">
<path id="Vector_5" d="M16.6066 41.7455C15.9597 41.4295 15.4933 40.8247 15.1834 40.1718C14.9035 39.582 14.738 38.8869 14.9727 38.2791C15.8062 36.1337 18.421 37.6201 19.0319 39.0735C19.6878 40.6321 18.415 42.6271 16.6066 41.7425V41.7455Z" fill="#5A1B09"/>
<path id="Vector_6" d="M18.5836 40.0484C18.6318 40.2801 18.5565 40.572 18.4241 40.7435C18.2917 40.915 18.1082 40.9631 17.9577 40.8939C17.7441 40.7976 17.5997 40.4576 17.6358 40.0935C17.6719 39.7295 17.8946 39.3894 18.1232 39.3654C18.3519 39.3413 18.5505 39.6663 18.5084 40.0303" fill="white"/>
</g>
<path id="Vector_7" d="M24.5836 40.6472C25.396 41.3002 26.6358 41.3513 27.4993 40.7646" stroke="#5A1B09" stroke-width="0.604809" stroke-linecap="round" stroke-linejoin="round"/>
<path id="Vector_8" d="M33.5864 34.8398L33.2524 34.9692" stroke="#5A1B09" stroke-width="0.604809" stroke-linecap="round" stroke-linejoin="round"/>
<path id="Vector_9" d="M18.5294 34.8398L18.8634 34.9692" stroke="#5A1B09" stroke-width="0.604809" stroke-linecap="round" stroke-linejoin="round"/>
</g>
</g>
<path id="Vector_10" d="M37.6938 42.6271C36.2555 45.3171 33.1171 41.9862 30.0991 39.585C28.7691 38.5258 26.5485 38.1828 25.8835 39.4135C25.2185 38.1828 22.9979 38.5258 21.6679 39.585C18.6529 41.9862 15.5115 45.3171 14.0732 42.6271C13.5526 44.8086 15.8244 45.5007 18.5716 44.7123C18.1444 45.2058 17.5486 45.3232 16.8294 45.5398C18.5325 45.8467 20.3349 45.2178 21.698 44.1015C21.4663 44.601 21.1684 45.1095 20.7441 45.6391C22.044 45.4886 23.2898 44.3843 24.045 42.9129C23.9547 43.6742 23.7802 44.4475 23.2597 45.3262C24.4783 44.9952 25.4502 43.8969 25.8835 42.5639C26.3198 43.8969 27.2887 44.9982 28.5074 45.3262C27.9868 44.4445 27.8123 43.6712 27.722 42.9129C28.4773 44.3843 29.72 45.4886 31.0229 45.6391C30.5986 45.1125 30.3007 44.604 30.069 44.1015C31.4321 45.2178 33.2345 45.8467 34.9376 45.5398C34.2184 45.3232 33.6196 45.2058 33.1954 44.7123C35.9426 45.5007 38.2144 44.8086 37.6938 42.6271Z" fill="black"/>
</g>
<defs>
<clipPath id="clip0_355_1234">
<rect width="47.9604" height="48.8421" fill="white" transform="translate(0 0.0919189)"/>
</clipPath>
</defs>
</svg>
