<svg width="47" height="49" viewBox="0 0 47 49" fill="none" xmlns="http://www.w3.org/2000/svg">
<mask id="mask0_4075_741" style="mask-type:luminance" maskUnits="userSpaceOnUse" x="0" y="0" width="47" height="49">
<path d="M44.2827 34.9426C44.2827 38.4348 47.3312 36.1981 46.4085 38.5779C43.6433 45.7114 36.8047 48.1934 26.3279 48.1934C15.2758 48.1934 4.35803 47.2619 1.82934 39.1882C1.49062 38.1049 -1.00011 30.3115 0.541632 29.1523C1.54318 28.4018 4.53031 31.2313 4.53031 29.7947C4.53031 24.9592 8.90442 19.8901 10.1921 22.2057C11.4798 24.5212 15.2875 11.2295 17.5242 8.31247C20.4821 4.45227 27.6126 0.393518 28.1295 0.828593C28.6609 1.27535 28.4507 4.52819 30.1326 5.86846C31.9663 7.33136 35.736 6.9576 37.3361 9.21474C38.437 10.7682 37.4179 13.2326 38.4954 14.7481C39.275 15.8431 40.6094 13.7348 41.1963 14.8766C41.9964 16.4271 40.0488 20.2756 40.6824 21.6947C42.3818 25.4965 43.9148 24.5533 45.0565 27.485C46.2187 30.4633 44.2857 34.4024 44.2857 34.9455L44.2827 34.9426Z" fill="white"/>
</mask>
<g mask="url(#mask0_4075_741)">
<path d="M26.515 -8.74017L-15.7749 27.812" stroke="#510943" stroke-width="0.683272" stroke-miterlimit="10"/>
<path d="M26.9618 -8.22333L-15.3281 28.3317" stroke="#BDCCD4" stroke-width="0.683272" stroke-miterlimit="10"/>
<path d="M27.4085 -7.70654L-14.8813 28.8485" stroke="#510943" stroke-width="0.683272" stroke-miterlimit="10"/>
<path d="M27.8582 -7.1897L-14.4346 29.3654" stroke="#BDCCD4" stroke-width="0.683272" stroke-miterlimit="10"/>
<path d="M28.305 -6.67285L-13.9878 29.8822" stroke="#510943" stroke-width="0.683272" stroke-miterlimit="10"/>
<path d="M28.7518 -6.15601L-13.541 30.3991" stroke="#BDCCD4" stroke-width="0.683272" stroke-miterlimit="10"/>
<path d="M29.1986 -5.63623L-13.0942 30.9188" stroke="#510943" stroke-width="0.683272" stroke-miterlimit="10"/>
<path d="M29.6453 -5.11938L-12.6445 31.4357" stroke="#BDCCD4" stroke-width="0.683272" stroke-miterlimit="10"/>
<path d="M30.0921 -4.6026L-12.1978 31.9525" stroke="#510943" stroke-width="0.683272" stroke-miterlimit="10"/>
<path d="M30.5389 -4.08575L-11.751 32.4693" stroke="#BDCCD4" stroke-width="0.683272" stroke-miterlimit="10"/>
<path d="M30.9886 -3.56891L-11.3042 32.9862" stroke="#510943" stroke-width="0.683272" stroke-miterlimit="10"/>
<path d="M31.4354 -3.05206L-10.8574 33.503" stroke="#BDCCD4" stroke-width="0.683272" stroke-miterlimit="10"/>
<path d="M31.8822 -2.53235L-10.4106 34.0227" stroke="#510943" stroke-width="0.683272" stroke-miterlimit="10"/>
<path d="M32.3289 -2.0155L-9.96387 34.5396" stroke="#BDCCD4" stroke-width="0.683272" stroke-miterlimit="10"/>
<path d="M32.7752 -1.49866L-9.51758 35.0564" stroke="#510943" stroke-width="0.683272" stroke-miterlimit="10"/>
<path d="M33.222 -0.981812L-9.06787 35.5732" stroke="#BDCCD4" stroke-width="0.683272" stroke-miterlimit="10"/>
<path d="M33.6688 -0.465027L-8.62109 36.09" stroke="#510943" stroke-width="0.683272" stroke-miterlimit="10"/>
<path d="M34.1185 0.0518188L-8.17432 36.6069" stroke="#BDCCD4" stroke-width="0.683272" stroke-miterlimit="10"/>
<path d="M34.5653 0.571594L-7.72754 37.1267" stroke="#510943" stroke-width="0.683272" stroke-miterlimit="10"/>
<path d="M35.012 1.08844L-7.28076 37.6435" stroke="#BDCCD4" stroke-width="0.683272" stroke-miterlimit="10"/>
<path d="M35.4588 1.60529L-6.83398 38.1603" stroke="#510943" stroke-width="0.683272" stroke-miterlimit="10"/>
<path d="M35.9056 2.12213L-6.38721 38.6772" stroke="#BDCCD4" stroke-width="0.683272" stroke-miterlimit="10"/>
<path d="M36.3524 2.63892L-5.9375 39.194" stroke="#510943" stroke-width="0.683272" stroke-miterlimit="10"/>
<path d="M36.7992 3.15576L-5.49072 39.7108" stroke="#BDCCD4" stroke-width="0.683272" stroke-miterlimit="10"/>
<path d="M37.2459 3.67554L-5.04395 40.2306" stroke="#510943" stroke-width="0.683272" stroke-miterlimit="10"/>
<path d="M37.6956 4.19238L-4.59717 40.7474" stroke="#BDCCD4" stroke-width="0.683272" stroke-miterlimit="10"/>
<path d="M38.1424 4.70917L-4.15039 41.2642" stroke="#510943" stroke-width="0.683272" stroke-miterlimit="10"/>
<path d="M38.5892 5.22601L-3.70361 41.7811" stroke="#BDCCD4" stroke-width="0.683272" stroke-miterlimit="10"/>
<path d="M39.036 5.74286L-3.25684 42.2979" stroke="#510943" stroke-width="0.683272" stroke-miterlimit="10"/>
<path d="M39.4827 6.26263L-2.80713 42.8148" stroke="#BDCCD4" stroke-width="0.683272" stroke-miterlimit="10"/>
<path d="M39.9295 6.77942L-2.36035 43.3345" stroke="#510943" stroke-width="0.683272" stroke-miterlimit="10"/>
<path d="M40.3763 7.29626L-1.91357 43.8513" stroke="#BDCCD4" stroke-width="0.683272" stroke-miterlimit="10"/>
<path d="M40.826 7.81311L-1.4668 44.3682" stroke="#510943" stroke-width="0.683272" stroke-miterlimit="10"/>
<path d="M41.2728 8.32996L-1.02002 44.885" stroke="#BDCCD4" stroke-width="0.683272" stroke-miterlimit="10"/>
<path d="M41.7196 8.8468L-0.573242 45.4019" stroke="#510943" stroke-width="0.683272" stroke-miterlimit="10"/>
<path d="M42.1663 9.36658L-0.126465 45.9187" stroke="#BDCCD4" stroke-width="0.683272" stroke-miterlimit="10"/>
<path d="M42.6131 9.88336L0.320312 46.4384" stroke="#510943" stroke-width="0.683272" stroke-miterlimit="10"/>
<path d="M43.0599 10.4002L0.77002 46.9553" stroke="#BDCCD4" stroke-width="0.683272" stroke-miterlimit="10"/>
<path d="M43.5062 10.9171L1.21631 47.4721" stroke="#510943" stroke-width="0.683272" stroke-miterlimit="10"/>
<path d="M43.9559 11.4339L1.66309 47.989" stroke="#BDCCD4" stroke-width="0.683272" stroke-miterlimit="10"/>
<path d="M44.4027 11.9507L2.10986 48.5057" stroke="#510943" stroke-width="0.683272" stroke-miterlimit="10"/>
<path d="M44.8494 12.4705L2.55664 49.0226" stroke="#BDCCD4" stroke-width="0.683272" stroke-miterlimit="10"/>
<path d="M45.2962 12.9873L3.00342 49.5424" stroke="#510943" stroke-width="0.683272" stroke-miterlimit="10"/>
<path d="M45.743 13.5042L3.4502 50.0592" stroke="#BDCCD4" stroke-width="0.683272" stroke-miterlimit="10"/>
<path d="M46.1898 14.0209L3.8999 50.576" stroke="#510943" stroke-width="0.683272" stroke-miterlimit="10"/>
<path d="M46.6366 14.5378L4.34668 51.0928" stroke="#BDCCD4" stroke-width="0.683272" stroke-miterlimit="10"/>
<path d="M47.0833 15.0546L4.79346 51.6097" stroke="#510943" stroke-width="0.683272" stroke-miterlimit="10"/>
<path d="M47.533 15.5744L5.24023 52.1265" stroke="#BDCCD4" stroke-width="0.683272" stroke-miterlimit="10"/>
<path d="M47.9798 16.0912L5.68701 52.6463" stroke="#510943" stroke-width="0.683272" stroke-miterlimit="10"/>
<path d="M48.4266 16.6081L6.13379 53.1632" stroke="#BDCCD4" stroke-width="0.683272" stroke-miterlimit="10"/>
<path d="M48.8734 17.1249L6.58057 53.6799" stroke="#510943" stroke-width="0.683272" stroke-miterlimit="10"/>
<path d="M49.3201 17.6417L7.03027 54.1968" stroke="#BDCCD4" stroke-width="0.683272" stroke-miterlimit="10"/>
<path d="M49.7669 18.1586L7.47705 54.7136" stroke="#510943" stroke-width="0.683272" stroke-miterlimit="10"/>
<path d="M50.2137 18.6783L7.92383 55.2304" stroke="#BDCCD4" stroke-width="0.683272" stroke-miterlimit="10"/>
<path d="M50.6634 19.1951L8.37061 55.7502" stroke="#510943" stroke-width="0.683272" stroke-miterlimit="10"/>
<path d="M51.1102 19.712L8.81738 56.267" stroke="#BDCCD4" stroke-width="0.683272" stroke-miterlimit="10"/>
<path d="M51.5565 20.2288L9.26367 56.7839" stroke="#510943" stroke-width="0.683272" stroke-miterlimit="10"/>
<path d="M52.0032 20.7456L9.71045 57.3007" stroke="#BDCCD4" stroke-width="0.683272" stroke-miterlimit="10"/>
<path d="M52.45 21.2625L10.1572 57.8175" stroke="#510943" stroke-width="0.683272" stroke-miterlimit="10"/>
<path d="M52.8968 21.7822L10.6069 58.3372" stroke="#BDCCD4" stroke-width="0.683272" stroke-miterlimit="10"/>
<path d="M53.3436 22.2991L11.0537 58.8541" stroke="#510943" stroke-width="0.683272" stroke-miterlimit="10"/>
<path d="M53.7933 22.8159L11.5005 59.371" stroke="#BDCCD4" stroke-width="0.683272" stroke-miterlimit="10"/>
<path d="M54.2396 23.3328L11.9468 59.8878" stroke="#510943" stroke-width="0.683272" stroke-miterlimit="10"/>
<path d="M54.6864 23.8496L12.3936 60.4047" stroke="#BDCCD4" stroke-width="0.683272" stroke-miterlimit="10"/>
<path d="M55.1331 24.3664L12.8403 60.9215" stroke="#510943" stroke-width="0.683272" stroke-miterlimit="10"/>
<path d="M55.5799 24.8862L13.2871 61.4412" stroke="#BDCCD4" stroke-width="0.683272" stroke-miterlimit="10"/>
<path d="M56.0267 25.403L13.7368 61.958" stroke="#510943" stroke-width="0.683272" stroke-miterlimit="10"/>
<path d="M56.4735 25.9198L14.1836 62.4749" stroke="#BDCCD4" stroke-width="0.683272" stroke-miterlimit="10"/>
<path d="M56.9202 26.4366L14.6304 62.9917" stroke="#510943" stroke-width="0.683272" stroke-miterlimit="10"/>
<path d="M57.3699 26.9535L15.0771 63.5086" stroke="#BDCCD4" stroke-width="0.683272" stroke-miterlimit="10"/>
<path d="M57.8167 27.4703L15.5239 64.0254" stroke="#510943" stroke-width="0.683272" stroke-miterlimit="10"/>
<path d="M58.2635 27.9901L15.9707 64.5451" stroke="#BDCCD4" stroke-width="0.683272" stroke-miterlimit="10"/>
<path d="M58.7103 28.5069L16.4175 65.062" stroke="#510943" stroke-width="0.683272" stroke-miterlimit="10"/>
<path d="M59.1571 29.0237L16.8672 65.5788" stroke="#BDCCD4" stroke-width="0.683272" stroke-miterlimit="10"/>
<path d="M59.6038 29.5406L17.314 66.0956" stroke="#510943" stroke-width="0.683272" stroke-miterlimit="10"/>
<path d="M60.0506 30.0574L17.7607 66.6125" stroke="#BDCCD4" stroke-width="0.683272" stroke-miterlimit="10"/>
<path d="M60.5003 30.5743L18.2075 67.1293" stroke="#510943" stroke-width="0.683272" stroke-miterlimit="10"/>
<path d="M60.9471 31.0941L18.6543 67.6491" stroke="#BDCCD4" stroke-width="0.683272" stroke-miterlimit="10"/>
<path d="M61.3939 31.6108L19.1011 68.1659" stroke="#510943" stroke-width="0.683272" stroke-miterlimit="10"/>
<path d="M61.8407 32.1277L19.5479 68.6827" stroke="#BDCCD4" stroke-width="0.683272" stroke-miterlimit="10"/>
<path d="M62.2874 32.6445L19.9946 69.1995" stroke="#510943" stroke-width="0.683272" stroke-miterlimit="10"/>
<path d="M62.7342 33.1613L20.4443 69.7164" stroke="#BDCCD4" stroke-width="0.683272" stroke-miterlimit="10"/>
<path d="M63.181 33.6811L20.8911 70.2332" stroke="#510943" stroke-width="0.683272" stroke-miterlimit="10"/>
<path d="M63.6307 34.1979L21.3379 70.753" stroke="#BDCCD4" stroke-width="0.683272" stroke-miterlimit="10"/>
</g>
<path d="M39.8475 34.1395C39.8475 44.1988 34.4455 47.3728 24.3892 47.3728C14.3328 47.3728 8.69434 44.1959 8.69434 34.1395C8.69434 26.9944 17.7112 22.6612 22.0444 19.8521C25.0491 17.9016 25.1775 15.3904 24.8447 13.7669C24.7454 13.291 25.3089 12.9581 25.6827 13.2735C28.7808 15.881 40.8986 26.06 37.2691 33.4388C36.5012 35.0009 39.8445 32.5628 39.8445 34.1425L39.8475 34.1395Z" fill="#75CAEF"/>
<path d="M33.9695 41.2176C34.5973 40.911 35.0499 40.3241 35.3506 39.6904C35.6222 39.1181 35.7828 38.4436 35.555 37.8538C34.7462 35.7718 32.2088 37.2143 31.616 38.6246C30.9794 40.1372 32.2146 42.0731 33.9695 41.2147V41.2176Z" fill="#5A1B09"/>
<path d="M32.0508 39.5707C32.0041 39.7956 32.0771 40.0788 32.2056 40.2452C32.3341 40.4117 32.5122 40.4584 32.6582 40.3912C32.8655 40.2978 33.0056 39.9678 32.9706 39.6145C32.9356 39.2612 32.7195 38.9313 32.4976 38.9079C32.2757 38.8845 32.0829 39.1999 32.1238 39.5532" fill="white"/>
<path d="M16.1575 41.2176C15.5297 40.911 15.0771 40.3241 14.7764 39.6904C14.5048 39.1181 14.3442 38.4436 14.572 37.8538C15.3808 35.7718 17.9182 37.2143 18.511 38.6246C19.1475 40.1372 17.9124 42.0731 16.1575 41.2147V41.2176Z" fill="#5A1B09"/>
<path d="M18.076 39.5707C18.1228 39.7956 18.0498 40.0788 17.9213 40.2452C17.7928 40.4117 17.6147 40.4584 17.4687 40.3912C17.2614 40.2978 17.1212 39.9678 17.1562 39.6145C17.1913 39.2612 17.4074 38.9313 17.6293 38.9079C17.8512 38.8845 18.0439 39.1999 18.003 39.5532" fill="white"/>
<path d="M23.8955 40.1518C24.6839 40.7854 25.8869 40.8351 26.725 40.2657" stroke="#5A1B09" stroke-width="0.586913" stroke-linecap="round" stroke-linejoin="round"/>
<path d="M32.6347 34.5162L32.3105 34.6418" stroke="#5A1B09" stroke-width="0.586913" stroke-linecap="round" stroke-linejoin="round"/>
<path d="M18.0205 34.5162L18.3446 34.6418" stroke="#5A1B09" stroke-width="0.586913" stroke-linecap="round" stroke-linejoin="round"/>
</svg>
