<svg width="49" height="49" viewBox="0 0 49 49" fill="none" xmlns="http://www.w3.org/2000/svg">
<path d="M45.157 35.0235C45.157 38.4308 48.1311 36.2485 47.2309 38.5704C44.5331 45.5301 37.8611 47.9516 27.6395 47.9516C16.8566 47.9516 6.20481 47.0428 3.73771 39.1658C3.40725 38.1088 0.977191 30.5053 2.48138 29.3743C3.45853 28.6422 6.37289 31.4027 6.37289 30.001C6.37289 25.2834 10.6404 20.3378 11.8968 22.5969C13.1531 24.856 16.868 11.8881 19.0502 9.04215C21.9361 5.27598 28.893 1.3161 29.3972 1.74058C29.9157 2.17645 29.7106 5.35005 31.3515 6.65767C33.1406 8.08494 36.8184 7.72029 38.3796 9.92244C39.4536 11.438 38.4593 13.8424 39.5106 15.321C40.2712 16.3893 41.5731 14.3324 42.1457 15.4463C42.9263 16.9591 41.0261 20.7138 41.6443 22.0984C43.3024 25.8076 44.798 24.8874 45.9119 27.7476C47.0457 30.6534 45.1598 34.4965 45.1598 35.0264L45.157 35.0235Z" fill="#FCE4BC"/>
<path d="M40.8324 34.2401C40.8324 44.0544 35.562 47.1511 25.7506 47.1511C15.9392 47.1511 10.4381 44.0515 10.4381 34.2401C10.4381 27.269 19.2353 23.0414 23.463 20.3008C26.3945 18.3978 26.5198 15.9477 26.195 14.3638C26.0982 13.8994 26.648 13.5747 27.0126 13.8823C30.0353 16.4264 41.8579 26.3574 38.3168 33.5564C37.5676 35.0805 40.8295 32.7018 40.8295 34.243L40.8324 34.2401Z" fill="#D35322"/>
<path d="M35.0948 41.1457C35.7073 40.8466 36.1489 40.274 36.4423 39.6558C36.7072 39.0974 36.8639 38.4393 36.6417 37.8638C35.8526 35.8326 33.377 37.2399 32.7986 38.6159C32.1776 40.0916 33.3826 41.9804 35.0948 41.1428V41.1457Z" fill="#5A1B09"/>
<path d="M33.2231 39.539C33.1775 39.7583 33.2487 40.0347 33.3741 40.197C33.4994 40.3594 33.6732 40.405 33.8156 40.3395C34.0179 40.2483 34.1546 39.9264 34.1205 39.5817C34.0863 39.237 33.8755 38.9151 33.6589 38.8923C33.4424 38.8695 33.2544 39.1772 33.2943 39.5219" fill="white"/>
<path d="M17.7168 41.1457C17.1043 40.8466 16.6627 40.274 16.3693 39.6558C16.1044 39.0974 15.9477 38.4393 16.1699 37.8638C16.959 35.8326 19.4347 37.2399 20.013 38.6159C20.634 40.0916 19.429 41.9804 17.7168 41.1428V41.1457Z" fill="#5A1B09"/>
<path d="M19.5887 39.539C19.6342 39.7583 19.563 40.0347 19.4377 40.197C19.3123 40.3594 19.1385 40.405 18.9961 40.3395C18.7938 40.2483 18.6571 39.9264 18.6913 39.5817C18.7255 39.237 18.9363 38.9151 19.1528 38.8923C19.3693 38.8695 19.5573 39.1772 19.5174 39.5219" fill="white"/>
<path d="M25.2693 40.1059C26.0385 40.7241 27.2122 40.7725 28.0298 40.217" stroke="#5A1B09" stroke-width="0.572616" stroke-linecap="round" stroke-linejoin="round"/>
<path d="M33.7929 34.6076L33.4767 34.7301" stroke="#5A1B09" stroke-width="0.572616" stroke-linecap="round" stroke-linejoin="round"/>
<path d="M19.5374 34.6076L19.8536 34.7301" stroke="#5A1B09" stroke-width="0.572616" stroke-linecap="round" stroke-linejoin="round"/>
</svg>
