<svg width="49" height="51" viewBox="0 0 49 51" fill="none" xmlns="http://www.w3.org/2000/svg">
<g id="Layer_1" clip-path="url(#clip0_355_1176)">
<g id="Group">
<g id="Group_2">
<path id="Vector" d="M46.5777 36.2551C46.5777 39.9319 49.7872 37.5771 48.8157 40.0825C45.9044 47.5929 38.7046 50.206 27.6743 50.206C16.0384 50.206 4.54389 49.2253 1.88162 40.7251C1.52501 39.5845 -1.0973 31.3794 0.525887 30.159C1.58034 29.3689 4.72527 32.3478 4.72527 30.8353C4.72527 25.7444 9.33045 20.4075 10.6862 22.8454C12.0419 25.2832 16.0507 11.2894 18.4056 8.21825C21.5197 4.15413 29.027 -0.11904 29.5711 0.339019C30.1306 0.809375 29.9093 4.23406 31.68 5.64512C33.6106 7.18531 37.5795 6.79181 39.2641 9.16818C40.4231 10.8037 39.3502 13.3983 40.4846 14.9938C41.3054 16.1467 42.7103 13.9271 43.3283 15.1291C44.1706 16.7615 42.1201 20.8133 42.7872 22.3074C44.5764 26.31 46.1904 25.3171 47.3924 28.4036C48.6159 31.5393 46.5808 35.6864 46.5808 36.2582L46.5777 36.2551Z" fill="#5A1B09"/>
<path id="Vector_2" d="M41.911 35.4097C41.911 46.0004 36.2237 49.3421 25.6361 49.3421C15.0485 49.3421 9.11218 45.9974 9.11218 35.4097C9.11218 27.8871 18.6054 23.325 23.1675 20.3676C26.3309 18.314 26.4662 15.6702 26.1157 13.9609C26.0112 13.4598 26.6045 13.1094 26.998 13.4414C30.2597 16.1866 43.0178 26.9034 39.1965 34.6719C38.388 36.3166 41.908 33.7497 41.908 35.4128L41.911 35.4097Z" fill="#A0756B"/>
</g>
<g id="Group_3">
<g id="Group_4">
<path id="Vector_3" d="M35.7194 42.8617C36.3803 42.5389 36.8568 41.921 37.1735 41.2538C37.4594 40.6513 37.6285 39.9412 37.3887 39.3202C36.5371 37.1282 33.8656 38.6469 33.2415 40.1318C32.5714 41.7242 33.8718 43.7624 35.7194 42.8586V42.8617Z" fill="#5A1B09"/>
<path id="Vector_4" d="M33.6996 41.1278C33.6504 41.3645 33.7273 41.6627 33.8626 41.838C33.9978 42.0132 34.1854 42.0624 34.3391 41.9917C34.5573 41.8933 34.7049 41.5459 34.668 41.1739C34.6311 40.8019 34.4036 40.4546 34.17 40.43C33.9363 40.4054 33.7335 40.7374 33.7765 41.1094" fill="white"/>
</g>
<g id="Group_5">
<path id="Vector_5" d="M16.9666 42.8617C16.3056 42.5389 15.8291 41.921 15.5125 41.2538C15.2266 40.6513 15.0575 39.9412 15.2973 39.3202C16.1489 37.1282 18.8204 38.6469 19.4444 40.1318C20.1146 41.7242 18.8142 43.7624 16.9666 42.8586V42.8617Z" fill="#5A1B09"/>
<path id="Vector_6" d="M18.9862 41.1278C19.0354 41.3645 18.9586 41.6627 18.8233 41.838C18.688 42.0132 18.5005 42.0624 18.3468 41.9917C18.1285 41.8933 17.981 41.5459 18.0179 41.1739C18.0548 40.8019 18.2822 40.4546 18.5159 40.43C18.7495 40.4054 18.9524 40.7374 18.9094 41.1094" fill="white"/>
</g>
<path id="Vector_7" d="M25.1165 41.7396C25.9465 42.4067 27.2131 42.459 28.0954 41.8595" stroke="#5A1B09" stroke-width="0.617918" stroke-linecap="round" stroke-linejoin="round"/>
<path id="Vector_8" d="M34.3145 35.8064L33.9733 35.9386" stroke="#5A1B09" stroke-width="0.617918" stroke-linecap="round" stroke-linejoin="round"/>
<path id="Vector_9" d="M18.9312 35.8064L19.2724 35.9386" stroke="#5A1B09" stroke-width="0.617918" stroke-linecap="round" stroke-linejoin="round"/>
</g>
</g>
<g id="Group_6">
<path id="Vector_10" d="M8.88147 36.6979C9.70229 36.083 16.4994 35.7664 25.2148 38.3579C25.7405 38.5147 26.2969 38.5178 26.8257 38.3702C35.8209 35.8401 42.3382 35.6649 43.4664 36.4857C43.4664 36.4857 41.7756 43.6763 35.8516 44.8415C31.022 45.7914 28.3413 41.9855 28.0246 41.3522C27.665 40.6329 25.9096 39.1326 24.4278 41.2477C22.946 43.3628 20.3022 45.4778 17.2372 44.9491C10.3079 43.7532 8.88147 36.7009 8.88147 36.7009V36.6979Z" fill="#FFA9E7"/>
<path id="Vector_11" d="M14.5933 37.6478C17.1326 37.4356 21.6794 38.2503 23.0013 40.1164C23.5824 42.2991 20.3052 44.2051 18.1902 43.993C16.0751 43.7808 14.1722 43.6763 12.1616 39.1265C11.845 37.6447 14.5933 37.6447 14.5933 37.6447V37.6478Z" fill="#3A3A30"/>
<path id="Vector_12" d="M37.8498 37.6478C35.3105 37.4356 30.7638 38.2503 29.4418 40.1164C28.8608 42.2991 32.1379 44.2051 34.253 43.993C36.3681 43.7808 38.271 43.6763 40.2815 39.1265C40.5982 37.6447 37.8498 37.6447 37.8498 37.6447V37.6478Z" fill="#3A3A30"/>
<path id="Vector_13" d="M10.0742 37.1713C10.4698 37.1713 10.7905 37.0529 10.7905 36.9069C10.7905 36.7609 10.4698 36.6425 10.0742 36.6425C9.67861 36.6425 9.35791 36.7609 9.35791 36.9069C9.35791 37.0529 9.67861 37.1713 10.0742 37.1713Z" fill="#9E9E9A"/>
<path id="Vector_14" d="M42.332 37.1713C42.7276 37.1713 43.0483 37.0529 43.0483 36.9069C43.0483 36.7609 42.7276 36.6425 42.332 36.6425C41.9364 36.6425 41.6157 36.7609 41.6157 36.9069C41.6157 37.0529 41.9364 37.1713 42.332 37.1713Z" fill="#9E9E9A"/>
</g>
<g id="Group_7">
<g id="Group_8">
<g id="Group_9">
<path id="Vector_15" d="M20.1364 29.8025C20.1364 29.8025 20.1333 29.8209 20.121 29.8578C20.0165 30.2544 19.2941 32.7199 17.425 32.6707C15.3898 32.6185 14.6336 32.9044 14.6336 32.9044C14.609 32.8706 14.5844 32.8306 14.5598 32.7937C14.529 32.7476 14.5014 32.7015 14.4737 32.6554C14.36 32.4617 14.2524 32.2465 14.1478 32.0129C14.1263 31.9637 14.1048 31.9176 14.0863 31.8684C14.0187 31.7054 13.9511 31.5333 13.8896 31.3519C13.8712 31.3027 13.8527 31.2505 13.8343 31.1982C13.7851 31.0537 13.7359 30.9061 13.6898 30.7524C13.6744 30.7032 13.6621 30.6541 13.6467 30.6018C13.6068 30.4665 13.5699 30.3343 13.533 30.1991C13.5176 30.1499 13.5053 30.0976 13.493 30.0484C13.284 29.2584 13.1118 28.4283 12.9766 27.669C12.6999 26.1104 12.5769 24.8499 12.5769 24.8499L13.3547 24.2043C13.6314 25.0282 14.2093 25.7968 14.9133 26.4823C15.6358 27.1894 16.4965 27.8073 17.3051 28.3115C17.3542 28.3422 17.4004 28.373 17.4465 28.4037C17.5848 28.4867 17.7231 28.5697 17.8584 28.6497C17.9076 28.6773 17.9537 28.705 18.0029 28.7296C18.1966 28.8403 18.3872 28.9448 18.5655 29.0401C18.6147 29.0678 18.6639 29.0954 18.7161 29.12C18.8575 29.1938 18.9928 29.2645 19.1188 29.3291C19.1711 29.3537 19.2203 29.3783 19.2695 29.4029C19.6076 29.5689 19.869 29.6857 20.0165 29.7502C20.0995 29.7841 20.1426 29.8025 20.1426 29.8025H20.1364Z" fill="#992342"/>
<path id="Vector_16" d="M14.9102 26.4792C14.3384 27.0971 13.656 27.4629 12.9766 27.6658C12.6999 26.1072 12.5769 24.8468 12.5769 24.8468L13.3547 24.2012C13.6314 25.0251 14.2093 25.7936 14.9133 26.4792H14.9102Z" fill="#77152A"/>
<g id="Group_10">
<path id="Vector_17" d="M17.4465 28.4006C16.266 29.2767 14.9564 29.8762 13.533 30.1959C13.5176 30.1467 13.5053 30.0944 13.493 30.0453C14.8795 29.7348 16.1553 29.1537 17.3051 28.3114C17.3543 28.3421 17.4004 28.3729 17.4465 28.4036V28.4006Z" fill="#AF3159"/>
<path id="Vector_18" d="M17.9998 28.7264C16.8009 29.8055 15.2699 30.3527 13.6898 30.7493C13.6744 30.7001 13.6621 30.6509 13.6467 30.5986C15.1931 30.2113 16.681 29.6856 17.8584 28.6465C17.9045 28.6742 17.9537 28.7018 18.0029 28.7264H17.9998Z" fill="#AF3159"/>
<path id="Vector_19" d="M18.713 29.1168C18.0644 29.6487 17.3388 30.0637 16.5641 30.4141C15.7341 30.7892 14.8149 31.238 13.8896 31.3456C13.8711 31.2964 13.8527 31.2442 13.8342 31.1919C14.8395 31.0874 15.9063 30.5617 16.7793 30.1436C17.4218 29.8393 18.0182 29.4765 18.5624 29.0369C18.6116 29.0646 18.6608 29.0922 18.713 29.1168Z" fill="#AF3159"/>
<path id="Vector_20" d="M19.2663 29.3996C18.5685 30.0022 17.8706 30.5863 17.0191 30.9736C16.103 31.3948 15.1315 31.7545 14.1508 32.0066C14.1293 31.9574 14.1078 31.9113 14.0894 31.8621C15.067 31.6162 16.0323 31.2565 16.9422 30.8415C17.76 30.4695 18.4425 29.9069 19.1188 29.3259C19.171 29.3505 19.2202 29.3751 19.2694 29.3996H19.2663Z" fill="#AF3159"/>
<path id="Vector_21" d="M20.1363 29.8024C20.1363 29.8024 20.1333 29.8208 20.121 29.8577C18.5162 31.2842 16.6379 32.2771 14.5597 32.7936C14.529 32.7475 14.5013 32.7014 14.4736 32.6553C16.5426 32.148 18.4148 31.1673 20.0103 29.7501C20.0933 29.7839 20.1363 29.8055 20.1363 29.8055V29.8024Z" fill="#AF3159"/>
</g>
</g>
<g id="Group_11">
<path id="Vector_22" d="M13.1733 33.1656C13.1733 33.1656 11.6638 34.34 9.65638 33.4792C7.81492 32.6891 7.04636 32.7998 6.93262 32.8213C7.05866 32.7721 7.22467 32.5569 7.35379 32.394C7.39682 32.3386 7.43372 32.2864 7.46446 32.2526C7.46446 32.2526 7.46753 32.2495 7.47061 32.2464C7.59665 32.1111 7.71962 31.9728 7.83951 31.8345C7.88563 31.7853 7.92866 31.733 7.9717 31.6808C7.98093 31.6715 7.99015 31.6592 7.99937 31.65C8.12542 31.4994 8.25146 31.3457 8.36828 31.192C8.40824 31.1428 8.44513 31.0966 8.48202 31.0475C8.60807 30.8845 8.72489 30.7216 8.84171 30.5556C8.84478 30.5494 8.85093 30.5464 8.854 30.5402C8.88782 30.491 8.92164 30.4388 8.95545 30.3865C9.46577 29.6241 9.89309 28.8064 10.2159 27.9456C10.2251 27.9241 10.2374 27.8841 10.2558 27.8288C10.4557 27.1955 11.2457 24.4809 11.2488 24.4809L12.045 24.5855C12.3894 25.2034 12.6291 26.4054 12.7952 27.7181C12.9151 28.6342 12.995 29.6026 13.0503 30.4634C13.0534 30.5156 13.0565 30.5679 13.0595 30.6201C13.0688 30.7585 13.0749 30.8938 13.0811 31.0259C13.0872 31.1028 13.0903 31.1766 13.0964 31.2473C13.1026 31.361 13.1087 31.4717 13.1118 31.5793C13.1118 31.6316 13.1149 31.6838 13.1179 31.7361C13.1302 31.9759 13.1395 32.1941 13.1456 32.3817C13.1456 32.437 13.1456 32.4893 13.1487 32.5385C13.1641 32.932 13.1671 33.1656 13.1671 33.1656H13.1733Z" fill="#992342"/>
<path id="Vector_23" d="M12.0453 24.5855C12.3896 25.2034 12.6294 26.4054 12.7954 27.7181C11.7932 27.9794 10.8248 27.9118 10.2561 27.8288C10.4559 27.1955 11.246 24.4809 11.2491 24.4809L12.0453 24.5855Z" fill="#77152A"/>
<g id="Group_12">
<path id="Vector_24" d="M13.1549 32.5384C11.2243 32.809 9.28757 32.6368 7.35388 32.397C7.39692 32.3417 7.43381 32.2894 7.46455 32.2556C9.36135 32.4862 11.2581 32.6522 13.1488 32.3817C13.1488 32.437 13.1488 32.4893 13.1519 32.5384H13.1549Z" fill="#AF3159"/>
<path id="Vector_25" d="M13.1211 31.7361C11.3627 31.8375 9.60113 31.8713 7.8396 31.8344C7.88571 31.7853 7.92875 31.733 7.97179 31.6807C9.68721 31.7115 11.4026 31.6807 13.115 31.5793C13.115 31.6315 13.118 31.6838 13.1211 31.7361Z" fill="#AF3159"/>
<path id="Vector_26" d="M13.0966 31.2473C12.6016 31.2627 12.0882 31.2381 11.7378 31.2565C10.6126 31.3088 9.48745 31.2842 8.36536 31.195C8.40532 31.1458 8.44221 31.0997 8.4791 31.0505C9.36448 31.1182 10.2499 31.1428 11.1414 31.1243C11.7009 31.109 12.2573 31.0751 12.8168 31.0321C12.8599 31.029 12.9582 31.029 13.0843 31.029C13.0904 31.1059 13.0935 31.1797 13.0997 31.2504L13.0966 31.2473Z" fill="#AF3159"/>
<path id="Vector_27" d="M13.0597 30.6201C11.6578 30.5986 10.256 30.571 8.85413 30.5402C8.88794 30.491 8.92176 30.4388 8.95558 30.3865C10.3205 30.4203 11.6855 30.4449 13.0504 30.4664C13.0535 30.5187 13.0566 30.571 13.0597 30.6232V30.6201Z" fill="#AF3159"/>
</g>
</g>
</g>
<g id="Group_13">
<path id="Vector_28" d="M11.0366 22.7747C11.0366 22.7747 9.68699 19.7743 7.8855 18.1941C6.08401 16.614 3.50781 16.3065 3.02823 17.0136C2.76077 17.4102 3.08972 18.148 3.22191 18.5384C3.52318 19.433 3.90746 20.3184 3.96587 21.2714C4.02735 22.2798 3.60311 23.2481 3.68611 24.2626C3.78449 25.4308 4.39626 26.4084 5.61365 26.6144C5.65669 26.6206 5.69665 26.6267 5.73969 26.6328C8.43579 26.971 11.47 24.527 11.47 24.527L11.0335 22.7747H11.0366Z" fill="#992342"/>
<path id="Vector_29" d="M11.2458 24.3518C11.2458 24.3518 5.95201 24.6654 5.79522 25.6553C5.63843 26.6452 11.2458 24.3518 11.2458 24.3518Z" fill="#591919"/>
<path id="Vector_30" opacity="0.5" d="M10.7477 23.159C10.7477 23.159 9.70247 20.5551 8.90009 20.7058C8.09772 20.8564 10.7477 23.159 10.7477 23.159Z" fill="#77152A"/>
<path id="Vector_31" opacity="0.5" d="M10.9875 23.3588C10.9414 23.3742 7.67346 20.6935 6.6436 21.4374C5.61373 22.1783 10.9875 23.3588 10.9875 23.3588Z" fill="#77152A"/>
<path id="Vector_32" d="M6.8403 17.7976C6.22239 17.3426 4.90355 16.6017 4.06736 16.9337C3.05287 17.1366 3.63697 18.5477 3.92287 19.3377C4.08273 19.7743 4.36556 20.0479 4.85128 20.011C4.97733 20.0018 5.09415 19.9557 5.21404 19.9249C5.63521 19.8112 6.01027 19.8419 6.4468 19.9311C6.6743 19.9772 6.83723 20.0909 7.08009 20.0417C8.35282 19.7743 7.42748 18.231 6.8403 17.7976Z" fill="#AF3159"/>
<path id="Vector_33" d="M6.99725 24.1089C6.99417 24.0843 6.9788 24.0597 6.94191 24.0567C6.93576 24.0567 6.92961 24.0567 6.92347 24.0567C6.91424 24.0505 6.90195 24.0474 6.8835 24.0505C6.71749 24.0659 6.55148 24.0874 6.38548 24.1089C6.37011 24.0997 6.35166 24.0966 6.32707 24.1059C6.30247 24.112 6.28095 24.1243 6.25636 24.1305C5.85979 24.195 5.46936 24.2995 5.11275 24.4901C4.82685 24.6438 4.30423 24.9728 4.44872 25.3786C4.55632 25.6799 4.97134 25.6891 5.19883 25.5077C5.4048 25.3417 5.55236 25.0896 5.76448 24.9113C6.1088 24.6254 6.407 24.4071 6.84968 24.2995C6.88657 24.2903 6.90195 24.2626 6.90502 24.235C6.94806 24.235 6.98188 24.2104 7.0034 24.1612C7.01262 24.1397 7.00647 24.1243 6.99725 24.1089Z" fill="#AF3159"/>
<path id="Vector_34" d="M7.5351 23.9798C7.49206 23.9583 7.44902 23.9583 7.41521 23.9737C7.37524 23.9798 7.34143 24.0044 7.31991 24.0444C7.27687 24.1243 7.38754 24.1981 7.4398 24.1397C7.46132 24.1397 7.47977 24.1397 7.49821 24.1274C7.49821 24.1274 7.50436 24.1212 7.50743 24.1182C7.56892 24.1028 7.60273 24.0137 7.53203 23.9768L7.5351 23.9798Z" fill="#AF3159"/>
</g>
<g id="Group_14">
<path id="Vector_35" d="M13.0901 22.8762C13.0593 22.6364 13.2622 22.2336 13.336 22.0154C13.8463 20.5029 14.7963 19.1195 16.0659 18.1265C16.7822 17.5639 19.4629 15.7378 20.1147 17.1581C20.4959 17.9912 19.2692 20.1493 19.8226 22.1076C20.376 24.0659 17.9197 29.3628 13.2622 24.2104L13.0901 22.8762Z" fill="#992342"/>
<path id="Vector_36" d="M13.2346 24.2012C13.2346 24.2012 17.8767 24.9359 17.5908 25.5661C17.3049 26.1963 13.2346 24.2012 13.2346 24.2012Z" fill="#591919"/>
<path id="Vector_37" opacity="0.5" d="M12.4169 22.9499C12.4169 22.9499 16.607 23.5648 16.8315 22.6825C17.0589 21.8002 12.4169 22.9499 12.4169 22.9499Z" fill="#77152A"/>
<path id="Vector_38" opacity="0.5" d="M12.7949 23.159C12.7949 23.159 16.6961 21.4343 16.4502 20.469C16.2042 19.5037 12.7949 23.159 12.7949 23.159Z" fill="#77152A"/>
<path id="Vector_39" d="M17.5231 18.5692C16.4317 18.7997 15.5956 19.4054 14.9039 20.177C14.8516 20.2262 14.7993 20.2723 14.7501 20.3215C14.7348 20.3369 14.7286 20.3553 14.7286 20.3768C14.4212 20.7427 14.1445 21.1362 13.8832 21.545C13.834 21.6004 13.7971 21.6588 13.7787 21.7141C13.7787 21.7172 13.7725 21.7233 13.7725 21.7264C13.6803 21.8371 13.5881 21.9508 13.4959 22.0707C13.4713 22.1015 13.4836 22.1353 13.5082 22.1599C13.4313 22.289 13.3545 22.4181 13.2807 22.5472C13.2315 22.6333 13.3637 22.7132 13.4159 22.6272C13.5604 22.3812 13.7049 22.1322 13.8525 21.8893C14.0277 21.6803 14.206 21.4774 14.3935 21.2837C14.4366 21.2407 14.4796 21.1976 14.5227 21.1515C14.8854 20.7826 15.2666 20.4383 15.6724 20.1186C16.2903 19.7036 17.0128 19.3654 17.4985 18.8243C17.5139 18.8151 17.5292 18.809 17.5446 18.7997C17.5723 18.7844 17.5846 18.7598 17.5815 18.7321C17.5877 18.7229 17.5969 18.7137 17.6061 18.7044C17.6522 18.643 17.6122 18.5569 17.5292 18.5753L17.5231 18.5692Z" fill="#AF3159"/>
<path id="Vector_40" d="M17.3172 24.4871C17.2957 24.4809 17.2742 24.4809 17.2557 24.484C17.2373 24.4625 17.2127 24.4502 17.182 24.4563C17.102 24.4686 17.0744 24.5701 17.1205 24.6346C17.182 24.7238 17.2895 24.6715 17.3541 24.6193C17.3971 24.5824 17.3756 24.4994 17.3203 24.4901L17.3172 24.4871Z" fill="#AF3159"/>
<path id="Vector_41" d="M18.3255 25.2372C18.2609 25.105 18.0211 24.9113 17.8736 25.0466C17.8029 25.1111 17.8275 25.1849 17.849 25.2618C17.8644 25.3079 17.8859 25.3448 17.9043 25.3847C17.8828 25.6245 17.7537 25.8459 17.5416 25.978C17.5262 25.9873 17.517 25.9996 17.5139 26.0119C17.3448 26.0518 17.1665 26.0641 16.9882 26.0641C16.8867 26.0641 16.8867 26.2178 16.9882 26.2209C17.3633 26.224 17.7506 26.1686 18.055 25.9289C18.2578 25.769 18.4607 25.5077 18.3286 25.2402L18.3255 25.2372Z" fill="#AF3159"/>
</g>
<path id="Vector_42" d="M11.0151 24.8652C11.2088 25.0373 11.4178 25.1695 11.6238 25.2341C12.7336 25.5876 13.7327 24.6807 13.8249 23.5955C13.8618 23.1559 13.6036 22.7901 13.1978 22.6395C12.6167 22.4212 12.1187 22.9254 11.5531 22.8731C11.1688 22.8362 10.7107 22.3013 10.4095 22.7901C10.0129 23.4357 10.4279 24.3456 11.012 24.8683L11.0151 24.8652Z" fill="#992342"/>
</g>
</g>
<defs>
<clipPath id="clip0_355_1176">
<rect width="49" height="49.9007" fill="white" transform="translate(0 0.305237)"/>
</clipPath>
</defs>
</svg>
