<svg width="48" height="52" viewBox="0 0 48 52" fill="none" xmlns="http://www.w3.org/2000/svg">
<g id="maskota 1 1">
<g id="Layer 1">
<g id="Group">
<g id="Group_2">
<path id="Vector" d="M43.7515 35.915C43.7515 39.1954 46.615 37.0944 45.7483 39.3298C43.1508 46.0306 36.727 48.362 26.8856 48.362C16.5039 48.362 6.24837 47.4871 3.87306 39.9031C3.55488 38.8855 1.21523 31.5648 2.66346 30.4759C3.60426 29.771 6.4102 32.4288 6.4102 31.0793C6.4102 26.5371 10.519 21.7755 11.7286 23.9506C12.9382 26.1257 16.5149 13.6402 18.6159 10.9001C21.3944 7.27405 28.0925 3.46148 28.578 3.87016C29.0772 4.28982 28.8797 7.34536 30.4596 8.60433C32.1821 9.9785 35.7231 9.62742 37.2262 11.7476C38.2603 13.2068 37.303 15.5218 38.3151 16.9454C39.0475 17.9739 40.3009 15.9936 40.8523 17.066C41.6038 18.5225 39.7743 22.1376 40.3695 23.4706C41.9659 27.0418 43.4059 26.1559 44.4783 28.9097C45.57 31.7074 43.7542 35.4075 43.7542 35.9177L43.7515 35.915Z" fill="#BFC330"/>
<path id="Vector_2" d="M39.5876 35.1607C39.5876 44.6099 34.5134 47.5914 25.067 47.5914C15.6206 47.5914 10.3241 44.6071 10.3241 35.1607C10.3241 28.449 18.794 24.3786 22.8644 21.7399C25.6868 19.9077 25.8075 17.5489 25.4948 16.0238C25.4016 15.5767 25.931 15.2641 26.282 15.5603C29.1922 18.0097 40.5751 27.5713 37.1657 34.5025C36.4443 35.9699 39.5849 33.6796 39.5849 35.1635L39.5876 35.1607Z" fill="#D8D887"/>
</g>
<g id="Group_3">
<g id="Group_4">
<path id="Vector_3" d="M34.0635 41.8094C34.6532 41.5214 35.0784 40.9701 35.3609 40.3749C35.616 39.8373 35.7668 39.2037 35.5529 38.6497C34.7931 36.694 32.4096 38.049 31.8528 39.3738C31.2548 40.7946 32.4151 42.6131 34.0635 41.8067V41.8094Z" fill="#5A1B09"/>
<path id="Vector_4" d="M32.2615 40.2624C32.2176 40.4736 32.2862 40.7397 32.4069 40.896C32.5276 41.0524 32.6949 41.0963 32.832 41.0332C33.0268 40.9454 33.1584 40.6355 33.1255 40.3036C33.0926 39.9717 32.8896 39.6618 32.6812 39.6398C32.4727 39.6179 32.2917 39.9141 32.3301 40.246" fill="white"/>
</g>
<g id="Group_5">
<path id="Vector_5" d="M17.3321 41.8094C16.7424 41.5214 16.3172 40.9701 16.0347 40.3749C15.7796 39.8373 15.6288 39.2037 15.8427 38.6497C16.6025 36.694 18.986 38.049 19.5428 39.3738C20.1408 40.7946 18.9805 42.6131 17.3321 41.8067V41.8094Z" fill="#5A1B09"/>
<path id="Vector_6" d="M19.1342 40.2624C19.1781 40.4736 19.1095 40.7397 18.9888 40.896C18.8681 41.0524 18.7008 41.0963 18.5637 41.0332C18.3689 40.9454 18.2373 40.6355 18.2702 40.3036C18.3031 39.9717 18.5061 39.6618 18.7145 39.6398C18.923 39.6179 19.104 39.9141 19.0656 40.246" fill="white"/>
</g>
<path id="Vector_7" d="M24.6035 40.8083C25.3441 41.4035 26.4741 41.4501 27.2613 40.9153" stroke="#5A1B09" stroke-width="0.551314" stroke-linecap="round" stroke-linejoin="round"/>
<path id="Vector_8" d="M32.8102 35.5146L32.5057 35.6325" stroke="#5A1B09" stroke-width="0.551314" stroke-linecap="round" stroke-linejoin="round"/>
<path id="Vector_9" d="M19.0848 35.5146L19.3893 35.6325" stroke="#5A1B09" stroke-width="0.551314" stroke-linecap="round" stroke-linejoin="round"/>
</g>
</g>
</g>
</g>
</svg>
