<svg width="46" height="46" viewBox="0 0 46 46" fill="none" xmlns="http://www.w3.org/2000/svg">
<path d="M42.3064 33.1145C42.3064 36.3893 45.165 34.2919 44.2997 36.5235C41.7067 43.2126 35.2941 45.54 25.4698 45.54C15.1061 45.54 4.86841 44.6665 2.49722 37.0957C2.1796 36.0799 -0.155997 28.7719 1.28972 27.6849C2.22888 26.9812 5.02995 29.6344 5.02995 28.2873C5.02995 23.753 9.13162 18.9996 10.3391 21.171C11.5466 23.3423 15.1171 10.8785 17.2145 8.1431C19.9882 4.52333 26.6746 0.717382 27.1592 1.12536C27.6576 1.54429 27.4604 4.59452 29.0376 5.85131C30.7571 7.2231 34.292 6.87262 35.7925 8.98917C36.8247 10.4458 35.8691 12.7568 36.8795 14.1779C37.6105 15.2046 38.8619 13.2277 39.4122 14.2983C40.1625 15.7523 38.3361 19.3611 38.9303 20.6918C40.5239 24.2568 41.9614 23.3724 43.032 26.1214C44.1217 28.9143 42.3091 32.608 42.3091 33.1173L42.3064 33.1145Z" fill="#5A1B09"/>
<path d="M38.1499 32.3615C38.1499 41.7943 33.0844 44.7706 23.6544 44.7706C14.2244 44.7706 8.93713 41.7916 8.93713 32.3615C8.93713 25.6614 17.3924 21.5981 21.4557 18.964C24.2732 17.135 24.3937 14.7802 24.0815 13.2579C23.9884 12.8115 24.5169 12.4994 24.8674 12.7951C27.7725 15.2402 39.1356 24.7852 35.7321 31.7044C35.012 33.1693 38.1471 30.883 38.1471 32.3643L38.1499 32.3615Z" fill="#A0756B"/>
<path d="M32.6353 38.9987C33.224 38.7112 33.6484 38.1608 33.9305 37.5667C34.1851 37.03 34.3357 36.3975 34.1221 35.8444C33.3637 33.8921 30.9843 35.2448 30.4284 36.5673C29.8315 37.9856 30.9897 39.801 32.6353 38.996V38.9987Z" fill="#5A1B09"/>
<path d="M30.8364 37.4544C30.7926 37.6652 30.8611 37.9308 30.9815 38.0869C31.102 38.243 31.269 38.2868 31.406 38.2238C31.6004 38.1362 31.7318 37.8268 31.6989 37.4955C31.6661 37.1642 31.4635 36.8548 31.2554 36.8329C31.0473 36.811 30.8665 37.1067 30.9049 37.438" fill="white"/>
<path d="M15.933 38.9987C15.3443 38.7112 14.9199 38.1608 14.6378 37.5667C14.3832 37.03 14.2326 36.3975 14.4462 35.8444C15.2046 33.8921 17.584 35.2448 18.1399 36.5673C18.7368 37.9856 17.5786 39.801 15.933 38.996V38.9987Z" fill="#5A1B09"/>
<path d="M17.7319 37.4544C17.7757 37.6652 17.7073 37.9308 17.5868 38.0869C17.4663 38.243 17.2993 38.2868 17.1624 38.2238C16.968 38.1362 16.8366 37.8268 16.8694 37.4955C16.9023 37.1642 17.1049 36.8548 17.313 36.8329C17.5211 36.811 17.7018 37.1067 17.6635 37.438" fill="white"/>
<path d="M23.1917 37.9993C23.9309 38.5935 25.059 38.64 25.8449 38.1061" stroke="#5A1B09" stroke-width="0.550357" stroke-linecap="round" stroke-linejoin="round"/>
<path d="M31.384 32.7148L31.0801 32.8325" stroke="#5A1B09" stroke-width="0.550357" stroke-linecap="round" stroke-linejoin="round"/>
<path d="M17.6826 32.7148L17.9865 32.8325" stroke="#5A1B09" stroke-width="0.550357" stroke-linecap="round" stroke-linejoin="round"/>
</svg>
