<svg width="41" height="42" viewBox="0 0 41 42" fill="none" xmlns="http://www.w3.org/2000/svg">
<path d="M37.5369 29.9166C37.5369 32.8035 40.0569 30.9545 39.2942 32.9217C37.0083 38.8186 31.3552 40.8703 22.6945 40.8703C13.5583 40.8703 4.53315 40.1003 2.44281 33.4262C2.16281 32.5307 0.10384 26.0883 1.37832 25.13C2.20625 24.5097 4.67556 26.8486 4.67556 25.661C4.67556 21.6638 8.29143 17.4735 9.35591 19.3876C10.4204 21.3017 13.568 10.3141 15.4169 7.90276C17.8621 4.71173 23.7566 1.35655 24.1838 1.71621C24.6231 2.08552 24.4494 4.77449 25.8397 5.88242C27.3556 7.09173 30.4718 6.78276 31.7945 8.64862C32.7045 9.93276 31.8621 11.97 32.7528 13.2228C33.3973 14.1279 34.5004 12.3852 34.9856 13.329C35.6469 14.6107 34.0369 17.7921 34.5607 18.9652C35.9656 22.1079 37.2328 21.3283 38.1766 23.7517C39.1373 26.2138 37.5394 29.47 37.5394 29.919L37.5369 29.9166Z" fill="#D35322"/>
<path d="M33.8728 29.2528C33.8728 37.5683 29.4072 40.1921 21.0941 40.1921C12.781 40.1921 8.12 37.5659 8.12 29.2528C8.12 23.3462 15.5738 19.7641 19.1559 17.4421C21.6397 15.8297 21.7459 13.7538 21.4707 12.4117C21.3886 12.0183 21.8545 11.7431 22.1634 12.0038C24.7245 14.1593 34.7417 22.5738 31.7414 28.6735C31.1065 29.9648 33.8703 27.9493 33.8703 29.2552L33.8728 29.2528Z" fill="#C40B61"/>
<path d="M29.0113 35.1038C29.5303 34.8504 29.9045 34.3652 30.1531 33.8414C30.3776 33.3683 30.5103 32.8107 30.322 32.3231C29.6534 30.6021 27.5558 31.7945 27.0658 32.9604C26.5396 34.2107 27.5607 35.8111 29.0113 35.1014V35.1038Z" fill="#5A1B09"/>
<path d="M27.4256 33.7424C27.3869 33.9283 27.4473 34.1625 27.5535 34.3C27.6597 34.4376 27.8069 34.4762 27.9276 34.4207C28.099 34.3435 28.2149 34.0707 28.1859 33.7787C28.1569 33.4866 27.9783 33.2138 27.7949 33.1945C27.6114 33.1752 27.4521 33.4359 27.4859 33.728" fill="white"/>
<path d="M14.2873 35.1038C13.7683 34.8504 13.3942 34.3652 13.1456 33.8414C12.9211 33.3683 12.7883 32.8107 12.9766 32.3231C13.6452 30.6021 15.7428 31.7945 16.2328 32.9604C16.759 34.2107 15.738 35.8111 14.2873 35.1014V35.1038Z" fill="#5A1B09"/>
<path d="M15.8731 33.7424C15.9117 33.9283 15.8513 34.1625 15.7451 34.3C15.6389 34.4376 15.4917 34.4762 15.371 34.4207C15.1996 34.3435 15.0837 34.0707 15.1127 33.7787C15.1417 33.4866 15.3203 33.2138 15.5037 33.1945C15.6872 33.1752 15.8465 33.4359 15.8127 33.728" fill="white"/>
<path d="M20.6863 34.2228C21.338 34.7466 22.3325 34.7876 23.0252 34.3169" stroke="#5A1B09" stroke-width="0.485172" stroke-linecap="round" stroke-linejoin="round"/>
<path d="M27.9083 29.5642L27.6404 29.668" stroke="#5A1B09" stroke-width="0.485172" stroke-linecap="round" stroke-linejoin="round"/>
<path d="M15.8297 29.5642L16.0976 29.668" stroke="#5A1B09" stroke-width="0.485172" stroke-linecap="round" stroke-linejoin="round"/>
</svg>
