<svg width="45" height="45" viewBox="0 0 45 45" fill="none" xmlns="http://www.w3.org/2000/svg">
<g id="Layer_1" clip-path="url(#clip0_355_1045)">
<g id="Group">
<path id="Vector" d="M42.0034 32.4193C42.0034 35.7349 44.8976 33.6113 44.0216 35.8708C41.3962 42.6435 34.9035 45 24.9565 45C14.4633 45 4.09767 44.1156 1.69686 36.4502C1.37527 35.4217 -0.9895 28.0224 0.474275 26.9218C1.42517 26.2093 4.26124 28.8957 4.26124 27.5317C4.26124 22.9408 8.41415 18.128 9.63673 20.3265C10.8593 22.5249 14.4744 9.9054 16.598 7.13587C19.4063 3.47088 26.1763 -0.382614 26.667 0.0304586C27.1715 0.454621 26.9719 3.54296 28.5688 4.81545C30.3098 6.20437 33.8888 5.84952 35.4081 7.99251C36.4532 9.46737 35.4857 11.8072 36.5087 13.246C37.2489 14.2856 38.5158 12.284 39.073 13.368C39.8326 14.8401 37.9835 18.494 38.5851 19.8413C40.1986 23.4509 41.654 22.5554 42.738 25.3388C43.8414 28.1665 42.0061 31.9064 42.0061 32.422L42.0034 32.4193Z" fill="#9EC6AA"/>
<path id="Vector_2" d="M37.7948 31.6569C37.7948 41.2075 32.6661 44.221 23.1183 44.221C13.5705 44.221 8.21716 41.2047 8.21716 31.6569C8.21716 24.8731 16.778 20.759 20.8921 18.092C23.7448 16.2401 23.8668 13.856 23.5508 12.3146C23.4565 11.8627 23.9916 11.5466 24.3464 11.846C27.2878 14.3217 38.7929 23.9859 35.3469 30.9916C34.6178 32.4747 37.7921 30.1599 37.7921 31.6597L37.7948 31.6569Z" fill="#CFE5D4"/>
</g>
<g id="Group_2">
<g id="Group_3">
<path id="Vector_3" d="M32.2114 38.377C32.8074 38.0859 33.2372 37.5286 33.5227 36.927C33.7805 36.3837 33.933 35.7433 33.7168 35.1833C32.9488 33.2066 30.5397 34.5761 29.9769 35.9152C29.3726 37.3512 30.5453 39.1892 32.2114 38.3742V38.377Z" fill="#5A1B09"/>
<path id="Vector_4" d="M30.3899 36.8134C30.3456 37.0269 30.4149 37.2958 30.5369 37.4538C30.6589 37.6118 30.828 37.6562 30.9666 37.5924C31.1634 37.5037 31.2965 37.1904 31.2632 36.855C31.2299 36.5195 31.0248 36.2063 30.8141 36.1841C30.6034 36.1619 30.4204 36.4613 30.4592 36.7968" fill="white"/>
</g>
<g id="Group_4">
<path id="Vector_5" d="M15.3003 38.377C14.7043 38.0859 14.2746 37.5286 13.989 36.927C13.7312 36.3837 13.5787 35.7433 13.795 35.1833C14.5629 33.2066 16.972 34.5761 17.5348 35.9152C18.1392 37.3512 16.9665 39.1892 15.3003 38.3742V38.377Z" fill="#5A1B09"/>
<path id="Vector_6" d="M17.1218 36.8134C17.1661 37.0269 17.0968 37.2958 16.9748 37.4538C16.8529 37.6118 16.6838 37.6562 16.5451 37.5924C16.3483 37.5037 16.2152 37.1904 16.2485 36.855C16.2818 36.5195 16.4869 36.2063 16.6976 36.1841C16.9083 36.1619 17.0913 36.4613 17.0525 36.7968" fill="white"/>
</g>
<path id="Vector_7" d="M22.6498 37.3651C23.3983 37.9667 24.5405 38.0138 25.3361 37.4732" stroke="#5A1B09" stroke-width="0.557233" stroke-linecap="round" stroke-linejoin="round"/>
<path id="Vector_8" d="M30.9446 32.0146L30.6368 32.1338" stroke="#5A1B09" stroke-width="0.557233" stroke-linecap="round" stroke-linejoin="round"/>
<path id="Vector_9" d="M17.0719 32.0146L17.3796 32.1338" stroke="#5A1B09" stroke-width="0.557233" stroke-linecap="round" stroke-linejoin="round"/>
</g>
</g>
<defs>
<clipPath id="clip0_355_1045">
<rect width="44.1877" height="45" fill="white"/>
</clipPath>
</defs>
</svg>
