<svg width="47" height="48" viewBox="0 0 47 48" fill="none" xmlns="http://www.w3.org/2000/svg">
<g id="maskota3 1">
<g id="Layer 1">
<g id="Group">
<g id="Group_2">
<path id="Vector" d="M43.485 34.037C43.485 37.403 46.4232 35.2472 45.5338 37.5409C42.8686 44.4164 36.2774 46.8086 26.1794 46.8086C15.527 46.8086 5.00409 45.9108 2.56684 38.1291C2.24038 37.085 -0.160283 29.5734 1.32571 28.4561C2.29103 27.7328 5.17014 30.4599 5.17014 29.0753C5.17014 24.4147 9.38606 19.5289 10.6272 21.7607C11.8683 23.9925 15.5383 11.1815 17.6941 8.36993C20.545 4.64933 27.4177 0.737359 27.9159 1.1567C28.4281 1.5873 28.2255 4.72251 29.8465 6.01431C31.614 7.4243 35.2473 7.06407 36.7896 9.23957C37.8506 10.7368 36.8684 13.1121 37.9069 14.5728C38.6583 15.6282 39.9445 13.5962 40.5102 14.6966C41.2813 16.1911 39.4041 19.9004 40.0149 21.2682C41.6528 24.9325 43.1304 24.0235 44.2308 26.8491C45.3509 29.7198 43.4878 33.5163 43.4878 34.0398L43.485 34.037Z" fill="#5A1B09"/>
<path id="Vector_2" d="M39.2127 33.2631C39.2127 42.9586 34.0061 46.0178 24.3134 46.0178C14.6207 46.0178 9.18616 42.9558 9.18616 33.2631C9.18616 26.3763 17.8769 22.1998 22.0535 19.4923C24.9495 17.6123 25.0733 15.192 24.7524 13.6272C24.6568 13.1684 25.1999 12.8476 25.5602 13.1516C28.5462 15.6648 40.2259 25.4757 36.7276 32.5876C35.9874 34.0933 39.2099 31.7433 39.2099 33.2659L39.2127 33.2631Z" fill="#A0756B"/>
</g>
<g id="Group_3">
<g id="Group_4">
<path id="Vector_3" d="M33.5445 40.0851C34.1496 39.7896 34.5858 39.2239 34.8757 38.6132C35.1374 38.0616 35.2922 37.4114 35.0727 36.8429C34.2931 34.8363 31.8474 36.2266 31.2761 37.5859C30.6626 39.0438 31.8531 40.9097 33.5445 40.0823V40.0851Z" fill="#5A1B09"/>
<path id="Vector_4" d="M31.6954 38.4978C31.6504 38.7145 31.7208 38.9875 31.8446 39.1479C31.9684 39.3083 32.1401 39.3534 32.2808 39.2886C32.4807 39.1986 32.6157 38.8806 32.582 38.54C32.5482 38.1995 32.3399 37.8814 32.126 37.8589C31.9121 37.8364 31.7264 38.1404 31.7658 38.4809" fill="white"/>
</g>
<g id="Group_5">
<path id="Vector_5" d="M16.3768 40.0851C15.7717 39.7896 15.3354 39.2239 15.0456 38.6132C14.7838 38.0616 14.629 37.4114 14.8485 36.8429C15.6281 34.8363 18.0738 36.2266 18.6451 37.5859C19.2587 39.0438 18.0682 40.9097 16.3768 40.0823V40.0851Z" fill="#5A1B09"/>
<path id="Vector_6" d="M18.2259 38.4978C18.271 38.7145 18.2006 38.9875 18.0768 39.1479C17.9529 39.3083 17.7813 39.3534 17.6405 39.2886C17.4407 39.1986 17.3056 38.8806 17.3394 38.54C17.3732 38.1995 17.5814 37.8814 17.7953 37.8589C18.0092 37.8364 18.195 38.1404 18.1556 38.4809" fill="white"/>
</g>
<path id="Vector_7" d="M23.8378 39.0579C24.5976 39.6686 25.7572 39.7164 26.5649 39.1676" stroke="#5A1B09" stroke-width="0.565689" stroke-linecap="round" stroke-linejoin="round"/>
<path id="Vector_8" d="M32.2583 33.6261L31.9459 33.7471" stroke="#5A1B09" stroke-width="0.565689" stroke-linecap="round" stroke-linejoin="round"/>
<path id="Vector_9" d="M18.1752 33.6261L18.4876 33.7471" stroke="#5A1B09" stroke-width="0.565689" stroke-linecap="round" stroke-linejoin="round"/>
</g>
</g>
</g>
</g>
</svg>
