<svg width="44" height="43" viewBox="0 0 44 43" fill="none" xmlns="http://www.w3.org/2000/svg">
<path d="M39.8592 30.4118C39.8592 33.4193 42.4845 31.4931 41.6899 33.5425C39.3085 39.6858 33.4193 41.8232 24.3968 41.8232C14.879 41.8232 5.47684 41.021 3.29918 34.0681C3.00749 33.1352 0.862516 26.4237 2.19024 25.4254C3.05275 24.7791 5.62521 27.2158 5.62521 25.9786C5.62521 21.8144 9.39211 17.449 10.5011 19.4431C11.61 21.4372 14.8891 9.99062 16.8153 7.47851C19.3626 4.15419 25.5033 0.658864 25.9484 1.03354C26.406 1.41828 26.225 4.21957 27.6734 5.37378C29.2526 6.6336 32.4989 6.31173 33.877 8.25553C34.825 9.59331 33.9474 11.7156 34.8753 13.0207C35.5467 13.9637 36.6958 12.1482 37.2013 13.1314C37.8903 14.4666 36.213 17.7809 36.7587 19.003C38.2222 22.2771 39.5424 21.4648 40.5256 23.9895C41.5264 26.5544 39.8618 29.9466 39.8618 30.4144L39.8592 30.4118Z" fill="#FCE4BC"/>
<path d="M36.042 29.7203C36.042 38.3831 31.3899 41.1165 22.7296 41.1165C14.0692 41.1165 9.2135 38.3806 9.2135 29.7203C9.2135 23.567 16.9786 19.8353 20.7103 17.4162C23.2979 15.7365 23.4085 13.5739 23.1219 12.1758C23.0364 11.7659 23.5217 11.4792 23.8436 11.7508C26.5116 13.9964 36.9472 22.7623 33.8216 29.1168C33.1602 30.4621 36.0395 28.3624 36.0395 29.7228L36.042 29.7203Z" fill="#BFC330"/>
<path d="M30.9776 35.8158C31.5183 35.5517 31.908 35.0463 32.167 34.5006C32.4009 34.0077 32.5392 33.4269 32.3431 32.9189C31.6465 31.126 29.4613 32.3682 28.9508 33.5828C28.4027 34.8853 29.4663 36.5525 30.9776 35.8132V35.8158Z" fill="#5A1B09"/>
<path d="M29.3256 34.3975C29.2853 34.5911 29.3482 34.8351 29.4589 34.9784C29.5695 35.1217 29.7229 35.162 29.8486 35.1041C30.0272 35.0237 30.1479 34.7395 30.1177 34.4352C30.0875 34.131 29.9014 33.8468 29.7103 33.8267C29.5192 33.8066 29.3532 34.0782 29.3884 34.3824" fill="white"/>
<path d="M15.6385 35.8158C15.0979 35.5517 14.7081 35.0463 14.4491 34.5006C14.2152 34.0077 14.0769 33.4269 14.2731 32.9189C14.9696 31.126 17.1548 32.3682 17.6653 33.5828C18.2135 34.8853 17.1498 36.5525 15.6385 35.8132V35.8158Z" fill="#5A1B09"/>
<path d="M17.2905 34.3975C17.3307 34.5911 17.2679 34.8351 17.1572 34.9784C17.0466 35.1217 16.8932 35.162 16.7675 35.1041C16.5889 35.0237 16.4682 34.7395 16.4984 34.4352C16.5286 34.131 16.7147 33.8468 16.9058 33.8267C17.0969 33.8066 17.2628 34.0782 17.2276 34.3824" fill="white"/>
<path d="M22.3047 34.8979C22.9836 35.4436 24.0197 35.4863 24.7414 34.996" stroke="#5A1B09" stroke-width="0.505439" stroke-linecap="round" stroke-linejoin="round"/>
<path d="M29.8284 30.0447L29.5493 30.1528" stroke="#5A1B09" stroke-width="0.505439" stroke-linecap="round" stroke-linejoin="round"/>
<path d="M17.2452 30.0447L17.5244 30.1528" stroke="#5A1B09" stroke-width="0.505439" stroke-linecap="round" stroke-linejoin="round"/>
</svg>
