<svg width="48" height="48" viewBox="0 0 48 48" fill="none" xmlns="http://www.w3.org/2000/svg">
<g id="maskota9 1">
<g id="Layer 1">
<g id="Group">
<g id="Group_2">
<path id="Vector" d="M44.2353 33.7507C44.2353 37.0884 47.1488 34.9507 46.2669 37.2252C43.6241 44.0428 37.0883 46.4149 27.0753 46.4149C16.5125 46.4149 6.07811 45.5247 3.66136 37.8084C3.33764 36.7731 0.957179 29.3247 2.43067 28.2168C3.38788 27.4996 6.24276 30.2038 6.24276 28.8307C6.24276 24.2093 10.4232 19.3647 11.6539 21.5777C12.8846 23.7907 16.5237 11.0875 18.6614 8.29957C21.4883 4.61027 28.3032 0.731195 28.7972 1.14701C29.3051 1.57399 29.1042 4.68282 30.7116 5.96375C32.4642 7.36189 36.0669 7.00468 37.5962 9.16189C38.6483 10.6465 37.6744 13.0019 38.7042 14.4503C39.4493 15.4968 40.7246 13.4819 41.2855 14.5731C42.0502 16.0549 40.1888 19.7331 40.7944 21.0893C42.4186 24.7228 43.8837 23.8214 44.9748 26.6233C46.0855 29.4698 44.2381 33.2345 44.2381 33.7535L44.2353 33.7507Z" fill="#FCE4BC"/>
<path id="Vector_2" d="M39.9989 32.9833C39.9989 42.5972 34.8361 45.6307 25.225 45.6307C15.6138 45.6307 10.225 42.5944 10.225 32.9833C10.225 26.1544 18.8427 22.013 22.984 19.3284C25.8557 17.4642 25.9785 15.0642 25.6603 13.5126C25.5654 13.0577 26.104 12.7395 26.4613 13.0409C29.4222 15.533 41.0036 25.2614 37.5347 32.3135C36.8008 33.8065 39.9961 31.4763 39.9961 32.986L39.9989 32.9833Z" fill="#BFC330"/>
</g>
<g id="Group_3">
<g id="Group_4">
<path id="Vector_3" d="M34.3787 39.7479C34.9787 39.4549 35.4112 38.8939 35.6987 38.2884C35.9582 37.7414 36.1117 37.0967 35.894 36.533C35.121 34.5432 32.6959 35.9219 32.1294 37.2698C31.521 38.7153 32.7015 40.5656 34.3787 39.7451V39.7479Z" fill="#5A1B09"/>
<path id="Vector_4" d="M32.5452 38.174C32.5005 38.3888 32.5703 38.6595 32.6931 38.8186C32.8159 38.9777 32.9861 39.0223 33.1256 38.9581C33.3238 38.8688 33.4577 38.5535 33.4242 38.2158C33.3908 37.8781 33.1843 37.5628 32.9722 37.5405C32.7601 37.5181 32.5759 37.8195 32.6149 38.1572" fill="white"/>
</g>
<g id="Group_5">
<path id="Vector_5" d="M17.3554 39.7479C16.7554 39.4549 16.3229 38.8939 16.0354 38.2884C15.7759 37.7414 15.6224 37.0967 15.8401 36.533C16.6131 34.5432 19.0382 35.9219 19.6048 37.2698C20.2131 38.7153 19.0327 40.5656 17.3554 39.7451V39.7479Z" fill="#5A1B09"/>
<path id="Vector_6" d="M19.1888 38.174C19.2334 38.3888 19.1637 38.6595 19.0409 38.8186C18.9181 38.9777 18.7478 39.0223 18.6083 38.9581C18.4102 38.8688 18.2762 38.5535 18.3097 38.2158C18.3432 37.8781 18.5497 37.5628 18.7618 37.5405C18.9739 37.5181 19.1581 37.8195 19.119 38.1572" fill="white"/>
</g>
<path id="Vector_7" d="M24.7535 38.7293C25.507 39.3349 26.6568 39.3823 27.4577 38.8381" stroke="#5A1B09" stroke-width="0.56093" stroke-linecap="round" stroke-linejoin="round"/>
<path id="Vector_8" d="M33.1033 33.3432L32.7936 33.4632" stroke="#5A1B09" stroke-width="0.56093" stroke-linecap="round" stroke-linejoin="round"/>
<path id="Vector_9" d="M19.1385 33.3432L19.4483 33.4632" stroke="#5A1B09" stroke-width="0.56093" stroke-linecap="round" stroke-linejoin="round"/>
</g>
</g>
</g>
</g>
</svg>
