<svg width="49" height="50" viewBox="0 0 49 50" fill="none" xmlns="http://www.w3.org/2000/svg">
<g id="maskota2 1">
<g id="Layer 1">
<g id="Group">
<g id="Group_2">
<path id="Vector" d="M44.409 34.7845C44.409 38.1142 47.3156 35.9816 46.4358 38.2507C43.7993 45.0522 37.279 47.4187 27.2896 47.4187C16.7519 47.4187 6.34215 46.5305 3.93113 38.8325C3.60817 37.7996 1.23334 30.3689 2.70334 29.2636C3.65828 28.5481 6.50641 31.2459 6.50641 29.8761C6.50641 25.2657 10.677 20.4325 11.9048 22.6403C13.1325 24.848 16.763 12.1749 18.8956 9.39355C21.7159 5.71299 28.5146 1.8431 29.0074 2.25793C29.5141 2.68389 29.3137 5.78537 30.9173 7.06327C32.6657 8.4581 36.26 8.10174 37.7857 10.2538C38.8353 11.735 37.8636 14.0847 38.891 15.5297C39.6343 16.5737 40.9066 14.5636 41.4662 15.6522C42.2291 17.1305 40.3721 20.8 40.9762 22.153C42.5966 25.7779 44.0582 24.8787 45.1468 27.6739C46.2549 30.5137 44.4118 34.2694 44.4118 34.7872L44.409 34.7845Z" fill="#C40B61"/>
<path id="Vector_2" d="M40.1827 34.0188C40.1827 43.61 35.0321 46.6363 25.4437 46.6363C15.8553 46.6363 10.4792 43.6072 10.4792 34.0188C10.4792 27.2061 19.0765 23.0745 23.2081 20.3962C26.0729 18.5365 26.1954 16.1421 25.8781 14.5942C25.7834 14.1404 26.3207 13.823 26.6771 14.1237C29.631 16.6099 41.185 26.3152 37.7244 33.3506C36.9921 34.8401 40.1799 32.5154 40.1799 34.0216L40.1827 34.0188Z" fill="#DB72A7"/>
</g>
<g id="Group_3">
<g id="Group_4">
<path id="Vector_3" d="M34.5756 40.7674C35.1742 40.4751 35.6057 39.9155 35.8925 39.3114C36.1514 38.7657 36.3045 38.1226 36.0874 37.5602C35.3162 35.5751 32.8968 36.9504 32.3316 38.2952C31.7247 39.7373 32.9024 41.5832 34.5756 40.7647V40.7674Z" fill="#5A1B09"/>
<path id="Vector_4" d="M32.7463 39.1972C32.7018 39.4116 32.7714 39.6816 32.8939 39.8403C33.0164 39.999 33.1862 40.0435 33.3254 39.9795C33.5231 39.8904 33.6567 39.5758 33.6233 39.2389C33.5899 38.9021 33.3839 38.5875 33.1723 38.5652C32.9607 38.5429 32.7769 38.8436 32.8159 39.1805" fill="white"/>
</g>
<g id="Group_5">
<path id="Vector_5" d="M17.5926 40.7674C16.994 40.4751 16.5625 39.9155 16.2757 39.3114C16.0168 38.7657 15.8637 38.1226 16.0808 37.5602C16.852 35.5751 19.2714 36.9504 19.8366 38.2952C20.4435 39.7373 19.2658 41.5832 17.5926 40.7647V40.7674Z" fill="#5A1B09"/>
<path id="Vector_6" d="M19.4219 39.1972C19.4664 39.4116 19.3968 39.6816 19.2743 39.8403C19.1518 39.999 18.982 40.0435 18.8428 39.9795C18.6451 39.8904 18.5115 39.5758 18.5449 39.2389C18.5783 38.9021 18.7843 38.5875 18.9959 38.5652C19.2075 38.5429 19.3913 38.8436 19.3523 39.1805" fill="white"/>
</g>
<path id="Vector_7" d="M24.9734 39.7512C25.7251 40.3554 26.8721 40.4027 27.6712 39.8598" stroke="#5A1B09" stroke-width="0.559602" stroke-linecap="round" stroke-linejoin="round"/>
<path id="Vector_8" d="M33.3033 34.378L32.9943 34.4977" stroke="#5A1B09" stroke-width="0.559602" stroke-linecap="round" stroke-linejoin="round"/>
<path id="Vector_9" d="M19.3717 34.378L19.6807 34.4977" stroke="#5A1B09" stroke-width="0.559602" stroke-linecap="round" stroke-linejoin="round"/>
</g>
</g>
</g>
</g>
</svg>
