<svg width="47" height="47" viewBox="0 0 47 47" fill="none" xmlns="http://www.w3.org/2000/svg">
<g id="Isolation_Mode" clip-path="url(#clip0_355_1086)">
<g id="Group">
<g id="Group_2">
<path id="Vector" d="M43.87 33.8601C43.87 37.3232 46.8929 35.1052 45.978 37.465C43.2359 44.5388 36.4546 47 26.0655 47C15.106 47 4.27965 46.0763 1.77214 38.0702C1.43626 36.996 -1.03362 29.2678 0.495216 28.1183C1.48838 27.3742 4.45049 30.1799 4.45049 28.7553C4.45049 23.9604 8.78797 18.9337 10.0649 21.2299C11.3418 23.526 15.1176 10.3456 17.3355 7.45302C20.2687 3.62515 27.3395 -0.399617 27.852 0.031815C28.379 0.474829 28.1705 3.70043 29.8384 5.02947C31.6567 6.48013 35.3949 6.1095 36.9816 8.34773C38.0732 9.88815 37.0627 12.332 38.1311 13.8347C38.9042 14.9206 40.2275 12.83 40.8095 13.9621C41.6028 15.4997 39.6715 19.3159 40.2999 20.7232C41.985 24.4931 43.5052 23.5579 44.6373 26.465C45.7898 29.4184 43.8729 33.3244 43.8729 33.863L43.87 33.8601Z" fill="#D35322"/>
<path id="Vector_2" d="M39.4746 33.0639C39.4746 43.0389 34.1179 46.1863 24.1458 46.1863C14.1736 46.1863 8.5824 43.036 8.5824 33.0639C8.5824 25.9785 17.5237 21.6816 21.8207 18.8961C24.8002 16.9619 24.9276 14.4718 24.5975 12.8619C24.499 12.3899 25.0579 12.0598 25.4285 12.3725C28.5006 14.9582 40.517 25.052 36.9179 32.3689C36.1564 33.9181 39.4718 31.5003 39.4718 33.0668L39.4746 33.0639Z" fill="#C40B61"/>
</g>
<g id="Group_3">
<g id="Group_4">
<path id="Vector_3" d="M33.6429 40.0826C34.2655 39.7786 34.7143 39.1966 35.0125 38.5683C35.2818 38.0007 35.4411 37.3319 35.2152 36.747C34.4132 34.6825 31.897 36.1129 31.3092 37.5114C30.6779 39.0113 31.9027 40.931 33.6429 40.0797V40.0826Z" fill="#5A1B09"/>
<path id="Vector_4" d="M31.7408 38.4495C31.6944 38.6725 31.7668 38.9534 31.8942 39.1184C32.0216 39.2834 32.1982 39.3298 32.343 39.2632C32.5486 39.1705 32.6876 38.8433 32.6528 38.493C32.6181 38.1426 32.4038 37.8154 32.1838 37.7923C31.9637 37.7691 31.7726 38.0818 31.8131 38.4322" fill="white"/>
</g>
<g id="Group_5">
<path id="Vector_5" d="M15.9804 40.0826C15.3578 39.7786 14.909 39.1966 14.6108 38.5683C14.3415 38.0007 14.1822 37.3319 14.4081 36.747C15.2101 34.6825 17.7263 36.1129 18.3141 37.5114C18.9454 39.0113 17.7206 40.931 15.9804 40.0797V40.0826Z" fill="#5A1B09"/>
<path id="Vector_6" d="M17.8827 38.4495C17.9291 38.6725 17.8567 38.9534 17.7293 39.1184C17.6019 39.2834 17.4253 39.3298 17.2805 39.2632C17.0749 39.1705 16.9359 38.8433 16.9707 38.493C17.0054 38.1426 17.2197 37.8154 17.4397 37.7923C17.6598 37.7691 17.8509 38.0818 17.8104 38.4322" fill="white"/>
</g>
<path id="Vector_7" d="M23.6564 39.0258C24.4382 39.6541 25.6311 39.7033 26.4621 39.1387" stroke="#5A1B09" stroke-width="0.581999" stroke-linecap="round" stroke-linejoin="round"/>
<path id="Vector_8" d="M32.3197 33.4374L31.9983 33.5619" stroke="#5A1B09" stroke-width="0.581999" stroke-linecap="round" stroke-linejoin="round"/>
<path id="Vector_9" d="M17.8306 33.4374L18.152 33.5619" stroke="#5A1B09" stroke-width="0.581999" stroke-linecap="round" stroke-linejoin="round"/>
</g>
</g>
<g id="Group_6">
<path id="Vector_10" d="M33.9587 43.6354C29.7978 42.7002 27.5538 40.3461 26.5954 37.9631C26.0945 37.3087 24.363 36.692 23.3582 37.9081C22.4114 40.3085 20.1645 42.6915 15.9747 43.6325C6.17624 39.434 9.5582 30.7996 9.5582 30.7996C12.2423 30.0989 16.8491 32.4906 17.6656 33.3071C19.0063 32.4327 24.0242 32.3168 23.9084 35.3485C23.9084 35.3948 23.9055 35.4382 23.9026 35.4845C24.4672 35.0965 25.0174 35.7567 25.0174 35.7567C25.5154 35.2587 25.9294 35.4411 26.0395 35.5048C26.0366 35.4527 26.0337 35.4006 26.0308 35.3485C25.915 32.314 30.93 32.4327 32.2735 33.3071C33.09 32.4906 37.6997 30.0989 40.381 30.7996C40.381 30.7996 43.7629 39.4311 33.9645 43.6325L33.9587 43.6354Z" fill="#F2F264"/>
<path id="Vector_11" d="M16.2467 42.4106C13.1572 41.0034 11.3822 38.9215 10.9711 36.22C10.7539 34.8012 10.9769 33.5417 11.1506 32.8496C11.2056 32.8496 11.2606 32.8467 11.3185 32.8467C13.4844 32.8467 16.5131 34.5059 16.93 34.9228L17.5352 35.528L18.2533 35.0589C18.456 34.9286 19.1162 34.7433 19.9559 34.7433C20.894 34.7433 21.699 34.972 22.0551 35.3427C22.1651 35.4556 22.2867 35.6293 22.2723 35.9826C22.1796 38.3974 20.5408 41.3219 16.2467 42.4106Z" fill="#3A3A30"/>
<path id="Vector_12" d="M33.7096 42.4106C36.7991 41.0034 38.5741 38.9215 38.9852 36.22C39.2024 34.8012 38.9794 33.5417 38.8057 32.8496C38.7507 32.8496 38.6957 32.8467 38.6378 32.8467C36.4719 32.8467 33.4432 34.5059 33.0263 34.9228L32.4211 35.528L31.703 35.0589C31.5003 34.9286 30.8402 34.7433 30.0005 34.7433C29.0623 34.7433 28.2574 34.972 27.9012 35.3427C27.7912 35.4556 27.6696 35.6293 27.684 35.9826C27.7767 38.3974 29.4156 41.3219 33.7096 42.4106Z" fill="#3A3A30"/>
</g>
<g id="Group_7">
<path id="Vector_13" d="M11.9238 20.4742C11.9933 20.4887 12.0628 20.509 12.1294 20.5292C13.8927 14.8801 9.02828 14.8801 10.7917 20.5292C10.8582 20.5061 10.9277 20.4887 10.9972 20.4742C11.0899 19.5534 11.8311 19.5534 11.9238 20.4742Z" fill="#E7EF7B"/>
<path id="Vector_14" d="M10.9972 24.7132C10.9277 24.6987 10.8582 24.6785 10.7917 24.6582C9.02828 30.3074 13.8927 30.3074 12.1294 24.6582C12.0628 24.6814 11.9933 24.6987 11.9238 24.7132C11.8311 25.634 11.0899 25.634 10.9972 24.7132Z" fill="#E7EF7B"/>
<path id="Vector_15" d="M9.30321 22.8051C9.29741 22.7356 9.29162 22.6661 9.29162 22.5937C3.37319 22.6603 4.87596 27.2902 9.70568 23.8649C9.66514 23.8069 9.62461 23.749 9.58986 23.6882C8.68356 23.888 8.45192 23.1757 9.30321 22.8051Z" fill="#E7EF7B"/>
<path id="Vector_16" d="M9.84188 24.0328C9.79555 23.9806 9.75212 23.9256 9.70869 23.8677C4.96004 27.4031 8.89505 30.2639 10.7887 24.6553C10.7221 24.6321 10.6555 24.609 10.5918 24.58C9.97508 25.2749 9.36991 24.8348 9.84188 24.0328Z" fill="#E7EF7B"/>
<path id="Vector_17" d="M13.6206 22.3794C13.6264 22.4489 13.6322 22.5184 13.6322 22.5908C19.5506 22.5242 18.0479 17.8943 13.2181 21.3197C13.2587 21.3776 13.2992 21.4355 13.334 21.4963C14.2403 21.2965 14.4719 22.0088 13.6206 22.3794Z" fill="#E7EF7B"/>
<path id="Vector_18" d="M9.58986 21.4963C9.62461 21.4355 9.66514 21.3776 9.70568 21.3197C4.87596 17.8943 3.37319 22.5242 9.29162 22.5908C9.29162 22.5184 9.29452 22.4489 9.30321 22.3794C8.45192 22.0059 8.68356 21.2965 9.58986 21.4963Z" fill="#E7EF7B"/>
<path id="Vector_19" d="M10.5918 20.6074C10.6555 20.5784 10.7221 20.5552 10.7887 20.5321C8.89499 14.9235 4.95709 17.7842 9.70863 21.3197C9.74917 21.2617 9.7955 21.2067 9.84183 21.1546C9.36986 20.3526 9.97502 19.9124 10.5918 20.6074Z" fill="#E7EF7B"/>
<path id="Vector_20" d="M13.6291 22.5937C13.6291 22.6661 13.6263 22.7356 13.6176 22.8051C14.4688 23.1786 14.2372 23.888 13.3309 23.6882C13.2962 23.749 13.2556 23.8069 13.2151 23.8649C18.0448 27.2902 19.5476 22.6603 13.6291 22.5937Z" fill="#E7EF7B"/>
<path id="Vector_21" d="M12.3292 24.58C12.2655 24.609 12.1989 24.6321 12.1323 24.6553C14.026 30.2639 17.9639 27.4031 13.2124 23.8677C13.1718 23.9256 13.1255 23.9806 13.0792 24.0328C13.5511 24.8348 12.946 25.2749 12.3263 24.58H12.3292Z" fill="#E7EF7B"/>
<path id="Vector_22" d="M13.0818 21.1546C13.1282 21.2067 13.1716 21.2617 13.215 21.3197C17.9637 17.7842 14.0287 14.9235 12.135 20.5321C12.2016 20.5552 12.2682 20.5784 12.3319 20.6074C12.9486 19.9124 13.5538 20.3526 13.0847 21.1546H13.0818Z" fill="#E7EF7B"/>
<path id="Vector_23" d="M11.4605 24.36C12.436 24.36 13.2267 23.5692 13.2267 22.5937C13.2267 21.6182 12.436 20.8275 11.4605 20.8275C10.485 20.8275 9.69421 21.6182 9.69421 22.5937C9.69421 23.5692 10.485 24.36 11.4605 24.36Z" fill="#E7EF7B"/>
</g>
</g>
<defs>
<clipPath id="clip0_355_1086">
<rect width="46.1516" height="47" fill="white"/>
</clipPath>
</defs>
</svg>
