<svg width="47" height="48" viewBox="0 0 47 48" fill="none" xmlns="http://www.w3.org/2000/svg">
<g id="Layer_1" clip-path="url(#clip0_355_1030)">
<g id="Group">
<path id="Vector" d="M44.6766 34.4826C44.6766 38.0093 47.7551 35.7505 46.8233 38.1537C44.0308 45.3575 37.1249 47.864 26.5448 47.864C15.3838 47.864 4.35844 46.9233 1.80483 38.77C1.46278 37.676 -1.0525 29.8059 0.504437 28.6352C1.51586 27.8774 4.53242 30.7347 4.53242 29.2839C4.53242 24.4008 8.94963 19.2818 10.25 21.6201C11.5504 23.9585 15.3956 10.5358 17.6543 7.59003C20.6414 3.69179 27.8422 -0.406962 28.3642 0.032401C28.9008 0.483559 28.6885 3.76846 30.387 5.12193C32.2388 6.59925 36.0456 6.22181 37.6615 8.50119C38.7732 10.0699 37.7441 12.5587 38.8322 14.0891C39.6195 15.1948 40.9671 13.0658 41.5598 14.2188C42.3677 15.7846 40.4009 19.671 41.0408 21.1041C42.757 24.9434 44.3051 23.9909 45.458 26.9515C46.6316 29.9592 44.6795 33.937 44.6795 34.4855L44.6766 34.4826Z" fill="#510943"/>
<path id="Vector_2" d="M40.2001 33.6717C40.2001 43.8301 34.7449 47.0354 24.5895 47.0354C14.434 47.0354 8.73999 43.8271 8.73999 33.6717C8.73999 26.4561 17.8457 22.0802 22.2216 19.2435C25.2559 17.2737 25.3856 14.7378 25.0495 13.0983C24.9492 12.6177 25.5183 12.2815 25.8958 12.6C29.0244 15.2332 41.2617 25.5125 37.5964 32.964C36.8209 34.5416 40.1972 32.0794 40.1972 33.6746L40.2001 33.6717Z" fill="#B21D9D"/>
</g>
<g id="Group_2">
<g id="Group_3">
<path id="Vector_3" d="M34.2613 40.8194C34.8953 40.5098 35.3524 39.9171 35.6561 39.2772C35.9303 38.6993 36.0925 38.0181 35.8625 37.4225C35.0457 35.32 32.4832 36.7767 31.8846 38.2009C31.2418 39.7284 32.4891 41.6834 34.2613 40.8165V40.8194Z" fill="#5A1B09"/>
<path id="Vector_4" d="M32.324 39.1563C32.2768 39.3834 32.3506 39.6694 32.4803 39.8375C32.6101 40.0056 32.7899 40.0527 32.9374 39.9849C33.1467 39.8906 33.2883 39.5573 33.2529 39.2005C33.2175 38.8437 32.9993 38.5105 32.7752 38.487C32.5511 38.4634 32.3565 38.7818 32.3977 39.1386" fill="white"/>
</g>
<g id="Group_4">
<path id="Vector_5" d="M16.274 40.8194C15.6401 40.5098 15.183 39.9171 14.8793 39.2772C14.6051 38.6993 14.4429 38.0181 14.6729 37.4225C15.4897 35.32 18.0521 36.7767 18.6507 38.2009C19.2936 39.7284 18.0462 41.6834 16.274 40.8165V40.8194Z" fill="#5A1B09"/>
<path id="Vector_6" d="M18.2113 39.1563C18.2584 39.3834 18.1847 39.6694 18.055 39.8375C17.9252 40.0056 17.7454 40.0527 17.5979 39.9849C17.3886 39.8906 17.247 39.5573 17.2824 39.2005C17.3178 38.8437 17.536 38.5105 17.7601 38.487C17.9842 38.4634 18.1788 38.7818 18.1375 39.1386" fill="white"/>
</g>
<path id="Vector_7" d="M24.0912 39.7431C24.8873 40.383 26.1022 40.4331 26.9485 39.8581" stroke="#5A1B09" stroke-width="0.592697" stroke-linecap="round" stroke-linejoin="round"/>
<path id="Vector_8" d="M32.9139 34.0521L32.5865 34.1789" stroke="#5A1B09" stroke-width="0.592697" stroke-linecap="round" stroke-linejoin="round"/>
<path id="Vector_9" d="M18.1582 34.0521L18.4855 34.1789" stroke="#5A1B09" stroke-width="0.592697" stroke-linecap="round" stroke-linejoin="round"/>
</g>
</g>
<defs>
<clipPath id="clip0_355_1030">
<rect width="47" height="47.864" fill="white"/>
</clipPath>
</defs>
</svg>
