<svg width="56" height="54" viewBox="0 0 56 54" fill="none" xmlns="http://www.w3.org/2000/svg">
<g id="Layer_1" clip-path="url(#clip0_355_1060)">
<g id="Group">
<g id="Group_2">
<path id="Vector" d="M48.5523 39.4577C48.5523 43.2904 51.8979 40.8357 50.8852 43.4474C47.8505 51.2761 40.3454 54 28.8475 54C16.7182 54 4.7364 52.9777 1.96125 44.1171C1.58953 42.9282 -1.14396 34.3753 0.548045 33.1031C1.64721 32.2795 4.92547 35.3847 4.92547 33.8081C4.92547 28.5013 9.7259 22.9382 11.1391 25.4794C12.5523 28.0206 16.7311 13.4335 19.1858 10.2321C22.432 5.99572 30.2575 1.54138 30.8247 2.01886C31.4079 2.50916 31.1772 6.07903 33.023 7.54993C35.0355 9.15541 39.1726 8.74523 40.9287 11.2223C42.1368 12.9272 41.0184 15.6318 42.2009 17.295C43.0565 18.4967 44.521 16.183 45.1651 17.436C46.0431 19.1376 43.9057 23.3612 44.6011 24.9186C46.4661 29.091 48.1485 28.0559 49.4015 31.2733C50.6769 34.5419 48.5555 38.8649 48.5555 39.4609L48.5523 39.4577Z" fill="#FCE4BC"/>
<path id="Vector_2" d="M43.6877 38.5765C43.6877 49.6162 37.7593 53.0995 26.7228 53.0995C15.6863 53.0995 9.49829 49.613 9.49829 38.5765C9.49829 30.7349 19.394 25.9793 24.1495 22.8966C27.447 20.7559 27.588 18 27.2227 16.2183C27.1137 15.6959 27.7322 15.3306 28.1424 15.6767C31.5424 18.5384 44.8414 29.7094 40.8581 37.8074C40.0153 39.5218 43.6845 36.846 43.6845 38.5797L43.6877 38.5765Z" fill="#D35322"/>
</g>
<g id="Group_3">
<g id="Group_4">
<path id="Vector_3" d="M37.2337 46.3443C37.9227 46.0078 38.4194 45.3637 38.7495 44.6683C39.0475 44.0402 39.2238 43.3 38.9738 42.6527C38.0861 40.3678 35.3014 41.9509 34.6509 43.4987C33.9523 45.1586 35.3078 47.2832 37.2337 46.3411V46.3443Z" fill="#5A1B09"/>
<path id="Vector_4" d="M35.1284 44.5369C35.0771 44.7837 35.1572 45.0945 35.2982 45.2772C35.4392 45.4598 35.6347 45.5111 35.7949 45.4374C36.0224 45.3349 36.1763 44.9728 36.1378 44.585C36.0993 44.1973 35.8622 43.8351 35.6187 43.8095C35.3751 43.7839 35.1636 44.13 35.2085 44.5177" fill="white"/>
</g>
<g id="Group_5">
<path id="Vector_5" d="M17.686 46.3443C16.997 46.0078 16.5003 45.3637 16.1703 44.6683C15.8722 44.0402 15.696 43.3 15.9459 42.6527C16.8336 40.3678 19.6184 41.9509 20.2689 43.4987C20.9675 45.1586 19.612 47.2832 17.686 46.3411V46.3443Z" fill="#5A1B09"/>
<path id="Vector_6" d="M19.7913 44.5369C19.8426 44.7837 19.7625 45.0945 19.6215 45.2772C19.4805 45.4598 19.285 45.5111 19.1248 45.4374C18.8973 45.3349 18.7434 44.9728 18.7819 44.585C18.8203 44.1973 19.0575 43.8351 19.301 43.8095C19.5446 43.7839 19.7561 44.13 19.7112 44.5177" fill="white"/>
</g>
<path id="Vector_7" d="M26.1813 45.1747C27.0465 45.87 28.3668 45.9245 29.2865 45.2996" stroke="#5A1B09" stroke-width="0.644116" stroke-linecap="round" stroke-linejoin="round"/>
<path id="Vector_8" d="M35.7693 38.9867L35.4136 39.1245" stroke="#5A1B09" stroke-width="0.644116" stroke-linecap="round" stroke-linejoin="round"/>
<path id="Vector_9" d="M19.7336 38.9867L20.0893 39.1245" stroke="#5A1B09" stroke-width="0.644116" stroke-linecap="round" stroke-linejoin="round"/>
</g>
</g>
<g id="Group_6">
<path id="Vector_10" d="M25.6909 43.2679C24.22 43.6877 23.3164 43.0789 22.5857 43.8479C21.9768 44.4921 22.2621 44.6843 22.4768 44.5594C23.6272 43.88 24.6527 44.8221 26.2421 44.6395C27.2003 44.5273 27.4022 44.0691 27.4598 43.7166C27.588 42.9218 26.9952 42.8962 25.6941 43.2647L25.6909 43.2679Z" fill="black"/>
<path id="Vector_11" d="M32.6 43.8512C31.8694 43.0789 30.9625 43.6877 29.4948 43.2711C28.1905 42.8994 27.6009 42.9283 27.7291 43.723C27.7868 44.0755 27.9887 44.5337 28.9468 44.6459C30.5363 44.8286 31.5617 43.8864 32.7122 44.5658C32.9269 44.6908 33.2121 44.4985 32.6032 43.8544L32.6 43.8512Z" fill="black"/>
</g>
<g id="Group_7">
<path id="Vector_12" d="M52.2452 13.8914C53.2803 13.7857 56.174 13.0134 56.6162 14.5099C56.9784 15.7373 54.0334 17.7369 53.1649 18.3938C50.832 20.1596 48.3805 21.7554 46.2527 23.7358C44.0384 25.7964 41.6317 27.6358 39.3213 29.6002C37.0652 31.5197 35.0432 33.6988 32.6205 35.4261C29.9191 37.3488 26.9837 39.0248 23.8336 40.0823C18.7832 41.7743 13.0759 40.4412 8.80425 37.3616C5.59969 35.0511 2.7925 32.2984 2.14518 28.1998C1.80229 26.0239 1.27033 23.1174 1.8824 20.9511C2.60022 18.4067 3.55518 15.4521 5.5356 13.6287C7.66983 11.6643 10.884 10.1517 13.7489 9.87292C17.2547 9.53324 20.9399 10.3152 24.4457 10.6452C27.3843 10.9208 30.2876 11.3182 33.2198 11.7187C34.7323 11.927 36.2224 12.0008 37.6196 12.6032C38.8694 13.1416 40.2634 13.055 41.5132 13.5165C42.5867 13.9139 43.375 14.3497 44.5799 14.4554C47.1468 14.6766 49.7008 14.151 52.2452 13.8914Z" fill="#4F3E33"/>
<path id="Vector_13" d="M48.23 15.1668C49.3676 15.0483 50.4924 14.8784 51.6973 14.8592C52.4664 14.8464 54.1007 14.6028 54.1648 15.6667C54.2449 17.0287 51.1621 18.0445 50.1399 18.5028C47.1052 19.8647 44.0352 21.1882 41.4683 23.3385C36.4596 27.5332 32.0502 32.3881 26.7306 36.2272C22.5807 39.2235 17.8988 38.9447 13.2875 37.5475C8.94529 36.2304 5.9234 33.0419 4.29228 28.9048C2.61629 24.6491 3.42705 20.8229 5.44592 16.9358C7.42633 13.1223 11.3295 12.1065 15.3256 11.206C19.8792 10.1805 24.0324 11.5745 28.3168 12.7923C30.6273 13.4492 33.2551 13.4941 35.6361 13.8978C38.8823 14.449 42.1349 15.0547 45.426 15.263C46.4034 15.3239 47.3231 15.2598 48.23 15.1636V15.1668Z" fill="#5A4639"/>
<path id="Vector_14" d="M42.2053 11.0874C42.3463 12.4975 42.3719 13.7697 42.7917 15.1156C43.0898 16.0769 43.3557 17.5542 42.843 18.506C42.4264 19.2751 40.8434 19.9448 40.1095 20.3839C38.0169 21.6401 35.7962 22.7072 33.4793 23.4763C30.2138 24.5594 26.9003 25.0689 23.4811 25.226C21.5231 25.3157 19.4401 25.5208 17.5943 24.8606C13.8546 23.5275 14.2936 19.3328 14.1462 16.1122C14.0501 14.0164 13.9315 11.8726 13.7264 9.78319C13.5822 8.29307 13.5565 5.96657 14.2295 4.64629C15.3094 2.52808 18.8601 1.58914 20.9559 1.08602C25.0257 0.111839 29.089 -0.240663 33.2357 0.166316C35.3764 0.377817 38.8597 0.656614 40.6222 2.09866C41.59 2.89339 41.4554 4.76806 41.6926 5.89606C42.0483 7.58807 42.029 9.34097 42.2053 11.0842V11.0874Z" fill="#6E5346"/>
<path id="Vector_15" d="M14.1975 17.8907C15.2133 24.0274 22.4076 24.4312 27.2593 23.7422C32.0725 23.0597 35.9212 21.1882 39.9173 18.5541C40.5197 18.1567 42.1572 16.1763 42.795 15.1188C43.1378 16.1923 43.8012 18.0734 42.9231 19.3776C40.6383 22.7681 34.6522 24.6844 30.9637 25.7835C26.628 27.075 21.5616 27.6903 17.3828 25.5496C14.8993 24.2774 13.6431 23.0372 14.1975 17.8939V17.8907Z" fill="#2B2929"/>
<path id="Vector_16" d="M33.5915 0.53163C34.9374 0.666221 42.0964 1.36161 39.5424 3.95089C38.6002 4.90265 36.9883 5.36731 35.7546 5.76467C33.3351 6.54338 30.7234 7.14263 28.1854 7.36375C25.9358 7.55602 23.824 7.61691 21.5937 7.39259C19.8504 7.21954 17.0143 6.63631 15.7902 5.1526C13.5951 2.48961 23.3882 0.954631 25.0514 0.797608C27.8906 0.53163 30.7234 0.246424 33.5947 0.534834L33.5915 0.53163Z" fill="#5A4639"/>
<path id="Vector_17" d="M27.083 0.829664C29.1819 0.550867 31.3963 0.961051 33.3479 1.33598C34.8829 1.6276 37.5234 1.92883 38.5713 3.07606C36.5524 5.46986 30.6753 6.07553 27.6309 6.3383C26.0671 6.47289 24.4168 6.3383 22.8529 6.23896C21.5711 6.15884 18.1903 6.28382 17.2289 5.32245C15.2966 3.3837 25.4454 1.05078 27.0798 0.832868L27.083 0.829664Z" fill="#6E5346"/>
</g>
</g>
<defs>
<clipPath id="clip0_355_1060">
<rect width="55.3043" height="54" fill="white"/>
</clipPath>
</defs>
</svg>
