<svg width="80" height="80" viewBox="0 0 80 80" fill="none" xmlns="http://www.w3.org/2000/svg">
<path d="M74.0524 57.5905C74.0524 63.2857 79.0238 59.6381 77.519 63.5191C73.0095 75.1524 61.8571 79.2 44.7714 79.2C26.7476 79.2 8.94286 77.681 4.81905 64.5143C4.26667 62.7476 0.204764 50.0381 2.71905 48.1476C4.35238 46.9238 9.22381 51.5381 9.22381 49.1952C9.22381 41.3095 16.3571 33.0429 18.4571 36.8191C20.5571 40.5952 26.7667 18.9191 30.4143 14.1619C35.2381 7.86667 46.8667 1.24762 47.7095 1.95715C48.5762 2.68572 48.2333 7.99048 50.9762 10.1762C53.9667 12.5619 60.1143 11.9524 62.7238 15.6333C64.5191 18.1667 62.8571 22.1857 64.6143 24.6571C65.8857 26.4429 68.0619 23.0048 69.0191 24.8667C70.3238 27.3952 67.1476 33.6714 68.1809 35.9857C70.9524 42.1857 73.4524 40.6476 75.3143 45.4286C77.2095 50.2857 74.0571 56.7095 74.0571 57.5952L74.0524 57.5905Z" fill="#D35322"/>
<path d="M66.8238 56.281C66.8238 72.6857 58.0143 77.8619 41.6143 77.8619C25.2143 77.8619 16.019 72.681 16.019 56.281C16.019 44.6286 30.7238 37.5619 37.7905 32.981C42.6905 29.8 42.9 25.7048 42.3571 23.0571C42.1952 22.281 43.1143 21.7381 43.7238 22.2524C48.7762 26.5048 68.5381 43.1048 62.619 55.1381C61.3667 57.6857 66.819 53.7095 66.819 56.2857L66.8238 56.281Z" fill="#FCE4BC"/>
<path d="M57.2333 67.8238C58.2571 67.3238 58.9952 66.3667 59.4857 65.3333C59.9285 64.4 60.1904 63.3 59.819 62.3381C58.4999 58.9428 54.3618 61.2952 53.3952 63.5952C52.3571 66.0619 54.3714 69.219 57.2333 67.819V67.8238Z" fill="#5A1B09"/>
<path d="M54.1047 65.1381C54.0285 65.5048 54.1475 65.9667 54.3571 66.2381C54.5666 66.5095 54.8571 66.5857 55.0952 66.4762C55.4333 66.3238 55.6618 65.7857 55.6047 65.2095C55.5475 64.6333 55.1952 64.0952 54.8333 64.0571C54.4714 64.019 54.1571 64.5333 54.2237 65.1095" fill="white"/>
<path d="M28.1856 67.8238C27.1618 67.3238 26.4237 66.3667 25.9333 65.3333C25.4904 64.4 25.2285 63.3 25.5999 62.3381C26.919 58.9428 31.0571 61.2952 32.0237 63.5952C33.0618 66.0619 31.0475 69.219 28.1856 67.819V67.8238Z" fill="#5A1B09"/>
<path d="M31.3142 65.1381C31.3904 65.5048 31.2713 65.9667 31.0618 66.2381C30.8523 66.5095 30.5618 66.5857 30.3237 66.4762C29.9856 66.3238 29.757 65.7857 29.8142 65.2095C29.8713 64.6333 30.2237 64.0952 30.5856 64.0571C30.9475 64.019 31.2618 64.5333 31.1951 65.1095" fill="white"/>
<path d="M40.8096 66.0857C42.0953 67.1191 44.0572 67.2 45.4239 66.2714" stroke="#5A1B09" stroke-width="0.957143" stroke-linecap="round" stroke-linejoin="round"/>
<path d="M55.0569 56.8952L54.5283 57.1" stroke="#5A1B09" stroke-width="0.957143" stroke-linecap="round" stroke-linejoin="round"/>
<path d="M31.2285 56.8952L31.7571 57.1" stroke="#5A1B09" stroke-width="0.957143" stroke-linecap="round" stroke-linejoin="round"/>
</svg>
