<svg width="50" height="56" viewBox="0 0 50 56" fill="none" xmlns="http://www.w3.org/2000/svg">
<g id="Layer_1" clip-path="url(#clip0_355_1273)">
<g id="Group">
<g id="Group_2">
<path id="Vector" d="M46.4916 41.855C46.4916 45.5249 49.6951 43.1744 48.7255 45.6753C45.8196 53.1718 38.633 55.78 27.6231 55.78C16.0087 55.78 4.53538 54.8012 1.87802 46.3166C1.52207 45.1782 -1.0954 36.9882 0.524794 35.77C1.5773 34.9814 4.71643 37.9548 4.71643 36.4451C4.71643 31.3636 9.3131 26.0366 10.6663 28.47C12.0196 30.9033 21.0902 21.0656 23.4407 18.0001C26.5491 13.9435 28.9733 5.54794 29.5164 6.00516C30.0749 6.47464 29.8539 9.893 31.6214 11.3015C33.5485 12.8388 37.51 12.446 39.1915 14.818C40.3484 16.4505 39.2774 19.0403 40.4097 20.6329C41.229 21.7836 37.5529 24.4747 38.1697 25.6745C39.0105 27.3039 42.0422 26.4417 42.7081 27.933C44.494 31.9282 46.1049 30.9371 47.3048 34.0179C48.526 37.1478 46.4947 41.2873 46.4947 41.858L46.4916 41.855Z" fill="#C13030"/>
<path id="Vector_2" d="M41.8335 41.0111C41.8335 51.5822 36.1567 54.9177 25.5886 54.9177C15.0206 54.9177 9.09521 51.5792 9.09521 41.0111C9.09521 33.5024 18.5709 28.9486 23.1246 25.9967C26.2821 23.9469 26.4171 21.308 26.0673 19.6019C25.963 19.1017 26.5552 18.7519 26.948 19.0833C30.2037 21.8235 42.9382 32.5204 39.124 40.2746C38.317 41.9163 41.8304 39.3541 41.8304 41.0142L41.8335 41.0111Z" fill="#E08265"/>
</g>
<g id="Group_3">
<g id="Group_4">
<path id="Vector_3" d="M35.6534 48.4493C36.3132 48.1271 36.7888 47.5103 37.1048 46.8444C37.3902 46.243 37.559 45.5341 37.3196 44.9143C36.4697 42.7264 33.8031 44.2423 33.1802 45.7244C32.5112 47.3139 33.8092 49.3483 35.6534 48.4462V48.4493Z" fill="#5A1B09"/>
<path id="Vector_4" d="M33.6374 46.7186C33.5883 46.9549 33.665 47.2525 33.8 47.4274C33.935 47.6023 34.1222 47.6514 34.2756 47.5809C34.4935 47.4827 34.6408 47.1359 34.6039 46.7646C34.5671 46.3933 34.34 46.0466 34.1068 46.022C33.8736 45.9975 33.6711 46.3289 33.7141 46.7002" fill="white"/>
</g>
<g id="Group_5">
<path id="Vector_5" d="M16.9354 48.4493C16.2756 48.1271 15.8 47.5103 15.4839 46.8444C15.1986 46.243 15.0298 45.5341 15.2691 44.9143C16.1191 42.7264 18.7857 44.2423 19.4086 45.7244C20.0775 47.3139 18.7795 49.3483 16.9354 48.4462V48.4493Z" fill="#5A1B09"/>
<path id="Vector_6" d="M18.9514 46.7186C19.0005 46.9549 18.9237 47.2525 18.7887 47.4274C18.6537 47.6023 18.4665 47.6514 18.3131 47.5809C18.0952 47.4827 17.9479 47.1359 17.9848 46.7646C18.0216 46.3933 18.2487 46.0466 18.4819 46.022C18.7151 45.9975 18.9176 46.3289 18.8746 46.7002" fill="white"/>
</g>
<path id="Vector_7" d="M25.0701 47.3292C25.8986 47.9951 27.1628 48.0473 28.0435 47.4489" stroke="#5A1B09" stroke-width="0.616777" stroke-linecap="round" stroke-linejoin="round"/>
<path id="Vector_8" d="M34.2511 41.407L33.9105 41.5389" stroke="#5A1B09" stroke-width="0.616777" stroke-linecap="round" stroke-linejoin="round"/>
<path id="Vector_9" d="M18.8961 41.407L19.2367 41.5389" stroke="#5A1B09" stroke-width="0.616777" stroke-linecap="round" stroke-linejoin="round"/>
</g>
</g>
<path id="Vector_10" d="M31.873 44.8192C31.2716 44.5062 30.6609 44.7639 30.7315 45.3592C30.7714 45.6998 31.0905 45.8717 31.3974 45.8072C30.5812 45.6262 31.0384 44.8775 31.5324 45.0524C32.3333 45.3347 32.3057 46.9733 31.3268 47.3262C30.0319 47.7895 29.6023 46.1908 28.1816 45.3869C27.4973 45.0002 26.8559 45.215 26.6013 45.6415C26.3466 45.2181 25.7052 45.0002 25.021 45.3869C23.6002 46.1908 23.1706 47.7926 21.8757 47.3262C20.8968 46.9764 20.8692 45.3347 21.6701 45.0524C22.1641 44.8775 22.6213 45.6262 21.8051 45.8072C22.112 45.8686 22.428 45.6968 22.471 45.3592C22.5416 44.767 21.9309 44.5062 21.3295 44.8192C20.188 45.4145 20.2954 47.3354 21.753 47.9C23.1307 48.4339 24.3735 47.63 25.3094 46.6419C25.9538 45.9607 26.3496 46.2399 26.6013 46.2338C26.8529 46.2399 27.2487 45.9607 27.8931 46.6419C28.8259 47.63 30.0718 48.4339 31.4495 47.9C32.9071 47.3354 33.0145 45.4145 31.873 44.8192Z" fill="black"/>
<g id="Group_6">
<path id="Vector_11" d="M46.9978 10.3778C46.3197 13.296 44.6258 15.8951 43.4904 18.6353C42.6006 20.7894 41.8672 23.591 40.6214 25.8341C40.2715 26.4601 39.8849 27.0431 39.44 27.5555C39.4154 27.5801 39.3939 27.6046 39.3694 27.6292C39.2467 27.7703 39.1178 27.9053 38.9828 28.0342C38.0959 28.8873 36.7366 29.1205 35.3251 29.0837C33.757 29.0468 32.1184 28.6786 30.9708 28.4607C28.3656 27.9728 25.7942 27.1812 23.1583 26.6994C22.1518 26.5153 21.3325 26.3833 20.6574 26.2299C18.8869 25.8218 18.1504 25.251 17.8129 23.0877C17.7576 22.7226 17.7116 22.3145 17.6748 21.8511C17.6502 21.5504 17.6288 21.2527 17.6134 20.9489C17.2912 15.4286 17.9632 9.12892 19.4453 3.88785C20.6237 -0.291511 25.6008 -0.165701 29.4058 0.122743C32.4038 0.352883 35.3987 1.04637 38.2893 2.04058C40.6459 2.85375 42.935 3.8633 45.1045 4.98639C47.4581 6.20767 47.587 7.82479 46.9947 10.3778H46.9978Z" fill="#535452"/>
<path id="Vector_12" d="M46.9978 10.5067C46.3197 13.4249 44.6258 16.024 43.4905 18.7642C42.6006 20.9183 41.8672 23.7199 40.6214 25.963C40.2716 26.589 39.8849 27.172 39.44 27.6844C39.5934 27.7305 39.7438 27.7765 39.8972 27.8225C39.8911 27.8225 39.888 27.8225 39.8819 27.8225C39.7162 27.8041 39.5443 27.7826 39.3694 27.7611C36.933 27.4543 33.7601 26.8375 31.6858 25.9415C31.7257 25.8924 31.7686 25.8433 31.8085 25.7942C32.502 24.9565 33.1403 24.1096 33.7264 23.2442C35.2023 21.0656 36.3561 18.7611 37.2491 16.1037C38.099 13.5814 38.814 10.9424 39.0472 8.33111C39.2436 6.15859 38.5962 4.18858 38.2924 2.17255C40.649 2.98571 42.9381 3.99526 45.1076 5.11835C47.4612 6.33963 47.5901 7.95675 46.9978 10.5098V10.5067Z" fill="#353535"/>
<path id="Vector_13" d="M40.6184 25.8341C40.2686 26.4601 39.882 27.0431 39.437 27.5555C39.4125 27.5801 39.391 27.6046 39.3665 27.6292C39.2437 27.7703 39.1148 27.9053 38.9798 28.0342C38.093 28.8873 36.7336 29.1205 35.3221 29.0837C33.7541 29.0468 32.1155 28.6786 30.9678 28.4608C28.3627 27.9729 25.7912 27.1812 23.1553 26.6994C22.1489 26.5153 21.3295 26.3833 20.6545 26.2299C18.8839 25.8218 18.1475 25.2511 17.8099 23.0877C17.7547 22.7226 17.7087 22.3145 17.6718 21.8511C17.6473 21.5504 17.6258 21.2527 17.6105 20.949C18.8348 20.4979 20.455 20.5777 21.3449 20.7434C24.6927 21.3693 28.1356 21.397 31.4066 22.5047C31.8731 22.6612 32.7169 22.8607 33.7234 23.1123C35.9726 23.6769 39.0473 24.5238 40.6154 25.8341H40.6184Z" fill="#E51C3F"/>
<path id="Vector_14" d="M27.5801 29.2586C23.0295 28.8781 18.4512 28.4178 14.0387 27.5709C11.7618 27.1351 8.71474 26.859 6.70484 26.009C5.54186 25.518 3.92167 24.22 6.05431 23.6953C9.74884 22.787 13.6367 22.7164 17.5 22.9803C17.6043 22.9865 17.7086 22.9957 17.8099 23.0018C20.2034 23.1736 22.5876 23.4713 24.9105 23.7751C27.2027 24.0727 29.5103 24.3642 31.8025 24.6864C34.3678 25.0455 36.9208 25.4413 39.4339 25.9231C39.5874 25.9537 39.7377 25.9814 39.8911 26.012C41.0848 26.2453 42.2662 26.503 43.4384 26.7823C44.899 27.1321 48.5506 27.8225 49.0323 29.0069C50.3702 32.2749 30.0933 29.4672 27.574 29.2555L27.5801 29.2586Z" fill="#535452"/>
</g>
</g>
<defs>
<clipPath id="clip0_355_1273">
<rect width="49.0998" height="55.78" fill="white"/>
</clipPath>
</defs>
</svg>
