<svg width="48" height="50" viewBox="0 0 48 50" fill="none" xmlns="http://www.w3.org/2000/svg">
<path d="M43.5028 35.0405C43.5028 38.3023 46.35 36.2132 45.4882 38.436C42.9055 45.0987 36.5182 47.4169 26.7328 47.4169C16.41 47.4169 6.21276 46.5469 3.85095 39.006C3.53458 37.9942 1.20822 30.7151 2.64822 29.6323C3.58367 28.9314 6.37367 31.5742 6.37367 30.2323C6.37367 25.716 10.4591 20.9814 11.6619 23.1442C12.8646 25.3069 16.4209 12.8923 18.51 10.1678C21.2728 6.56234 27.9328 2.77143 28.4155 3.17779C28.9119 3.59506 28.7155 6.63324 30.2864 7.88506C31.9991 9.25143 35.52 8.90234 37.0146 11.0105C38.0428 12.4614 37.0909 14.7632 38.0973 16.1787C38.8255 17.2014 40.0719 15.2323 40.62 16.2987C41.3673 17.7469 39.5482 21.3414 40.14 22.6669C41.7273 26.2178 43.1591 25.3369 44.2255 28.0751C45.3109 30.8569 43.5055 34.536 43.5055 35.0432L43.5028 35.0405Z" fill="#C40B61"/>
<path d="M39.3627 34.2905C39.3627 43.6859 34.3172 46.6505 24.9245 46.6505C15.5317 46.6505 10.2654 43.6832 10.2654 34.2905C10.2654 27.6168 18.6872 23.5696 22.7345 20.9459C25.5408 19.1241 25.6608 16.7786 25.3499 15.2623C25.2572 14.8177 25.7836 14.5068 26.1327 14.8014C29.0263 17.2368 40.3445 26.7441 36.9545 33.6359C36.2372 35.095 39.3599 32.8177 39.3599 34.2932L39.3627 34.2905Z" fill="#DB72A7"/>
<path d="M33.87 40.9014C34.4564 40.615 34.8791 40.0668 35.16 39.475C35.4136 38.9405 35.5636 38.3105 35.3509 37.7596C34.5955 35.815 32.2255 37.1623 31.6718 38.4796C31.0773 39.8923 32.2309 41.7005 33.87 40.8987V40.9014Z" fill="#5A1B09"/>
<path d="M32.0781 39.3632C32.0344 39.5732 32.1026 39.8377 32.2226 39.9932C32.3426 40.1486 32.509 40.1923 32.6453 40.1295C32.839 40.0423 32.9699 39.7341 32.9372 39.4041C32.9044 39.0741 32.7026 38.7659 32.4953 38.7441C32.2881 38.7223 32.1081 39.0168 32.1463 39.3468" fill="white"/>
<path d="M17.2336 40.9014C16.6472 40.615 16.2245 40.0668 15.9436 39.475C15.6899 38.9405 15.5399 38.3105 15.7527 37.7596C16.5081 35.815 18.8781 37.1623 19.4318 38.4796C20.0263 39.8923 18.8727 41.7005 17.2336 40.8987V40.9014Z" fill="#5A1B09"/>
<path d="M19.0255 39.3632C19.0691 39.5732 19.0009 39.8377 18.8809 39.9932C18.7609 40.1486 18.5946 40.1923 18.4582 40.1295C18.2646 40.0423 18.1337 39.7341 18.1664 39.4041C18.1991 39.0741 18.4009 38.7659 18.6082 38.7441C18.8155 38.7223 18.9955 39.0168 18.9573 39.3468" fill="white"/>
<path d="M24.4637 39.9059C25.2001 40.4977 26.3237 40.5441 27.1065 40.0123" stroke="#5A1B09" stroke-width="0.548182" stroke-linecap="round" stroke-linejoin="round"/>
<path d="M32.6237 34.6423L32.3209 34.7596" stroke="#5A1B09" stroke-width="0.548182" stroke-linecap="round" stroke-linejoin="round"/>
<path d="M18.9763 34.6423L19.279 34.7596" stroke="#5A1B09" stroke-width="0.548182" stroke-linecap="round" stroke-linejoin="round"/>
</svg>
