<svg width="47" height="48" viewBox="0 0 47 48" fill="none" xmlns="http://www.w3.org/2000/svg">
<path d="M43.3713 33.9481C43.3713 37.3053 46.3018 35.1551 45.4148 37.4428C42.7565 44.3004 36.1825 46.6863 26.1109 46.6863C15.4863 46.6863 4.9909 45.7909 2.56002 38.0295C2.23441 36.9881 -0.159977 29.4961 1.32213 28.3818C2.28494 27.6604 5.15651 30.3804 5.15651 28.9993C5.15651 24.3509 9.36143 19.4779 10.5993 21.7039C11.8372 23.9298 15.4976 11.1523 17.6477 8.34808C20.4913 4.6372 27.346 0.735444 27.8428 1.15369C28.3537 1.58316 28.1516 4.71018 29.7684 5.9986C31.5313 7.40492 35.1551 7.04562 36.6934 9.21544C37.7516 10.7088 36.772 13.0779 37.8077 14.5347C38.5572 15.5874 39.84 13.5607 40.4042 14.6583C41.1734 16.1488 39.3011 19.8484 39.9102 21.2126C41.5439 24.8674 43.0176 23.9607 44.1151 26.779C45.2323 29.6421 43.3741 33.4288 43.3741 33.9509L43.3713 33.9481Z" fill="#BFC330"/>
<path d="M39.1102 33.1761C39.1102 42.8463 33.9172 45.8975 24.2498 45.8975C14.5825 45.8975 9.16211 42.8435 9.16211 33.1761C9.16211 26.3073 17.8302 22.1417 21.9958 19.4414C24.8842 17.5663 25.0077 15.1523 24.6877 13.5916C24.5923 13.134 25.134 12.814 25.4933 13.1172C28.4716 15.6238 40.1207 25.4091 36.6316 32.5024C35.8933 34.0042 39.1074 31.6603 39.1074 33.1789L39.1102 33.1761Z" fill="#D35322"/>
<path d="M33.4569 39.9803C34.0604 39.6856 34.4955 39.1214 34.7846 38.5123C35.0456 37.9621 35.2 37.3137 34.9811 36.7466C34.2035 34.7452 31.7642 36.1319 31.1944 37.4877C30.5825 38.9417 31.7698 40.8028 33.4569 39.9775V39.9803Z" fill="#5A1B09"/>
<path d="M31.6126 38.3972C31.5677 38.6133 31.6379 38.8856 31.7614 39.0456C31.8849 39.2056 32.0562 39.2505 32.1965 39.186C32.3958 39.0961 32.5305 38.7789 32.4969 38.4393C32.4632 38.0996 32.2554 37.7824 32.0421 37.76C31.8288 37.7375 31.6435 38.0407 31.6828 38.3803" fill="white"/>
<path d="M16.334 39.9803C15.7305 39.6856 15.2954 39.1214 15.0063 38.5123C14.7453 37.9621 14.5909 37.3137 14.8098 36.7466C15.5874 34.7452 18.0267 36.1319 18.5965 37.4877C19.2084 38.9417 18.0211 40.8028 16.334 39.9775V39.9803Z" fill="#5A1B09"/>
<path d="M18.1783 38.3972C18.2232 38.6133 18.153 38.8856 18.0295 39.0456C17.906 39.2056 17.7348 39.2505 17.5945 39.186C17.3952 39.0961 17.2604 38.7789 17.2941 38.4393C17.3278 38.0996 17.5355 37.7824 17.7488 37.76C17.9622 37.7375 18.1474 38.0407 18.1081 38.3803" fill="white"/>
<path d="M23.7755 38.9558C24.5334 39.5649 25.6899 39.6126 26.4955 39.0653" stroke="#5A1B09" stroke-width="0.564211" stroke-linecap="round" stroke-linejoin="round"/>
<path d="M32.174 33.5382L31.8624 33.6589" stroke="#5A1B09" stroke-width="0.564211" stroke-linecap="round" stroke-linejoin="round"/>
<path d="M18.1277 33.5382L18.4393 33.6589" stroke="#5A1B09" stroke-width="0.564211" stroke-linecap="round" stroke-linejoin="round"/>
</svg>
